<svg xmlns="http://www.w3.org/2000/svg" viewBox="0 0 1640.44 1438.07"><defs><style>.cls-1{fill:#040713;stroke-miterlimit:10;}.cls-1,.cls-2{stroke:#fff;}.cls-2{fill:none;stroke-linecap:round;stroke-linejoin:round;}.cls-3{opacity:0.5;}</style></defs><title>microsd</title><g id="ladowarka"><path class="cls-1" d="M996.29,737.09h0a10,10,0,0,0,.06-1.11,8,8,0,0,0-.06-1.1v-13.4a11.67,11.67,0,0,0,0-1.87v-.29a.48.48,0,0,0-.07-.24,12.52,12.52,0,0,0-2.47-6.1L870.69,551.45,830,498a20.43,20.43,0,0,0-12.08-7.61l-62.69-13.07a22.25,22.25,0,0,0-13,1.17L636.43,521.6l-54.25,22.07a12.6,12.6,0,0,0-7.78,13.09v12.67a13.13,13.13,0,0,0,0,2.66,12.73,12.73,0,0,0,2.21,5.87L721.25,784.87l24,34.43a26.67,26.67,0,0,0,21.91,11.43,27,27,0,0,0,9.61-1.78l211.41-81.18A12.54,12.54,0,0,0,996.29,737.09Z"/><path class="cls-1" d="M1064.06,910.41l-30.33-39.81h0l-.06-.05-.08-.08-.13,0,0,0h0l-14.3-2.36-3.07-3.77a2.87,2.87,0,0,1-.54-2.55,2.82,2.82,0,0,1,1.74-1.94l3.27-1.26a2.44,2.44,0,0,0,1.51-1.65,2.47,2.47,0,0,0-.41-2.2l-5.6-7.35a.51.51,0,0,0-.32-.19l-25.47-4.19L971,816.61a20.31,20.31,0,0,0-24.11-6.85L881.3,836.44a10.43,10.43,0,0,0-4.62,15.65l70.11,100.28a20.66,20.66,0,0,0,24.36,7.45l88.54-34a10,10,0,0,0,4.37-15.42Z"/><path class="cls-2" d="M946.4,747.93l.93-.37L988.05,732a12.15,12.15,0,0,0,5.3-18.69l-28.51-37.42L870.3,551.76l-40.72-53.43a19.91,19.91,0,0,0-11.78-7.43l-62.69-13.07A21.86,21.86,0,0,0,742.45,479l-2.85,1.16-103,41.94-54.25,22.07A12.15,12.15,0,0,0,577,562.33l59.24,84.72,85.4,122.17,24.08,34.43a26.25,26.25,0,0,0,30.92,9.47L823,795.32"/><polyline class="cls-2" points="822.97 803.22 852.27 791.97 923.52 764.61 946.4 755.83"/><line class="cls-2" x1="577.54" y1="563.1" x2="577.54" y2="563.09"/><path class="cls-2" d="M995.8,734.92a8.94,8.94,0,0,1,.05,1c0,.36,0,.72-.05,1.07a12.09,12.09,0,0,1-7.74,10.27l-43.75,16.8L826.7,809.25l-50.06,19.23A26.27,26.27,0,0,1,745.71,819l-24.05-34.43L636.25,662.4,577,577.67A12.1,12.1,0,0,1,574.9,572v0a12,12,0,0,1,0-2.54"/><line class="cls-2" x1="995.79" y1="719.29" x2="995.79" y2="737.09"/><path class="cls-2" d="M1033.32,870.89l-14.5-2.39-3.19-3.92a3.37,3.37,0,0,1,1.41-5.27l3.27-1.26a2,2,0,0,0,.88-3.08l-5.6-7.35-25.66-4.22"/><path class="cls-2" d="M989.92,843.4l-19.36-26.5A19.86,19.86,0,0,0,947,810.22L881.49,836.9a9.93,9.93,0,0,0-4.4,14.9L947.2,952.08A20.18,20.18,0,0,0,971,959.36l88.54-34a9.51,9.51,0,0,0,4.15-14.65l-30.34-39.82"/><line class="cls-2" x1="946.39" y1="746.32" x2="946.39" y2="755.84"/><path class="cls-2" d="M947.33,747.56l-.93-1.24-6.82-8.93A17.75,17.75,0,0,0,927,730.45h0a17.65,17.65,0,0,0-8,1l-98.71,37.2a9.93,9.93,0,0,0-4.63,15L823,794v9.2"/><line class="cls-2" x1="946.39" y1="755.84" x2="927.04" y2="730.45"/><line class="cls-2" x1="574.9" y1="572.03" x2="574.9" y2="556.44"/></g></svg>