<svg xmlns="http://www.w3.org/2000/svg" viewBox="0 0 1640.44 1438.07"><defs><style>.cls-1{fill:#040713;}.cls-1,.cls-2,.cls-3,.cls-4{stroke:#fff;}.cls-1,.cls-4{stroke-miterlimit:10;}.cls-2,.cls-3,.cls-4{fill:none;}.cls-2,.cls-3{stroke-linecap:round;stroke-linejoin:round;}.cls-3,.cls-4{stroke-width:0.5px;}.cls-5{opacity:0.5;}</style></defs><title>szczypce</title><g id="szczypce_detal" data-name="szczypce detal"><path class="cls-1" d="M1534.16,679.26c-12.46-10.32-33.54-18.2-55.33-9.4-17.37,7-60,32.38-88.23,49.16-6.86,4.07-12.78,7.6-17.07,10.1-64.69,36.33-124,52-217.46,69.89a765.66,765.66,0,0,1-143.38,13.54,788,788,0,0,1-118.55-9l-71.55-12.39a.6.6,0,0,0-.23,0,7.85,7.85,0,0,0-5.3,2c-32.83-2.31-41.35,1-43.5,3.14a2.56,2.56,0,0,0-.61.89l-34.73,1.61L719.32,803a8.14,8.14,0,0,0-1.34-5.33,8.68,8.68,0,0,0-6.81-3.55c1.05-4.24.32-7.78-2.07-10a8.25,8.25,0,0,0-5.26-2.14,8.83,8.83,0,0,0-3.43-7,7.32,7.32,0,0,0-1-.62l.22-.18a.45.45,0,0,0,.11-.13l9.93-16.55a19.4,19.4,0,0,1-2.36,4.7l-.88,1a.5.5,0,0,0,0,.68.51.51,0,0,0,.36.15.52.52,0,0,0,.33-.12,5.94,5.94,0,0,0,.92-1l21-22.92c.11-.11.21-.24.33-.36l0,0a33.87,33.87,0,0,0,10.06-16.15L752,678.56c36.89-108.69,125.09-198.85,242-247.33l118.31-41.64h0c13.06-4.59,26-18.17,32.3-33.77,4.47-11.16,4.74-21.65.73-29.54C1135,306,1123.77,304.77,1106.8,303l-1.26-.14c-18.73-2-59.9,7.12-107.79,23.82h0l-38.53,13.56-1.17.48c-69.91,28.81-131.18,69.38-182.09,120.58a496.59,496.59,0,0,0-74.1,95l-.5.85-2,3.41-.94,1.61-.15.27q-.54.93-1.05,1.86a.28.28,0,0,0,0,.13c-16.5,29.64-25.32,60.55-26.21,92a34.26,34.26,0,0,0-.23,5c-.63,1.73-7.86,21.77-9.14,30a.49.49,0,0,0,.23.5c0,.22-.06.43-.08.65C640,717,586,743.11,585.3,743.43l-26.9,17.36a.52.52,0,0,0-.2.59l3.94,11.41a85.11,85.11,0,0,0-32.49,13.07l-12.21-9.05a.5.5,0,0,0-.47-.06L447.32,803,91.91,967.74a.5.5,0,0,0-.27.59l5.11,18.38a.5.5,0,0,0,.48.37h.08l187.28-32.35,134.12-34.38h0a.55.55,0,0,0,.22-.14l0,0a.66.66,0,0,0,.11-.24h0c0-.27,3-26.94,32.63-33.26,27.67-5.91,43.77,5.49,45.95,7.17L466,914.4l-7.5-5a.52.52,0,0,0-.56,0L348.16,982.94,190.88,1104l0,0,0,0-.06.09,0,.06a.45.45,0,0,0,0,.2h0v18.9a.5.5,0,0,0,.14.35l11.74,11.74h0a.1.1,0,0,0,0,0,.52.52,0,0,0,.11.07l.12,0h.07a.45.45,0,0,0,.2,0h0L572.84,970.52l.09,0,40.34-30.13a.49.49,0,0,0,.2-.4V927a76.91,76.91,0,0,0,20.81-11.34l15.49,7.91a.46.46,0,0,0,.22.06h0a.54.54,0,0,0,.22-.05c1-.46,93.19-44.36,143.87-42.78a2.34,2.34,0,0,0,.39,2,1.75,1.75,0,0,0,.81.49h0L848,898a62.35,62.35,0,0,0,6.13,2.81,24.43,24.43,0,0,0,8.52,1.93,10.79,10.79,0,0,0,1.75-.14l60.37,10.46,1,.17a790.21,790.21,0,0,0,118.7,9.06,767.7,767.7,0,0,0,143.58-13.55c88.53-16.91,171-49,245.09-95.34l29.44-18.59c49.49-28.84,80.78-60,85.84-85.59C1550.35,699.6,1544.87,688.12,1534.16,679.26Z"/><ellipse class="cls-2" cx="580.33" cy="826.1" rx="74" ry="54.47"/><path class="cls-2" d="M613,926.61A76.68,76.68,0,0,0,634.23,915"/><polyline class="cls-2" points="606.85 876.97 612.97 889.89 612.97 939.94 572.63 970.07 202.93 1135 191.19 1123.26 191.19 1104.36 348.46 983.34 458.25 909.81 470.5 917.98 542.64 872.99"/><path class="cls-2" d="M1462.33,794.39l-10.64,6.71-9.73,6.15-9.07,5.73c-74,46.31-156.43,78.37-244.92,95.27a764.09,764.09,0,0,1-143.48,13.55,786.07,786.07,0,0,1-118.63-9.06l-1-.17L864.42,902.1l-10.11-1.75"/><path class="cls-2" d="M1373.78,729.55c-66.68,37.45-129.12,53.05-217.61,70a764.09,764.09,0,0,1-143.48,13.55A786.07,786.07,0,0,1,894.06,804l-1-.17-60.43-10.47-10.11-1.75"/><path class="cls-2" d="M697.59,564.47c.37-.66.74-1.32,1.12-2,1-1.72,2-3.44,3-5.16.16-.28.33-.56.5-.84a494,494,0,0,1,74-94.86c50.87-51.16,112.08-91.69,181.93-120.47l1.17-.48,36.32-12.78,2.19-.77"/><path class="cls-2" d="M729,739.12a33.48,33.48,0,0,0,9.92-15.91l12.56-44.81c37-108.88,125.23-199.09,242.27-247.65l118.33-41.64"/><path class="cls-2" d="M466,915l43.28-28.16s7.14,2.49,16.9-3.6"/><polyline class="cls-2" points="418.59 919.85 423.53 867.94 417.4 855.17 506.45 829.14 506.45 888.7"/><polygon class="cls-2" points="634.24 863.42 650 872.99 650 923.09 634.24 915.04 634.24 863.42"/><path class="cls-2" d="M650,873s112.86-60.73,144.77-49.74"/><path class="cls-2" d="M650,923.09s99.07-47.49,149.11-42.51"/><path class="cls-2" d="M848.17,897.53a62.41,62.41,0,0,0,6.14,2.82c3.92,1.52,7.39,2.22,10.11,1.75a6.75,6.75,0,0,0,3.36-1.49c13.62-11.57-14.13-58.89-14.13-58.89s-26.06-47.42-29.41-49.47-7,1.39-7,1.39c-44.43-3.15-43.88,4-43.88,4l-35,1.61-84.77,19"/><polyline class="cls-2" points="623.65 781.94 684.46 735.68 700.01 709.76"/><polyline class="cls-3" points="671.99 796.36 674.57 794.21 674.58 794.21"/><polyline class="cls-2" points="698.43 774.42 699.27 773.72 710.5 755"/><line class="cls-2" x1="667.59" y1="800.01" x2="652.12" y2="812.84"/><path class="cls-2" d="M562.8,773.17l-4.12-12,26.89-17.36s70.57-33.9,83.52-61.13"/><path class="cls-2" d="M529.6,786.45l-12.46-9.24-69.61,26.22L92.12,968.19l5.11,18.39,187.23-32.34,134.13-34.39s2.72-27.23,33-33.7,46.64,7.49,46.64,7.49"/><path class="cls-2" d="M94.3,976l183-63.34S343.7,881,423.53,867.94"/><path class="cls-2" d="M995.69,327.91c51.55-18.15,92.18-26.44,109.79-24.57s28.93,2.59,39.36,23.17-10.36,54.73-32.75,62.61"/><path class="cls-2" d="M1462.33,794.39c51.41-29.94,80.77-60.75,85.62-85.26,4.56-23-33.53-53.11-68.93-38.81-21.66,8.74-83.68,46.66-105.24,59.23"/><polyline class="cls-2" points="191.19 1104.36 203.13 1116.28 202.93 1135"/><polyline class="cls-2" points="203.13 1116.28 569.4 919.43 612.97 889.89"/><path class="cls-2" d="M662,691.42c1.32-8.51,9.15-30,9.15-30s-.64-15.36,7.37-15.65c9.23-.34,26.85,12.08,38.85,26.88,16.15,19.94,21.7,56.94,11.23,66.9l-21,23a6,6,0,0,1-.88,1l.88-1c3.32-4.39,7.39-18.05,2.86-32.57-4.93-15.83-28.79-48-39.33-47.49a10.19,10.19,0,0,0-2.09.31c-5,1.31-6.53,6.32-6.92,10"/><path class="cls-2" d="M775.19,795.77c7.66,6.47,23,29.1,26.38,40.68s.85,44.76-3.75,46.13-3.06-2.37-3.06-2.37"/><path class="cls-2" d="M671.41,656.5c.54-19.88,4.7-57.06,30.83-100"/><line class="cls-2" x1="795.43" y1="882.79" x2="851.42" y2="898.44"/><path class="cls-2" d="M717.57,797.94c-1-1.47-3.07-3.22-7-3.37,1.22-4.32.6-7.9-1.77-10.13a7.89,7.89,0,0,0-5.4-2c-.07-3.08-1.14-5.6-3.24-7.11a7.5,7.5,0,0,0-4.45-1.36,10.76,10.76,0,0,0-2.4.29c-.2-3.6-1.6-6.28-4-7.69a7.37,7.37,0,0,0-3.7-1,10.54,10.54,0,0,0-3.85.8c-.71-3.6-2.5-6.26-5.25-7.31a7.13,7.13,0,0,0-2.56-.47c-5.54,0-11.6,6.11-15.07,15.19-4.09,10.68-2.68,20.45,3.28,22.74a7.12,7.12,0,0,0,2.56.46,7.3,7.3,0,0,0,1.14-.09,7.68,7.68,0,0,0,3.4,4.37,7.23,7.23,0,0,0,3.69,1l.7,0a8,8,0,0,0,3.14,5.68A7,7,0,0,0,679,809a8,8,0,0,0,1.12,3.29l12.53-2.8h0l3-.66,23.1-5.17A7.81,7.81,0,0,0,717.57,797.94Z"/><line class="cls-4" x1="284.46" y1="954.23" x2="275.28" y2="913.4"/><line class="cls-4" x1="275.42" y1="955.79" x2="266.57" y2="916.42"/><line class="cls-4" x1="266.39" y1="957.35" x2="257.86" y2="919.43"/><line class="cls-4" x1="257.35" y1="958.91" x2="249.15" y2="922.45"/><line class="cls-4" x1="248.31" y1="960.47" x2="240.44" y2="925.46"/><line class="cls-4" x1="239.27" y1="962.04" x2="231.72" y2="928.48"/><line class="cls-4" x1="230.24" y1="963.6" x2="223.02" y2="931.49"/><line class="cls-4" x1="221.2" y1="965.16" x2="214.31" y2="934.51"/><line class="cls-4" x1="212.16" y1="966.72" x2="205.6" y2="937.52"/><line class="cls-4" x1="203.13" y1="968.28" x2="196.89" y2="940.53"/><line class="cls-4" x1="194.09" y1="969.84" x2="188.17" y2="943.55"/><line class="cls-4" x1="185.05" y1="971.4" x2="179.47" y2="946.56"/><line class="cls-4" x1="176.01" y1="972.96" x2="170.75" y2="949.58"/><line class="cls-4" x1="166.97" y1="974.52" x2="162.04" y2="952.59"/><line class="cls-4" x1="157.94" y1="976.08" x2="153.34" y2="955.61"/><line class="cls-4" x1="148.9" y1="977.64" x2="144.62" y2="958.62"/><line class="cls-4" x1="139.86" y1="979.21" x2="135.91" y2="961.64"/><line class="cls-4" x1="130.83" y1="980.77" x2="127.2" y2="964.65"/><line class="cls-4" x1="121.79" y1="982.33" x2="118.49" y2="967.67"/><line class="cls-4" x1="112.75" y1="983.89" x2="109.78" y2="970.68"/><line class="cls-4" x1="103.72" y1="985.45" x2="101.07" y2="973.7"/><path class="cls-3" d="M671,794.56c3.42-2.59,6.58-7.09,8.74-12.75a34.68,34.68,0,0,0,2.21-9.16"/><path class="cls-3" d="M665.79,796.91a7.3,7.3,0,0,1-1.14.09,7.12,7.12,0,0,1-2.56-.46c-6-2.29-7.37-12.06-3.28-22.74,3.47-9.08,9.53-15.19,15.07-15.19a7.13,7.13,0,0,1,2.56.47c2.75,1,4.54,3.71,5.25,7.31"/><path class="cls-3" d="M676.36,769.78c-.07-3-.87-5-2-5.4a1.32,1.32,0,0,0-.53-.1c-2.16,0-6.76,3.67-9.78,11.55-3.09,8.08-2,14.62,0,15.41a1.47,1.47,0,0,0,.53.09,2.09,2.09,0,0,0,.53-.07"/><path class="cls-3" d="M692.62,780.47a34.47,34.47,0,0,1-3.52,8.71h0"/><path class="cls-3" d="M693.27,774.25h0c-.2-3.6-1.6-6.28-4-7.69a7.37,7.37,0,0,0-3.7-1,10.54,10.54,0,0,0-3.85.8,18.93,18.93,0,0,0-5.33,3.39,33.64,33.64,0,0,0-6.85,8.54,31,31,0,0,0-4.33,12.94,14.32,14.32,0,0,0,.61,5.65,7.68,7.68,0,0,0,3.4,4.37,7.23,7.23,0,0,0,3.69,1l.7,0"/><path class="cls-3" d="M679.13,800.23a20.92,20.92,0,0,0,2.55-1.84h0"/><path class="cls-3" d="M674,796.41h0a4,4,0,0,1-1.07.16,1.71,1.71,0,0,1-.86-.19,2.69,2.69,0,0,1-1-1.82c-.6-2.7.21-7.81,3.44-13.41a25.39,25.39,0,0,1,7.51-8.5,7.08,7.08,0,0,1,3.61-1.39,1.71,1.71,0,0,1,.86.2c.91.52,1.36,2.31,1.19,4.67,0,.25,0,.51-.07.78"/><path class="cls-3" d="M697.15,798.62c.13-.16.24-.32.36-.48a33.3,33.3,0,0,0,5-10"/><path class="cls-3" d="M703.36,782.42c-.07-3.08-1.14-5.6-3.24-7.11a7.5,7.5,0,0,0-4.45-1.36,10.76,10.76,0,0,0-2.4.29h0a17.56,17.56,0,0,0-5.75,2.66,33.16,33.16,0,0,0-8.2,8.16A32.27,32.27,0,0,0,674,796.41h0c-.09.39-.17.77-.23,1.15a15.06,15.06,0,0,0-.14,4.65,8,8,0,0,0,3.14,5.68A7,7,0,0,0,679,809"/><path class="cls-3" d="M686.7,807.82a17,17,0,0,1-2,.82"/><path class="cls-3" d="M697.67,783.63c.17-1.87-.15-3.2-.86-3.71a1.91,1.91,0,0,0-1.14-.3,7.45,7.45,0,0,0-3,.85,25,25,0,0,0-8.69,7.91,26.05,26.05,0,0,0-4.63,10.14,12.05,12.05,0,0,0-.17,1.71,4.47,4.47,0,0,0,.57,2.7"/><path class="cls-3" d="M686.52,801.35h0a28,28,0,0,0,6.37-6.51,32.46,32.46,0,0,0,2-3.07"/><path class="cls-3" d="M708,800.41h0a35.86,35.86,0,0,1-4.77,6.31c-.16.17-.31.33-.48.49"/><path class="cls-3" d="M710.53,794.57c1.22-4.32.6-7.9-1.77-10.13a7.89,7.89,0,0,0-5.4-2h-.13a15,15,0,0,0-5.56,1.21,29.82,29.82,0,0,0-8.57,5.55h0c-.76.68-1.51,1.41-2.23,2.18a34.4,34.4,0,0,0-5.17,7h0a22.94,22.94,0,0,0-2,4.54,13.92,13.92,0,0,0-.68,6,8,8,0,0,0,1.12,3.29"/><path class="cls-3" d="M704.13,795.51a15.7,15.7,0,0,0,.83-2.12c.71-2.26.67-4.11-.09-4.82a2.35,2.35,0,0,0-1.64-.48,4.15,4.15,0,0,0-.69,0,17,17,0,0,0-7.68,3.62,32,32,0,0,0-3.87,3.5,29,29,0,0,0-4.45,6.08h0c-1.68,3.13-2.23,5.82-1.84,7.3a1.86,1.86,0,0,0,.48.89,2,2,0,0,0,.28.2"/><path class="cls-3" d="M684.66,811.25c.23-.5.5-1,.79-1.52a21.51,21.51,0,0,1,1.25-1.91,33.26,33.26,0,0,1,8-7.64c.8-.56,1.62-1.08,2.44-1.56a32.21,32.21,0,0,1,7-3.11,20,20,0,0,1,5.83-1h.57c4,.15,6,1.9,7,3.37a7.81,7.81,0,0,1,1.18,5.69"/><path class="cls-3" d="M692.67,809.46h0a29.65,29.65,0,0,1,5.27-4.61,26,26,0,0,1,10-4.43h0a11.88,11.88,0,0,1,2-.18c1.46,0,2.54.34,2.95.94s.36,2.13-.48,3.87"/></g></svg>