<svg xmlns="http://www.w3.org/2000/svg" viewBox="0 0 1640.44 1438.07"><defs><style>.cls-1{fill:#040713;stroke-miterlimit:10;}.cls-1,.cls-2{stroke:#fff;}.cls-2{fill:none;stroke-linecap:round;stroke-linejoin:round;}.cls-3{opacity:0.5;}</style></defs><title>power supply</title><g id="ladowarka"><path class="cls-1" d="M1534.74,1206.38a.74.74,0,0,0,.27-.51.76.76,0,0,0-.16-.55c-145-177.19-267.64-137.93-386.24-99.94-26.22,8.39-53.33,17.07-80.78,23.43-53.55,12.41-108.37-6.37-162.93-55.81a390.86,390.86,0,0,1-37.34-39.14l311.26-126.71a63.22,63.22,0,0,0,39.56-55.53.76.76,0,0,0,.11-.38V577.54a.74.74,0,0,0-.47-.69A63.61,63.61,0,0,0,1205.43,546L966.21,232A86,86,0,0,0,868,203.5L419.58,375.66a58.38,58.38,0,0,0-38,56.16.61.61,0,0,0,0,.15V571.74L246.9,623.42a.74.74,0,0,0-.22.14,6,6,0,0,0-.8.42L227,636.41a21.9,21.9,0,0,0-9.87,18.32l0,37.44L113.89,731.8l-.2.07-.1.06a12.43,12.43,0,0,0-7,15.64,12.59,12.59,0,0,0,11.84,8.61,11.9,11.9,0,0,0,3.82-.63l.15,0,.24-.09.14-.06,94.27-36.19,0,22.17a135,135,0,0,0,6.16,40.4l5.55,17.73-114.9,44.11-.2.08-.1.06a12.41,12.41,0,0,0-7,15.64A12.59,12.59,0,0,0,118.48,868a11.84,11.84,0,0,0,3.81-.63l.16-.05.24-.09.14-.06,113.5-43.58,13.38,42.75a4.29,4.29,0,0,0,4.36,3l24.05-1.45a15.79,15.79,0,0,0,5.81-1.49l.07,0L445.69,804,625,1060.36a86.06,86.06,0,0,0,102.94,30.35l39.21-16h.1a.72.72,0,0,0,.57-.28l47.31-19.26a456.49,456.49,0,0,0,52.33,57c53.94,49.23,111.46,74.49,168.58,74.49a195.08,195.08,0,0,0,44.06-5.06c29.39-6.82,57.45-15.8,84.61-24.48l.5-.16c115.12-36.87,206-66,327.71,82.66a.73.73,0,0,0,.5.27h.08a.73.73,0,0,0,.47-.17"/><path class="cls-2" d="M1534.27,1205.79c-144.7-176.79-267.06-137.61-385.4-99.71-26.27,8.41-53.43,17.1-80.87,23.46-53.8,12.46-108.84-6.37-163.6-56a393,393,0,0,1-38.07-40c-1.72-2.06-3.37-4.09-5-6.07-7.92-9.89-14.25-18.68-18.8-25.32-3.87-5.65-6.45-9.75-7.63-11.64h0"/><path class="cls-2" d="M1204.83,546.44l-239.22-314a85.22,85.22,0,0,0-97.37-28.27L419.84,376.37a57.5,57.5,0,0,0-27.17,86.88L625.58,796.38a85.23,85.23,0,0,0,102,30.08l450.91-183.55A63,63,0,0,0,1204.83,546.44Z"/><path class="cls-2" d="M1217.61,588.51A62.94,62.94,0,0,1,1178.54,651L727.63,834.54a85.23,85.23,0,0,1-102-30.07L392.67,471.33a57,57,0,0,1-10.25-36.91"/><path class="cls-2" d="M810.65,1048.12l-83,33.8a85.22,85.22,0,0,1-102-30.08l-5.27-7.53h0l-140.51-201-29.39-42"/><path class="cls-2" d="M1217.74,839.92c0,1.35,0,2.7-.13,4.05v0a62.85,62.85,0,0,1-39.07,54.38L861.38,1027.48"/><polyline class="cls-2" points="785.63 1025.08 782.61 1020.76 750.83 975.3 738.3 957.38"/><path class="cls-2" d="M839.9,983.76l0,0-1.7-2.42,0-.07-32.49-46.48-11.82-16.9"/><path class="cls-2" d="M866.33,1033.55l312.21-127.1a62.9,62.9,0,0,0,39.2-58.43c0-1.34,0-2.69-.13-4v0"/><path class="cls-2" d="M446,803l179.62,256.9a85.22,85.22,0,0,0,102,30.08l87.72-35.71"/><polyline class="cls-2" points="382.27 572.25 382.27 438.5 382.27 431.97"/><line class="cls-2" x1="1217.74" y1="577.54" x2="1217.74" y2="851.24"/><line class="cls-2" x1="767.22" y1="1065.8" x2="767.22" y2="998.72"/><line class="cls-2" x1="767.22" y1="1074" x2="767.22" y2="1073.89"/><line class="cls-2" x1="767.22" y1="903.38" x2="767.22" y2="818.42"/><path class="cls-2" d="M795.57,920.33l0,0a21.36,21.36,0,0,0-1.61-2.32l-.12-.15c-9.49-11.74-29.1-11.63-43.79.24-13.32,10.77-18,27.5-11.72,39.29a21.24,21.24,0,0,0,2.3,3.49c.24.3.5.6.76.88"/><path class="cls-2" d="M842.58,1002.16a25.4,25.4,0,0,0-2.67-18.41l-.12-.19a20.68,20.68,0,0,0-1.6-2.27l-.05-.07c-9.49-11.74-29.1-11.63-43.8.25s-18.91,31-9.41,42.77a23.56,23.56,0,0,0,14.51,8.27"/><path class="cls-2" d="M835,990.54l0,0h0a17.08,17.08,0,0,0-2.65-4.57c-7.41-9.16-22.71-9.08-34.18.2s-14.76,24.21-7.35,33.38c.15.19.31.37.48.55v0"/><path class="cls-2" d="M805.65,934.74s0,0,0,0c.76-7.9-1.14-15.55-6-21.58-11.57-14.31-35.45-14.17-53.35.3s-23,37.79-11.47,52.1a28.43,28.43,0,0,0,16,9.75"/><line class="cls-2" x1="620.31" y1="796.94" x2="620.31" y2="1044.31"/><line class="cls-2" x1="441.67" y1="549.45" x2="247.17" y2="624.12"/><line class="cls-2" x1="475.61" y1="670.01" x2="293.58" y2="739.9"/><line class="cls-2" x1="479.51" y1="790.09" x2="283.76" y2="865.63"/><path class="cls-2" d="M217.85,718.07l0,23.26A134.48,134.48,0,0,0,224,781.51l5.76,18.4"/><path class="cls-2" d="M217.86,692.69h0l0-37.95A21.2,21.2,0,0,1,227.43,637l18.87-12.43a4.53,4.53,0,0,1,6.81,2.38l29.32,89.51a201.44,201.44,0,0,1,10,62.75v72.59a15.29,15.29,0,0,1-8.16,13.53,15.1,15.1,0,0,1-6.21,1.73l-24,1.45a3.55,3.55,0,0,1-3.6-2.48l-13.62-43.51"/><path class="cls-2" d="M473.91,792.24h0a15.29,15.29,0,0,0,12.86-15.1V704.55a201.22,201.22,0,0,0-7-52.54c-.91-3.43-1.93-6.83-3-10.21l-29.33-89.51a4.53,4.53,0,0,0-6.36-2.63l-.06,0h0"/><path class="cls-2" d="M246.91,681.54l.53-.21c4.1-1.39,9.12,2.51,11.23,8.69s.5,12.35-3.58,13.75h0"/><path class="cls-2" d="M171.06,710.66l.53-.21h0c4.09-1.35,9.1,2.53,11.2,8.71s.51,12.34-3.58,13.74h0"/><path class="cls-2" d="M113.93,732.6a3.33,3.33,0,0,1,.52-.21l.46-.14c4-1,8.74,2.86,10.77,8.83s.64,11.81-3.07,13.54a3.33,3.33,0,0,1-.52.21"/><path class="cls-2" d="M114.93,732.25a4.34,4.34,0,0,0-.48.14,3.69,3.69,0,0,0-.42.17.11.11,0,0,0-.1,0,11.86,11.86,0,0,0,8.16,22.23,3.69,3.69,0,0,0,.42-.17.14.14,0,0,0,.1,0"/><polyline class="cls-2" points="113.97 732.57 114.17 732.49 114.24 732.46 171.58 710.45 247.43 681.33"/><polyline class="cls-2" points="122.09 754.83 122.16 754.81 122.3 754.75 122.44 754.7 122.53 754.66 122.56 754.65 179.23 732.89 255.08 703.77"/><path class="cls-2" d="M255.08,815.55c4.09-1.39,5.7-7.55,3.59-13.75s-7.14-10.09-11.24-8.69"/><path class="cls-2" d="M179.23,844.67c4.09-1.39,5.7-7.55,3.59-13.75s-7.14-10.09-11.24-8.69"/><path class="cls-2" d="M113.93,844.38a3.33,3.33,0,0,1,.52-.21l.46-.14c4-1,8.74,2.86,10.77,8.83s.64,11.81-3.07,13.54a3.33,3.33,0,0,1-.52.21"/><path class="cls-2" d="M114.93,844a4.34,4.34,0,0,0-.48.14,3.69,3.69,0,0,0-.42.17.11.11,0,0,0-.1,0,11.86,11.86,0,0,0,8.16,22.23,3.69,3.69,0,0,0,.42-.17.14.14,0,0,0,.1,0"/><polyline class="cls-2" points="113.97 844.35 114.17 844.27 114.24 844.24 171.58 822.23 247.43 793.11"/><polyline class="cls-2" points="122.09 866.61 122.16 866.59 122.3 866.53 122.44 866.48 122.53 866.44 122.56 866.43 179.23 844.67 255.08 815.55"/><path class="cls-2" d="M791.25,1020.07v0c1.79,2.86,4.53,7.11,8.18,12.42,3.09,4.52,6.84,9.79,11.21,15.61q2.24,3,4.7,6.18a459,459,0,0,0,52.59,57.36c67.66,61.75,140.95,85.7,212,69.25,29.55-6.85,57.76-15.89,85-24.62,115.39-37,206.54-66.14,328.52,82.9"/></g></svg>