<svg xmlns="http://www.w3.org/2000/svg" viewBox="0 0 1640.44 1438.07"><defs><style>.cls-1{opacity:0.5;}.cls-2{fill:#040713;stroke-miterlimit:10;}.cls-2,.cls-3{stroke:#fff;}.cls-3{fill:none;stroke-linecap:round;stroke-linejoin:round;stroke-width:0.5px;}</style></defs><title>reader</title><g id="ads"><path class="cls-2" d="M1258.7,845V761.72a5,5,0,0,0-1-2.7L1103.19,556.27a11.81,11.81,0,0,0-13.56-3.85l-7.33,2.82-15.8-20.74a10.43,10.43,0,0,0-12-3.39l-45.69,17.56-40.27,15.46-10.23-13.79c-.21-.31-.41-.58-.61-.83l-.11-.14h0c-4-5-10.51-7.45-17.85-6.83l-52.06-73.2A334.15,334.15,0,0,0,515.27,357.62,197.18,197.18,0,0,0,412.79,650.25l.18.31L556.2,856.21c-4.08,7.87-4.66,16.58-1,23.63h0l0,.06a17.11,17.11,0,0,0,1.09,1.84h0l3.27,5.57a50.46,50.46,0,0,0-17.55,34.27h0v0c-.12,1.34-.18,2.73-.18,4.13a23.57,23.57,0,0,0,.9,6.44,22.87,22.87,0,0,0,2.54,5.69l0,.05h0l0,0a20.84,20.84,0,0,0,1.3,1.85l6.15,8.8v0s0,0,0,0a22.85,22.85,0,0,0,2.34,3.33l0,0,58.63,83.87.34.48a23,23,0,0,0,29.57,11.55l2.19-.9,35.63,51v.21s0,0,0,0,0,0,0,0a.07.07,0,0,0,0,0l0,0a.26.26,0,0,0,.16.07l.09,0,84.73-34.73,0,0a.34.34,0,0,0,.06-.06.25.25,0,0,0,0-.09s0,0,0,0v-21.32s0-.05,0-.08,0,0,0-.06L733.53,994.5a48.35,48.35,0,0,0,3.14-17.17,23.8,23.8,0,0,0-5.9-15.75L672.36,878a23,23,0,0,0-3.8-5.89c-.36-.42-.75-.83-1.21-1.28l-2.77-4,0,0a23.65,23.65,0,0,0-5.38-7.7,24.92,24.92,0,0,0-3.16-2.54l0,0a26.77,26.77,0,0,0-2.34-1.4h0a23.89,23.89,0,0,0-20.09-.89l-18,7.4-7.15-13.21h0a18.05,18.05,0,0,0-1.2-2.23,20.16,20.16,0,0,0-1.43-2c-4.8-5.92-12.55-8.71-21.18-7.76l-142.8-205a162.7,162.7,0,0,1,84.72-241.14,299.65,299.65,0,0,1,334,100.17l52.38,73.63a21.33,21.33,0,0,0,.59,15.7h0v0l0,0a17.59,17.59,0,0,0,2.16,3.44l0,0a0,0,0,0,0,0,0h0c.24.29.5.57.76.85l-24.5,9.41L828,618.07a5.67,5.67,0,0,0-3.42,3.66,5.73,5.73,0,0,0-.22,2.21v78.9a5.7,5.7,0,0,0,1,3.82l3.1,4.43v28.37a6,6,0,0,0,0,1.27,6.34,6.34,0,0,0,1.12,3l45.45,61.05,99.86,142a12.93,12.93,0,0,0,10.61,5.53,13.11,13.11,0,0,0,4.66-.86l70.55-27.08,132.77-51,62-23.81a5,5,0,0,0,3.16-4,.22.22,0,0,0,.06-.13V845Z"/><path class="cls-3" d="M958.21,550.61c-.25-.37-.52-.74-.81-1.09-4.14-5.13-10.75-7.37-17.78-6.73A32.11,32.11,0,0,0,913,564a21.13,21.13,0,0,0,.55,15.64,17.08,17.08,0,0,0,2.19,3.5,13.07,13.07,0,0,0,1,1.11"/><path class="cls-3" d="M1255.39,766.5a4.77,4.77,0,0,0,2.08-7.33L1111.69,567.84l-8.7-11.42a11.51,11.51,0,0,0-13.27-3.76l-51.85,19.93-132.77,51-72.42,27.78a6.21,6.21,0,0,0-2.86,9.36l11.91,17,133.4,186a12.68,12.68,0,0,0,15,4.58l70.56-27.07,132.76-51Z"/><path class="cls-3" d="M840.86,648.21l-4.78-6.66-10.49-15a5.47,5.47,0,0,1,2.52-8.25l63.81-24.48,117-44.92,45.69-17.56a10.13,10.13,0,0,1,11.7,3.31l7.66,10.06,8.25,10.83"/><path class="cls-3" d="M828.74,698l-.63.24a5.48,5.48,0,0,0-2.52,8.25l3.15,4.5"/><path class="cls-3" d="M1258.45,845a4.75,4.75,0,0,1-3.06,4.45l-62,23.81-132.77,51L990.1,951.29a12.71,12.71,0,0,1-15-4.58l-99.86-142-45.45-61.05a6.1,6.1,0,0,1-1.08-2.93,5.23,5.23,0,0,1,0-1.25"/><line class="cls-3" x1="1258.45" y1="761.74" x2="1258.45" y2="845.57"/><line class="cls-3" x1="828.73" y1="656.52" x2="828.73" y2="740.71"/><line class="cls-3" x1="980.82" y1="875.11" x2="980.82" y2="947.28"/><polygon class="cls-3" points="1177.22 821.33 1072.45 861.56 1072.45 850.5 1177.22 810.27 1177.22 821.33"/><polygon class="cls-3" points="1013.94 917.89 1239.59 831.25 1239.59 810.93 1013.94 897.58 1013.94 917.89"/><line class="cls-3" x1="824.63" y1="623.91" x2="824.63" y2="703.88"/><line class="cls-3" x1="948.27" y1="572.18" x2="948.26" y2="572.19"/><path class="cls-3" d="M556.5,856.21,413.18,650.41l-.18-.29A197,197,0,0,1,515.35,357.85,333.89,333.89,0,0,1,887.48,469.48l52.14,73.31"/><path class="cls-3" d="M584.39,836.72,441.5,631.55A162.94,162.94,0,0,1,526.35,390,299.9,299.9,0,0,1,860.58,490.3L913,564"/><line class="cls-3" x1="957.4" y1="549.52" x2="968.46" y2="564.43"/><line class="cls-3" x1="913.58" y1="579.67" x2="915.77" y2="583.18"/><ellipse class="cls-3" cx="1031.17" cy="692.35" rx="108.33" ry="75.46"/><line class="cls-3" x1="555.42" y1="879.73" x2="559.92" y2="887.38"/><path class="cls-3" d="M608.09,848.58h0a18.68,18.68,0,0,0-1.19-2.2,18,18,0,0,0-1.41-2c-5.55-6.85-14.91-9.21-24.42-7.11a36.41,36.41,0,0,0-15,7.34c-11.9,9.61-16.16,24.53-10.66,35.12a18,18,0,0,0,1.11,1.89v0"/><line class="cls-3" x1="606.9" y1="846.37" x2="615.35" y2="862.01"/><path class="cls-3" d="M646,1046.73l-2.39,1a22.77,22.77,0,0,1-31.39-21.06,50.31,50.31,0,0,1,31.22-46.54l60.27-24.7a23.67,23.67,0,0,1,32.68,21.92,48.22,48.22,0,0,1-3.17,17.21"/><path class="cls-3" d="M555.42,951.92l0-.06a22.15,22.15,0,0,1-2.32-3.32h0a22.55,22.55,0,0,1-3-11.31,50.3,50.3,0,0,1,31.23-46.54L641.55,866a23.6,23.6,0,0,1,25.6,5l0,0c.42.41.82.83,1.2,1.27a22.92,22.92,0,0,1,3.77,5.84h0"/><path class="cls-3" d="M664.36,867a23.37,23.37,0,0,0-5.36-7.68,24.39,24.39,0,0,0-3.12-2.52l0,0a26,26,0,0,0-2.33-1.39h0a23.5,23.5,0,0,0-19.88-.88l-60.28,24.71a50.28,50.28,0,0,0-31,42.39s0,0,0,0h0q-.18,2.05-.18,4.14a23.28,23.28,0,0,0,.89,6.37,22.34,22.34,0,0,0,2.51,5.63l0,0,0,0a18.59,18.59,0,0,0,1.3,1.85h0"/><polyline class="cls-3" points="766.53 1063.47 681.97 1098.14 681.81 1098.2"/><polyline class="cls-3" points="681.81 1098.2 681.81 1097.91 681.81 1077.18"/><polyline class="cls-3" points="766.53 1042.15 766.53 1042.45 766.53 1063.47"/><polyline class="cls-3" points="635.81 1032.12 635.81 1032.13 635.97 1032.35 641.97 1040.93 646.03 1046.73 681.81 1097.91 681.96 1098.14"/><polyline class="cls-3" points="545.52 937.77 545.54 937.8 546.87 939.7 558.08 955.73 614.04 1035.77 614.47 1036.4"/><polyline class="cls-3" points="659 859.34 664.35 867 664.35 867 672.81 879.09 730.14 961.1 730.59 961.74"/><polyline class="cls-3" points="720.54 976.36 726.28 984.57 733.25 994.53 766.54 1042.15 681.81 1077.18 657.29 1042.11 647.24 1027.73 641.55 1019.6 635.81 1011.4 635.81 1011.39"/><line class="cls-3" x1="635.97" y1="1032.35" x2="635.81" y2="1032.41"/><polyline class="cls-3" points="635.82 1032.41 635.82 1032.12 635.82 1011.39 720.54 976.66"/><line class="cls-3" x1="720.54" y1="976.66" x2="720.54" y2="976.36"/><polygon class="cls-3" points="734.87 1017.3 728.09 1007.61 714.59 1013.14 721.37 1022.83 734.87 1017.3"/><polygon class="cls-3" points="687.76 1036.62 680.98 1026.92 667.48 1032.46 674.26 1042.15 687.76 1036.62"/><polyline class="cls-3" points="681.81 1087.69 766.53 1053.82 759.85 1044.92"/></g></svg>