<svg xmlns="http://www.w3.org/2000/svg" viewBox="0 0 1640.44 1438.07"><defs><style>.cls-1{opacity:0.5;}.cls-2{fill:#040713;}.cls-2,.cls-3,.cls-4{stroke:#fff;}.cls-2,.cls-4{stroke-miterlimit:10;}.cls-3,.cls-4{fill:none;}.cls-3{stroke-linecap:round;stroke-linejoin:round;stroke-width:0.5px;}</style></defs><title>storage</title><g id="kontur-3" data-name="kontur"><path class="cls-2" d="M1425.06,591.15a.25.25,0,0,0-.06-.15l-65.38-72.41-2.12-2.36s0,0,0,0a.14.14,0,0,0-.08-.05h-.14c-.53.2-1.11.4-1.76.62l-3.89-4.32,0,0-.09-.05h-.14a42.45,42.45,0,0,1-11.14,1.43h-1.26c-11-.31-20.41-4.55-24.22-10.53a11.6,11.6,0,0,1-1.54-3.62c0-.14.08-.28.11-.43s.07-.28.12-.42.11-.3.16-.46.09-.27.15-.4.14-.31.21-.47.11-.25.17-.38l.26-.46c.07-.12.13-.25.2-.36l.31-.47c.07-.11.14-.23.23-.35s.22-.3.34-.45l.26-.34.39-.46c.1-.1.18-.2.28-.31l.44-.44c.1-.1.19-.21.29-.3l.48-.43.33-.3c.16-.14.34-.28.52-.42l.34-.27.58-.42.35-.25.6-.39.39-.25c.22-.14.44-.26.67-.39l.38-.22.84-.45.26-.13.94-.44.22-.1c.4-.18.8-.35,1.22-.51l0-.05s0,0,0,0l0,0a.09.09,0,0,0,0-.05.14.14,0,0,0,0-.07V483.5a.24.24,0,0,0,0-.14,0,0,0,0,1,0,0l-7.63-8.45v-2.68h0a.26.26,0,0,0-.05-.12,0,0,0,0,0,0,0l-61.11-67.68a.25.25,0,0,0-.28-.07L261,803.87a.29.29,0,0,0-.15.16.23.23,0,0,0,0,.21A9.3,9.3,0,0,1,262,806.5a8.7,8.7,0,0,1-4.83,10.6L215.53,835s0,0,0,0a.18.18,0,0,0-.08.09s0,0,0,0v0l0,0v9.28a.24.24,0,0,0,0,.14l25.79,34.72h0a.22.22,0,0,0,.18.1h.1l35.83-15a7.58,7.58,0,0,1,7.39.89,4.78,4.78,0,0,1-.64.32L249.23,880s0,0,0,0a.18.18,0,0,0-.08.09l0,0s0,0,0,0l0,0v9.28s0,0,0,.07,0,.05,0,.07l72.26,100.85h0a.21.21,0,0,0,.18.1h.1l35-14.48a8.87,8.87,0,0,1,8.73,1.12l-.43.22-34.05,14.65s0,0,0,0a.18.18,0,0,0-.08.09l0,0v0s0,0,0,0v9.27s0,0,0,.07,0,0,0,.07l22.46,31.91,0,0,0,0a.2.2,0,0,0,.14.06h0a.16.16,0,0,0,.1,0l38.32-17.23a18.89,18.89,0,0,1,21.65,4.41h0l0,0a.33.33,0,0,0,.12.05h0l0,0h.06l1009.23-419.5,1.83-.77a.24.24,0,0,0,.15-.23v-9.27Z"/><path class="cls-3" d="M1351.39,512.62h0a42.86,42.86,0,0,1-11.2,1.44c-14,0-25.49-6.28-27.28-14.42,1.07-4.89,5.67-9.12,12.2-11.7V483.5l-7.41-8.21-.28-.31v-2.77h0l-61.11-67.68L261.07,804.1a9.25,9.25,0,0,1,1.14,2.32,8.73,8.73,0,0,1,.31,4.08,8.87,8.87,0,0,1-5.27,6.82l-41.63,17.93,1.56,2.1L241.41,870l35.83-15a7.86,7.86,0,0,1,9.16,2.34,5.52,5.52,0,0,1,1.22,3.46,5.41,5.41,0,0,1-.18,1.39,5.46,5.46,0,0,1-3.26,3.75l-34.86,14.25,1.54,2.15L321.58,981l35-14.48a9.16,9.16,0,0,1,10.53,2.59,5.45,5.45,0,0,1-2,8.48L331,992.27l1.5,2.13,21,29.78L391.81,1007a19.17,19.17,0,0,1,21.94,4.47L1423,591.92l1.83-.76-65.38-72.41-2.12-2.36"/><path class="cls-3" d="M1325.1,483.5v4.44c-6.53,2.58-11.13,6.81-12.2,11.7a9.75,9.75,0,0,1-.25-2.22C1312.65,491.59,1317.6,486.47,1325.1,483.5Z"/><path class="cls-3" d="M1312.9,499.64c1.07-4.89,5.67-9.12,12.2-11.7"/><path class="cls-3" d="M1301.14,495.15v0c.74-8.16,7-15.31,16.27-19.71l.28-.13"/><path class="cls-3" d="M1351.39,512.62h0a42.86,42.86,0,0,1-11.2,1.44c-14,0-25.49-6.28-27.28-14.42,1.07-4.89,5.67-9.12,12.2-11.7V483.5l-7.41-8.21-.28-.31v-2.77c-.59.27-1.16.56-1.72.87-8.9,4.75-14.62,12.15-14.62,20.46,0,.53,0,1.06.07,1.59v0c1.22,13.6,17.77,24.38,38,24.38a53.25,53.25,0,0,0,16.23-2.47c.65-.21,1.29-.43,1.92-.67"/><polygon class="cls-3" points="882.53 786.43 740.83 615.52 962.78 527.35 1105.08 694.84 882.53 786.43"/><polyline class="cls-3" points="740.82 629.6 882.53 800.5 1105.08 708.91"/><line class="cls-3" x1="740.83" y1="615.52" x2="740.83" y2="629.59"/><line class="cls-3" x1="882.53" y1="786.43" x2="882.53" y2="800.5"/><line class="cls-3" x1="1105.08" y1="694.84" x2="1105.08" y2="708.91"/><polygon class="cls-3" points="1134.91 681.96 995.86 513.79 1215.38 426.59 1354.36 589.61 1134.91 681.96"/><polyline class="cls-3" points="995.86 527.71 1134.91 695.88 1354.36 603.53"/><line class="cls-3" x1="995.86" y1="513.79" x2="995.86" y2="527.7"/><line class="cls-3" x1="1134.91" y1="681.96" x2="1134.91" y2="695.88"/><line class="cls-3" x1="1354.36" y1="589.61" x2="1354.36" y2="603.52"/><polyline class="cls-3" points="1317.41 475.43 1317.41 474.99 1317.41 472.21 1317.41 472.2"/><polyline class="cls-3" points="1355.39 517.07 1351.39 512.63 1351.38 512.63"/><line class="cls-3" x1="1325.1" y1="487.94" x2="1325.1" y2="483.5"/><line class="cls-3" x1="413.75" y1="1011.42" x2="413.75" y2="1020.7"/><line class="cls-3" x1="353.49" y1="1024.18" x2="353.49" y2="1033.46"/><line class="cls-3" x1="331.03" y1="992.27" x2="331.03" y2="1001.55"/><line class="cls-3" x1="321.58" y1="981.03" x2="321.58" y2="990.31"/><line class="cls-3" x1="249.32" y1="880.18" x2="249.32" y2="889.46"/><line class="cls-3" x1="241.41" y1="869.97" x2="241.41" y2="879.25"/><path class="cls-3" d="M365.88,977.2a9.15,9.15,0,0,0-9.29-1.38l-35,14.48-70.72-98.7-1.54-2.15"/><path class="cls-3" d="M1424.81,591.16v9.27l-1.83.76L413.75,1020.69a19.17,19.17,0,0,0-21.94-4.47l-38.32,17.23-21-29.78-1.5-2.13"/><path class="cls-3" d="M285.18,865.39a7.84,7.84,0,0,0-7.94-1.13l-35.83,15-24.23-32.62-1.56-2.1v-9.27"/><line class="cls-3" x1="353.49" y1="1019.69" x2="377.73" y2="1008.36"/><line class="cls-3" x1="350.36" y1="1015.46" x2="374.6" y2="1004.13"/><line class="cls-3" x1="347.23" y1="1011.23" x2="371.47" y2="999.9"/><line class="cls-3" x1="344.1" y1="1007" x2="368.34" y2="995.67"/><line class="cls-3" x1="340.97" y1="1002.77" x2="365.21" y2="991.44"/><line class="cls-3" x1="337.84" y1="998.54" x2="362.08" y2="987.21"/><line class="cls-3" x1="334.71" y1="994.31" x2="358.95" y2="982.98"/><line class="cls-3" x1="321.58" y1="976.71" x2="346.54" y2="966.21"/><line class="cls-3" x1="318.75" y1="972.89" x2="343.71" y2="962.38"/><line class="cls-3" x1="315.92" y1="969.06" x2="340.88" y2="958.56"/><line class="cls-3" x1="313.09" y1="965.23" x2="338.05" y2="954.73"/><line class="cls-3" x1="310.26" y1="961.41" x2="335.21" y2="950.9"/><line class="cls-3" x1="307.43" y1="957.58" x2="332.38" y2="947.08"/><line class="cls-3" x1="304.59" y1="953.75" x2="329.55" y2="943.25"/><line class="cls-3" x1="301.76" y1="949.93" x2="326.72" y2="939.42"/><line class="cls-3" x1="298.93" y1="946.1" x2="323.89" y2="935.6"/><line class="cls-3" x1="296.1" y1="942.27" x2="321.06" y2="931.77"/><line class="cls-3" x1="293.27" y1="938.45" x2="318.22" y2="927.94"/><line class="cls-3" x1="290.44" y1="934.62" x2="315.39" y2="924.12"/><line class="cls-3" x1="287.6" y1="930.79" x2="312.56" y2="920.29"/><line class="cls-3" x1="284.77" y1="926.97" x2="309.73" y2="916.46"/><line class="cls-3" x1="281.94" y1="923.14" x2="306.9" y2="912.64"/><line class="cls-3" x1="279.11" y1="919.31" x2="304.07" y2="908.81"/><line class="cls-3" x1="276.28" y1="915.49" x2="301.23" y2="904.98"/><line class="cls-3" x1="273.44" y1="911.66" x2="298.4" y2="901.16"/><line class="cls-3" x1="270.61" y1="907.83" x2="295.57" y2="897.33"/><line class="cls-3" x1="267.78" y1="904.01" x2="292.74" y2="893.5"/><line class="cls-3" x1="264.95" y1="900.18" x2="289.91" y2="889.68"/><line class="cls-3" x1="262.12" y1="896.36" x2="287.08" y2="885.85"/><line class="cls-3" x1="259.29" y1="892.53" x2="284.24" y2="882.02"/><line class="cls-3" x1="256.45" y1="888.7" x2="281.41" y2="878.2"/><line class="cls-3" x1="253.62" y1="884.88" x2="278.58" y2="874.37"/><line class="cls-3" x1="250.79" y1="881.05" x2="275.75" y2="870.54"/><line class="cls-3" x1="239.99" y1="866.46" x2="264.95" y2="855.95"/><line class="cls-3" x1="236.94" y1="862.33" x2="261.9" y2="851.83"/><line class="cls-3" x1="233.89" y1="858.21" x2="258.85" y2="847.7"/><line class="cls-3" x1="230.84" y1="854.08" x2="255.79" y2="843.58"/><line class="cls-3" x1="227.78" y1="849.96" x2="252.74" y2="839.45"/><line class="cls-3" x1="224.73" y1="845.83" x2="249.69" y2="835.33"/><line class="cls-3" x1="221.68" y1="841.71" x2="246.64" y2="831.21"/><line class="cls-3" x1="218.63" y1="837.58" x2="243.58" y2="827.08"/><path class="cls-4" d="M1425.06,591.15a.25.25,0,0,0-.06-.15l-65.38-72.41-2.12-2.36s0,0,0,0a.14.14,0,0,0-.08-.05h-.14c-.53.2-1.11.4-1.76.62l-3.89-4.32,0,0-.09-.05h-.14a42.45,42.45,0,0,1-11.14,1.43h-1.26c-11-.31-20.41-4.55-24.22-10.53a11.6,11.6,0,0,1-1.54-3.62c0-.14.08-.28.11-.43s.07-.28.12-.42.11-.3.16-.46.09-.27.15-.4.14-.31.21-.47.11-.25.17-.38l.26-.46c.07-.12.13-.25.2-.36l.31-.47c.07-.11.14-.23.23-.35s.22-.3.34-.45l.26-.34.39-.46c.1-.1.18-.2.28-.31l.44-.44c.1-.1.19-.21.29-.3l.48-.43.33-.3c.16-.14.34-.28.52-.42l.34-.27.58-.42.35-.25.6-.39.39-.25c.22-.14.44-.26.67-.39l.38-.22.84-.45.26-.13.94-.44.22-.1c.4-.18.8-.35,1.22-.51l0-.05s0,0,0,0l0,0a.09.09,0,0,0,0-.05.14.14,0,0,0,0-.07V483.5a.24.24,0,0,0,0-.14,0,0,0,0,1,0,0l-7.63-8.45v-2.68h0a.26.26,0,0,0-.05-.12,0,0,0,0,0,0,0l-61.11-67.68a.25.25,0,0,0-.28-.07L261,803.87a.29.29,0,0,0-.15.16.23.23,0,0,0,0,.21A9.3,9.3,0,0,1,262,806.5a8.7,8.7,0,0,1-4.83,10.6L215.53,835s0,0,0,0a.18.18,0,0,0-.08.09s0,0,0,0v0l0,0v9.28a.24.24,0,0,0,0,.14l25.79,34.72h0a.22.22,0,0,0,.18.1h.1l35.83-15a7.58,7.58,0,0,1,7.39.89,4.78,4.78,0,0,1-.64.32L249.23,880s0,0,0,0a.18.18,0,0,0-.08.09l0,0s0,0,0,0l0,0v9.28s0,0,0,.07,0,.05,0,.07l72.26,100.85h0a.21.21,0,0,0,.18.1h.1l35-14.48a8.87,8.87,0,0,1,8.73,1.12l-.43.22-34.05,14.65s0,0,0,0a.18.18,0,0,0-.08.09l0,0v0s0,0,0,0v9.27s0,0,0,.07,0,0,0,.07l22.46,31.91,0,0,0,0a.2.2,0,0,0,.14.06h0a.16.16,0,0,0,.1,0l38.32-17.23a18.89,18.89,0,0,1,21.65,4.41h0l0,0a.33.33,0,0,0,.12.05h0l0,0h.06l1009.23-419.5,1.83-.77a.24.24,0,0,0,.15-.23v-9.27Z"/></g></svg>