<svg xmlns="http://www.w3.org/2000/svg" viewBox="0 0 1640.44 1438.07"><defs><style>.cls-1{opacity:0.5;}.cls-2,.cls-5{fill:none;}.cls-2,.cls-3,.cls-4,.cls-5{stroke:#fff;}.cls-2,.cls-4,.cls-5{stroke-linecap:round;stroke-linejoin:round;}.cls-2,.cls-4{stroke-width:0.5px;}.cls-3,.cls-4{fill:#040713;}.cls-3{stroke-miterlimit:10;}</style></defs><title>topcase</title><g id="argon_caly" data-name="argon caly"><line class="cls-2" x1="1430.74" y1="898.36" x2="1430.74" y2="899.38"/><path class="cls-3" d="M1604.79,687.41c0-.4,0-.8,0-1.19a54.1,54.1,0,0,0-13.43-33.38L1492,539.37l-106.39,42.38a87.44,87.44,0,0,1-99.07-24.63L1073.87,306.88a44.08,44.08,0,0,1-9.85-20.82.54.54,0,0,1,0-.18s0-.07,0-.11a43.73,43.73,0,0,1,27.6-33.53l101.86-38.33V199.62L1193,199l-94.2-108L131.38,452.27c-57.8,24.59-68.73,36.51-68.83,36.63a.61.61,0,0,1-.16.12,47.36,47.36,0,0,0-16.48,21.16l0,0a.11.11,0,0,1,0,.06c0,.12-.1.26-.14.39l.07,0a.5.5,0,0,1,.1.7c-.3.4-.57.83-.86,1.24,0,.13-.09.25-.13.39a.49.49,0,0,1-.36.31c-.55.83-1.09,1.67-1.59,2.53a46.68,46.68,0,0,0-3.16,6.52l0,0a.11.11,0,0,1,0,.06c-3.78,9.9-3.09,23.38-3.08,23.51V727.79a45.36,45.36,0,0,0,7.76,25.07L423.89,1318a67.58,67.58,0,0,0,74.54,27.3l1.62-.49,1.3-.42c.51-.17,1-.35,1.54-.54h0l.15,0c.5-.18,1-.37,1.48-.57.64-.24,1.29-.51,1.93-.78l98.4-42,17.69-37.89a.49.49,0,0,1,.26-.25l966.11-411.83h0a26,26,0,0,0,15.79-22.54V691.79c0-.64.06-1.27.08-1.9C1604.81,689.06,1604.81,688.23,1604.79,687.41ZM777.22,760.85,504.53,872.62a62.27,62.27,0,0,1-74.56-22L259.78,607.23A41.89,41.89,0,0,1,252.91,591c0-11.56,13.19-21.89,23.63-25.75L547.41,461.78a62.26,62.26,0,0,1,71.14,20.66l174.8,229.41a45.8,45.8,0,0,1,9.22,23.44A45.6,45.6,0,0,1,777.22,760.85Zm286-587.59a3.37,3.37,0,0,1-.1-.34,6,6,0,0,1-.15-.61,2.57,2.57,0,0,1-.08-.47,4.11,4.11,0,0,1-.08-.6,7.38,7.38,0,0,1,0-.82c0-7.21,8.47-13.06,18.91-13.06s18.91,5.85,18.91,13.06a7.38,7.38,0,0,1,0,.82,3.09,3.09,0,0,1-.08.6,2.57,2.57,0,0,1-.08.47,6,6,0,0,1-.15.61,3.37,3.37,0,0,1-.1.34,3.12,3.12,0,0,1-.15.43,9.48,9.48,0,0,1-.55,1.23c-.09.16-.18.33-.29.5a4.76,4.76,0,0,1-.32.51c-.13.19-.26.38-.4.56h0c-.2.26-.41.51-.62.76s-.39.42-.6.63l-.26.25c-.21.2-.43.4-.67.59s-.47.39-.72.58l-.58.4c-.19.14-.38.26-.58.38a12,12,0,0,1-1.41.8,5.43,5.43,0,0,1-.59.3,19.58,19.58,0,0,1-2.62,1c-.24.09-.47.16-.72.23-.72.21-1.45.39-2.2.53-.33.07-.66.13-1,.17a2.2,2.2,0,0,1-.37.06c-.35.05-.72.1-1.08.13s-.65.06-1,.08l-.73,0-1,0-1,0-.74,0c-.33,0-.65,0-1-.08s-.73-.08-1.08-.13a2.38,2.38,0,0,1-.37-.06c-.32,0-.64-.1-1-.16-.75-.15-1.5-.33-2.23-.54-.25-.07-.49-.14-.73-.23l-.28-.09-.64-.23c-.27-.1-.54-.2-.79-.31l-.52-.23a2.64,2.64,0,0,1-.38-.18,3.73,3.73,0,0,1-.6-.3,13.87,13.87,0,0,1-1.41-.8c-.2-.12-.39-.24-.58-.38s-.38-.26-.57-.4-.5-.38-.73-.58-.46-.39-.67-.59l-.26-.25c-.21-.21-.4-.41-.59-.63s-.43-.5-.63-.76h0l-.4-.56c-.12-.17-.22-.34-.32-.51s-.2-.34-.29-.5a11.06,11.06,0,0,1-.55-1.23A3.12,3.12,0,0,1,1063.17,173.26ZM1502,642.32c0,.16-.06.33-.09.49a10.35,10.35,0,0,1-1.29,3.06l-.18.3a2.75,2.75,0,0,1-.25.38,2.64,2.64,0,0,1-.21.29,2.92,2.92,0,0,1-.32.42s-.06.08-.08.12c-.15.19-.31.37-.48.55s-.33.36-.51.53a12.76,12.76,0,0,1-1.26,1.15,6.67,6.67,0,0,1-.67.52c-.23.18-.46.34-.7.5h0c-.23.16-.48.32-.73.47l-.77.45c-.25.15-.52.29-.79.42-.49.25-1,.48-1.48.69h0a3,3,0,0,1-.45.18,6.44,6.44,0,0,1-.61.24c-.31.12-.61.22-.92.32-.54.18-1.12.35-1.7.49l-.42.11c-.79.19-1.6.35-2.42.47-.48.07-.95.13-1.43.18l-.86.08-.7,0c-.55,0-1.11.05-1.67.05-.4,0-.8,0-1.19,0l-.46,0q-.48,0-.93-.06c-.22,0-.43,0-.65-.06l-1-.12c-.43-.06-.85-.13-1.27-.21s-1-.2-1.52-.32c-.25,0-.5-.12-.73-.19l-.52-.14c-.3-.08-.58-.17-.87-.27s-.61-.2-.92-.32a17.85,17.85,0,0,1-1.75-.72c-.27-.12-.56-.25-.83-.4s-.61-.32-.93-.5a4.49,4.49,0,0,1-.42-.24,19.73,19.73,0,0,1-2.33-1.63l-.45-.39a.12.12,0,0,1-.06-.06,6.77,6.77,0,0,1-.56-.51c-.23-.23-.48-.48-.69-.72a12,12,0,0,1-1-1.22c0-.06-.07-.11-.1-.16h0c-.11-.16-.21-.32-.31-.48s-.26-.43-.38-.65-.23-.44-.34-.67-.2-.45-.28-.68-.17-.47-.24-.7-.12-.41-.16-.62a.93.93,0,0,1,0-.13,4.93,4.93,0,0,1-.11-.67,8.93,8.93,0,0,1-.13-1.47,9.94,9.94,0,0,1,.25-2.19c.07-.24.13-.47.19-.71a6.28,6.28,0,0,1,.24-.69c.08-.23.18-.46.28-.68a14.28,14.28,0,0,1,1.14-2,10.17,10.17,0,0,1,1-1.22,11.23,11.23,0,0,1,.83-.86l.57-.52c.08-.07.14-.13.21-.18q.35-.3.72-.57a1.62,1.62,0,0,1,.28-.2,3.72,3.72,0,0,1,.45-.33,19.83,19.83,0,0,1,2.38-1.4c.27-.15.56-.28.83-.4.57-.26,1.15-.51,1.75-.72.31-.12.6-.22.92-.32s.57-.19.87-.27l.52-.14c.23-.07.48-.14.73-.19.5-.12,1-.23,1.52-.32s.84-.15,1.27-.21l1-.12c.22,0,.43,0,.65-.06s.61-.05.93-.06l.46,0c.39,0,.79,0,1.19,0,11.72,0,21.22,6.43,21.22,14.37A9.41,9.41,0,0,1,1502,642.32Z"/><line class="cls-2" x1="1594.25" y1="664.36" x2="604.74" y2="1080.55"/><path class="cls-2" d="M604.74,1080.54h0l-98.58,42.1A68,68,0,0,1,423,1098L43.54,562.69a45.82,45.82,0,0,1-5.71-39.5c.3-1,.63-1.9,1-2.82,0,0,0,0,0,0A47,47,0,0,1,45,509.21"/><line class="cls-2" x1="604.74" y1="1059.9" x2="1585.42" y2="651.47"/><path class="cls-2" d="M1193.5,198.8l-95.08-109L130.73,451.16h0c-58.75,25-69,36.78-69,36.78l0,0A47.46,47.46,0,0,0,45,509.36s0,0,0,.05c-.36.92-.69,1.87-1,2.82a45.82,45.82,0,0,0,5.71,39.5L423,1077.38A68,68,0,0,0,506.16,1102l98.58-42.1h0"/><path class="cls-2" d="M604.74,1300.44h0l-98.58,42.1A68,68,0,0,1,423,1317.93L43.54,752.78a45.83,45.83,0,0,1-7.85-25.39v-.23"/><path class="cls-2" d="M1500.17,646.55a2.64,2.64,0,0,1-.21.29,3.9,3.9,0,0,1-.32.42s-.06.08-.08.12c-.16.19-.31.37-.48.55s-.33.35-.51.53a12.76,12.76,0,0,1-1.26,1.15c-.21.18-.44.35-.67.52s-.46.34-.7.5h0l-.73.47-.77.45c-.25.15-.52.29-.79.42-.48.24-1,.47-1.48.69h0a3,3,0,0,1-.45.18,6.44,6.44,0,0,1-.61.24c-.31.12-.61.22-.92.32-.54.18-1.12.35-1.7.49l-.42.11c-.79.19-1.6.35-2.42.47-.48.07-.95.13-1.43.18l-.86.08-.7,0c-.55,0-1.11.05-1.67.05-.4,0-.8,0-1.19,0l-.46,0q-.48,0-.93-.06c-.22,0-.43,0-.65-.06l-1-.12c-.43-.06-.85-.13-1.27-.21s-1-.2-1.52-.32c-.25,0-.5-.12-.73-.19l-.52-.14-.87-.27c-.32-.1-.61-.2-.92-.32a17.85,17.85,0,0,1-1.75-.72c-.27-.12-.56-.26-.83-.4s-.61-.32-.93-.5l-.42-.24a19.73,19.73,0,0,1-2.33-1.63l-.45-.39a.12.12,0,0,1-.06-.06,6.77,6.77,0,0,1-.56-.51c-.23-.23-.48-.48-.69-.72a13.57,13.57,0,0,1-1-1.22c0-.06-.07-.11-.1-.16,3.38-4.91,10.71-8.3,19.22-8.3S1496.81,641.64,1500.17,646.55Z"/><path class="cls-2" d="M1098.37,176.5c-.2.26-.41.51-.62.76s-.39.42-.6.63l-.26.25c-.21.2-.43.4-.67.59s-.47.39-.72.58l-.58.4c-.19.13-.38.26-.58.38a12,12,0,0,1-1.41.8,5.43,5.43,0,0,1-.59.3,19.58,19.58,0,0,1-2.62,1c-.24.09-.47.16-.72.23-.72.21-1.45.39-2.2.53-.33.07-.66.13-1,.17a2.2,2.2,0,0,1-.37.06c-.35.05-.72.1-1.08.13s-.65.06-1,.08l-.73,0-1,0-1,0-.74,0c-.33,0-.65,0-1-.08s-.73-.08-1.08-.13a2.38,2.38,0,0,1-.37-.06c-.32,0-.64-.1-1-.16-.75-.15-1.5-.33-2.23-.54-.25-.07-.49-.14-.73-.23l-.28-.09-.64-.23c-.27-.1-.54-.2-.79-.31l-.52-.23a2.64,2.64,0,0,1-.38-.18,5.59,5.59,0,0,1-.6-.3,13.87,13.87,0,0,1-1.41-.8c-.2-.12-.39-.25-.58-.38s-.38-.26-.57-.4-.5-.38-.73-.58-.46-.39-.67-.59l-.26-.25c-.21-.21-.4-.41-.59-.63s-.43-.5-.63-.76c3.15-4.16,9.47-7,16.74-7S1095.22,172.34,1098.37,176.5Z"/><path class="cls-2" d="M1064,285.62a43.64,43.64,0,0,1,27.63-48.49L1193.5,198.8v15.11l-101.85,38.33A43.37,43.37,0,0,0,1064,285.62a43.34,43.34,0,0,0,9.74,20.59L1286.4,556.45a87,87,0,0,0,98.5,24.49l106.72-42.52,99.59,113.74a54.94,54.94,0,0,1,13.51,39.28V827.59a26.62,26.62,0,0,1-16.12,23h0L622.5,1262.4l-17.76,38"/><line class="cls-2" x1="35.69" y1="727.38" x2="35.69" y2="544.12"/><path class="cls-2" d="M802.75,734.85l-.18.44a45.8,45.8,0,0,0-9.22-23.44L618.55,482.44a62.26,62.26,0,0,0-71.14-20.66L276.54,565.23c-10.44,3.86-23.63,14.19-23.63,25.75a40.39,40.39,0,0,1-.71-8.75,42,42,0,0,1,27.44-38.48L550.5,440.3A62.27,62.27,0,0,1,621.64,461l174.79,229.4A45.86,45.86,0,0,1,802.75,734.85Z"/><line class="cls-2" x1="1594.25" y1="664.36" x2="604.74" y2="1080.55"/><path class="cls-2" d="M604.74,1080.54h0l-98.58,42.1A68,68,0,0,1,423,1098L43.54,562.69a45.82,45.82,0,0,1-5.71-39.5c.3-1,.63-1.9,1-2.82,0,0,0,0,0,0A47,47,0,0,1,45,509.21"/><path class="cls-2" d="M604.74,1300.44h0l-98.58,42.1A68,68,0,0,1,423,1317.93L43.54,752.78a45.83,45.83,0,0,1-7.85-25.39v-.23"/><path class="cls-4" d="M1502.16,640.48a9.41,9.41,0,0,1-.18,1.84c0,.16-.06.33-.09.49a10.35,10.35,0,0,1-1.29,3.06l-.18.3a2.75,2.75,0,0,1-.25.38c-3.36-4.91-10.71-8.3-19.23-8.3s-15.84,3.39-19.22,8.3h0c-.11-.16-.21-.32-.31-.48s-.26-.43-.38-.65-.23-.45-.34-.67-.2-.45-.28-.68-.17-.46-.24-.7a6.25,6.25,0,0,1-.16-.62.93.93,0,0,1,0-.13,5.5,5.5,0,0,1-.11-.67,9,9,0,0,1-.12-1.47,10,10,0,0,1,.24-2.19c.07-.24.13-.47.19-.71s.15-.46.24-.69.18-.46.28-.68a14.28,14.28,0,0,1,1.14-2,16.1,16.1,0,0,1,1.82-2.08l.57-.52c.08-.07.14-.13.21-.18q.35-.3.72-.57a1.62,1.62,0,0,1,.28-.2l.45-.33a19.83,19.83,0,0,1,2.38-1.4c.27-.14.56-.28.83-.4.57-.26,1.15-.51,1.75-.72.31-.12.6-.22.92-.32l.87-.27.52-.14c.23-.07.48-.14.73-.19.5-.12,1-.23,1.52-.32s.84-.15,1.27-.21l1-.12c.22,0,.43,0,.65-.06s.61-.05.93-.06l.46,0c.39,0,.79,0,1.19,0C1492.66,626.11,1502.16,632.54,1502.16,640.48Z"/><path class="cls-2" d="M1500.17,646.55a2.64,2.64,0,0,1-.21.29,3.9,3.9,0,0,1-.32.42s-.06.08-.08.12c-.16.19-.31.37-.48.55s-.33.35-.51.53a12.76,12.76,0,0,1-1.26,1.15c-.21.18-.44.35-.67.52s-.46.34-.7.5h0l-.73.47-.77.45c-.25.15-.52.29-.79.42-.48.24-1,.47-1.48.69h0a3,3,0,0,1-.45.18,6.44,6.44,0,0,1-.61.24c-.31.12-.61.22-.92.32-.54.18-1.12.35-1.7.49l-.42.11c-.79.19-1.6.35-2.42.47-.48.07-.95.13-1.43.18l-.86.08-.7,0c-.55,0-1.11.05-1.67.05-.4,0-.8,0-1.19,0l-.46,0q-.48,0-.93-.06c-.22,0-.43,0-.65-.06l-1-.12c-.43-.06-.85-.13-1.27-.21s-1-.2-1.52-.32c-.25,0-.5-.12-.73-.19l-.52-.14-.87-.27c-.32-.1-.61-.2-.92-.32a17.85,17.85,0,0,1-1.75-.72c-.27-.12-.56-.26-.83-.4s-.61-.32-.93-.5l-.42-.24a19.73,19.73,0,0,1-2.33-1.63l-.45-.39a.12.12,0,0,1-.06-.06,6.77,6.77,0,0,1-.56-.51c-.23-.23-.48-.48-.69-.72a13.57,13.57,0,0,1-1-1.22c0-.06-.07-.11-.1-.16,3.38-4.91,10.71-8.3,19.22-8.3S1496.81,641.64,1500.17,646.55Z"/><path class="cls-4" d="M1100.54,170.42a7.38,7.38,0,0,1,0,.82,3.09,3.09,0,0,1-.08.6,2.57,2.57,0,0,1-.08.47,6,6,0,0,1-.15.61,3.37,3.37,0,0,1-.1.34,3.12,3.12,0,0,1-.15.43,9.48,9.48,0,0,1-.55,1.23c-.09.16-.18.33-.29.5a4.76,4.76,0,0,1-.32.51c-.13.19-.26.38-.4.56h0c-3.15-4.16-9.46-7-16.74-7s-13.59,2.84-16.74,7h0l-.4-.56c-.12-.17-.22-.34-.32-.51s-.2-.34-.29-.5a11.06,11.06,0,0,1-.55-1.23,3.12,3.12,0,0,1-.15-.43,3.37,3.37,0,0,1-.1-.34,6,6,0,0,1-.15-.61,2.57,2.57,0,0,1-.08-.47,4.11,4.11,0,0,1-.08-.6,7.38,7.38,0,0,1,0-.82c0-7.21,8.47-13.06,18.91-13.06S1100.54,163.21,1100.54,170.42Z"/><path class="cls-2" d="M1098.37,176.5c-.2.26-.41.51-.62.76s-.39.42-.6.63l-.26.25c-.21.2-.43.4-.67.59s-.47.39-.72.58l-.58.4c-.19.13-.38.26-.58.38a12,12,0,0,1-1.41.8,5.43,5.43,0,0,1-.59.3,19.58,19.58,0,0,1-2.62,1c-.24.09-.47.16-.72.23-.72.21-1.45.39-2.2.53-.33.07-.66.13-1,.17a2.2,2.2,0,0,1-.37.06c-.35.05-.72.1-1.08.13s-.65.06-1,.08l-.73,0-1,0-1,0-.74,0c-.33,0-.65,0-1-.08s-.73-.08-1.08-.13a2.38,2.38,0,0,1-.37-.06c-.32,0-.64-.1-1-.16-.75-.15-1.5-.33-2.23-.54-.25-.07-.49-.14-.73-.23l-.28-.09-.64-.23c-.27-.1-.54-.2-.79-.31l-.52-.23a2.64,2.64,0,0,1-.38-.18,5.59,5.59,0,0,1-.6-.3,13.87,13.87,0,0,1-1.41-.8c-.2-.12-.39-.25-.58-.38s-.38-.26-.57-.4-.5-.38-.73-.58-.46-.39-.67-.59l-.26-.25c-.21-.21-.4-.41-.59-.63s-.43-.5-.63-.76c3.15-4.16,9.47-7,16.74-7S1095.22,172.34,1098.37,176.5Z"/><path class="cls-2" d="M1064,285.62a43.64,43.64,0,0,1,27.63-48.49L1193.5,198.8v15.11l-101.85,38.33A43.37,43.37,0,0,0,1064,285.62a43.34,43.34,0,0,0,9.74,20.59L1286.4,556.45a87,87,0,0,0,98.5,24.49l106.72-42.52,99.59,113.74a54.94,54.94,0,0,1,13.51,39.28V827.59a26.62,26.62,0,0,1-16.12,23h0L622.5,1262.4l-17.76,38"/><line class="cls-2" x1="35.69" y1="727.38" x2="35.69" y2="544.12"/><path class="cls-2" d="M802.75,734.85l-.18.44a45.8,45.8,0,0,0-9.22-23.44L618.55,482.44a62.26,62.26,0,0,0-71.14-20.66L276.54,565.23c-10.44,3.86-23.63,14.19-23.63,25.75a40.39,40.39,0,0,1-.71-8.75,42,42,0,0,1,27.44-38.48L550.5,440.3A62.27,62.27,0,0,1,621.64,461l174.79,229.4A45.86,45.86,0,0,1,802.75,734.85Z"/><path class="cls-2" d="M252.2,582.23c3.4-12.17,13.9-19.67,24.34-23.53L547.41,455.25a62.26,62.26,0,0,1,71.14,20.66l174.8,229.41a45.6,45.6,0,0,1,9.39,29.52s0,0,0,0c0,.5,0,1-.08,1.5v0"/><path class="cls-2" d="M802.66,736.37v0c0-.35,0-.71-.09-1.06a45.8,45.8,0,0,0-9.22-23.44L618.55,482.44a62.26,62.26,0,0,0-71.14-20.66L276.54,565.23c-10.44,3.86-23.63,14.19-23.63,25.75"/><path class="cls-5" d="M35.69,728.91V545.65s-.75-13.59,3.13-23.75c0,0,0,0,0,0,1.55-4,3.43-8.59,6-12"/><path class="cls-5" d="M1193.44,199.08l-95.08-109L130.67,451.44h0c-58.75,25-69.06,36.78-69.06,36.78l0,0a47.46,47.46,0,0,0-16.7,21.41"/><path class="cls-5" d="M604.74,1300.45h0l-98.58,42.1A68,68,0,0,1,423,1317.94L43.54,752.79a45.83,45.83,0,0,1-7.85-25.39v-.23"/><path class="cls-5" d="M1193.5,198.8v15.11l-101.85,38.33A43.37,43.37,0,0,0,1064,285.62a43.34,43.34,0,0,0,9.74,20.59L1286.4,556.45a87,87,0,0,0,98.5,24.49l106.72-42.52,99.59,113.74a54.94,54.94,0,0,1,13.51,39.28V827.59a26.62,26.62,0,0,1-16.12,23h0L622.5,1262.4l-17.76,38"/></g></svg>