<svg xmlns="http://www.w3.org/2000/svg" viewBox="0 0 1640.44 1438.07"><defs><style>.cls-1{opacity:0.5;}.cls-2,.cls-7{fill:#040713;}.cls-3,.cls-4,.cls-5,.cls-6,.cls-8,.cls-9{fill:none;}.cls-3,.cls-4,.cls-5,.cls-6,.cls-7,.cls-8,.cls-9{stroke:#fff;}.cls-3,.cls-4,.cls-9{stroke-linecap:round;stroke-linejoin:round;}.cls-3,.cls-8{stroke-width:0.5px;}.cls-4,.cls-5{stroke-width:0.75px;}.cls-5,.cls-6,.cls-7,.cls-8{stroke-miterlimit:10;}</style></defs><title>argon neo</title><g id="argon_caly" data-name="argon caly"><path class="cls-2" d="M36.58,684.11A45.73,45.73,0,0,0,7.82,724.25s0,0,0,0,0,.14,0,.21a45.49,45.49,0,0,0,.45,9c1.49,17.38,6.08,40.48,6.13,40.76l0,.05s0,0,0,0l391.36,582.33q1.38,2.05,2.9,4h0l.08.09a60.46,60.46,0,0,0,4.35,4.94l43.49,49.35A66,66,0,0,0,533,1431.92l121.18-53.33a.3.3,0,0,0,.13-.12l16.92-35.87,728.52-318.06,29.93,6.57a29.23,29.23,0,0,0,18.19-1.81L1562.09,979a39,39,0,0,0,18.44-16.94l39.4-72.2a163.35,163.35,0,0,0,15.81-41.7,88.34,88.34,0,0,0,4.2-26.89V804.24a.28.28,0,0,0-.06-.15,41.73,41.73,0,0,0-11.3-27.78L1488,625.05h0c-3.29-3.48-4.88-10.93-4.89-11v0h0v0l0,0,0,0h0l-18.85-20.16,0,0a.09.09,0,0,0-.07,0,.21.21,0,0,0-.11,0h0l-4,1.19L1352,478.75c-3.23-3.47-4.51-10.91-4.52-11v0h0l0,0a.25.25,0,0,0,0-.07l-18.52-20.16,0,0-.07,0a.21.21,0,0,0-.11,0s0,0,0,0l-4.47,1.35a3.58,3.58,0,0,1-.29-.27h0L1221,337.77V287l.14-.05,0,0s0,0,0,0,0,0,0,0a.36.36,0,0,0,0-.09.14.14,0,0,0,0-.09s0,0,0-.05,0,0,0,0,0,0,0-.05l-33.45-35.63a87.91,87.91,0,0,0-96.56-22L967.15,278.39l0,0h0s0,0,0,.05a.3.3,0,0,0,0,.08.17.17,0,0,0,0,.1s0,0,0,.06h0"/><polyline class="cls-3" points="671.05 1342.41 689.2 1302.9 1426.62 983.91"/><line class="cls-3" x1="1399.73" y1="1024.28" x2="1408.43" y2="998.4"/><path class="cls-3" d="M408.89,1360.54l47.92,54.37a66,66,0,0,0,76.1,16.78l121.18-53.33,17-35.95,728.68-318.13,30,6.59a29.19,29.19,0,0,0,18-1.8L1562,978.81A38.54,38.54,0,0,0,1580.31,962l39.41-72.2a163.47,163.47,0,0,0,20-78.29v-3"/><path class="cls-3" d="M14.64,774.25s-6.59-33-6.59-50"/><path class="cls-3" d="M365.93,1265.47v-1.61a68.91,68.91,0,0,0-11.78-38.54l-49.08-72.76a3.09,3.09,0,0,0-5.65,1.73v1.26a65.7,65.7,0,0,0,11.08,36.5l50.17,75A2.87,2.87,0,0,0,365.93,1265.47Z"/><path class="cls-3" d="M358,1249l0-.26a47.37,47.37,0,0,0-8.22-29.09l-37.08-55.05c-1.46-2.16-5.15-1.37-5.28,1.13h0a45,45,0,0,0,7.72,27.56L353,1250C354.35,1252.08,357.82,1251.34,358,1249Z"/><path class="cls-3" d="M353,1250c5.46,5.46,7.37,4.73,11.73,3.15"/><path class="cls-3" d="M307.36,1166.37c0-5.14,2.6-6.56,2.6-6.56"/><path class="cls-3" d="M570.36,1290.24v27.23a15.89,15.89,0,0,0,22.19,14.59l40.2-17.35"/><path class="cls-3" d="M1639.69,804.24v17.07a88,88,0,0,1-53.08,80.79L483.44,1379.3A63.13,63.13,0,0,1,406,1356.58L14.64,774.25"/><line class="cls-3" x1="1426.62" y1="983.91" x2="1441.15" y2="1031.09"/><ellipse class="cls-3" cx="166.12" cy="765.74" rx="19.74" ry="14.8"/><path class="cls-3" d="M133,782.21c0,13.72,14.85,24.85,33.16,24.85s33.16-11.13,33.16-24.85"/><line class="cls-3" x1="208.81" y1="837.36" x2="208.81" y2="786.27"/><polyline class="cls-3" points="123.43 867.07 123.43 786.27 123.43 784.9"/><line class="cls-3" x1="132.96" y1="765.04" x2="132.96" y2="782.2"/><path class="cls-3" d="M547,1257.54a11.47,11.47,0,0,0,.37-2.87c0-8.17-8.83-14.8-19.73-14.8s-19.74,6.63-19.74,14.8a13,13,0,0,0,5.18,10"/><path class="cls-3" d="M558.46,1265.05a19.42,19.42,0,0,0,2.37-9.24c0-.22,0-.45,0-.67-.48-13.42-15.13-24.19-33.14-24.19-18.32,0-33.16,11.13-33.16,24.86a20.8,20.8,0,0,0,6,14.23"/><path class="cls-3" d="M494.56,1272.56c0-.47-.05-.94-.05-1.42"/><path class="cls-3" d="M494.52,1255.14h0c-6,5.48-9.53,12.46-9.53,20.06,0,.47,0,.94,0,1.4"/><path class="cls-3" d="M560.82,1255.14h0a32.58,32.58,0,0,1,4.89,5.62"/><line class="cls-3" x1="570.36" y1="1304.16" x2="570.36" y2="1279.98"/><polyline class="cls-3" points="484.98 1273.83 484.98 1275.21 484.98 1276.63"/><polyline class="cls-3" points="560.83 1253.98 560.83 1255.15 560.83 1255.81 560.83 1267.02"/><line class="cls-3" x1="494.52" y1="1253.98" x2="494.52" y2="1271.14"/><ellipse class="cls-3" cx="1266.66" cy="947.35" rx="19.74" ry="14.8"/><ellipse class="cls-3" cx="1266.66" cy="948.5" rx="33.16" ry="24.86"/><path class="cls-3" d="M1233.5,963.82c0,8.81,6.12,16.55,15.35,21"/><path class="cls-3" d="M1233.51,947.82h0c-6,5.48-9.53,12.46-9.53,20.06,0,8.68,4.66,16.56,12.22,22.3"/><path class="cls-3" d="M1299.81,947.82h0a30,30,0,0,1,8,11.71"/><polyline class="cls-3" points="1223.97 966.51 1223.97 967.89 1223.97 995.42"/><polyline class="cls-3" points="1299.82 946.66 1299.82 947.83 1299.82 948.49 1299.82 962.98"/><line class="cls-3" x1="1233.51" y1="946.66" x2="1233.51" y2="963.82"/><ellipse class="cls-3" cx="1460.87" cy="834.22" rx="24.13" ry="16.69"/><path class="cls-3" d="M681.83,1085.12c39.62,0,71.74,21.76,71.74,48.61s-32.12,48.61-71.74,48.61-71.75-21.76-71.75-48.61"/><path class="cls-3" d="M614.42,1239.05c-3.61-2.92-5.79-6.7-5.79-10.84,0-9.21,10.8-16.68,24.13-16.68,9.88,0,18.38,4.11,22.1,10"/><ellipse class="cls-3" cx="261.39" cy="935.71" rx="9.53" ry="6.59"/><ellipse class="cls-3" cx="930.24" cy="1058.39" rx="9.53" ry="6.59"/><path class="cls-3" d="M237.48,1082.14a11.39,11.39,0,0,0,9.45,5h12.59a8.62,8.62,0,0,1,7.16,3.82l122.06,181.72a71.78,71.78,0,0,0,87.67,26l58.83-25a8.36,8.36,0,0,1,8.63,1.27l20.47,17a3.77,3.77,0,0,0,6.18-2.9v-14"/><path class="cls-3" d="M1628.4,776.48A41.94,41.94,0,0,1,1615.49,843c-.38.19-.78.37-1.17.54l-112.27,48.37-298.13,129.16a16.26,16.26,0,0,1-11.49.53l-20.83-6.82L570.52,1275.15"/><line class="cls-3" x1="237.48" y1="1082.14" x2="15.73" y2="751.98"/><line class="cls-3" x1="192.45" y1="843.59" x2="115.36" y2="869.82"/><path class="cls-3" d="M249.93,1070.17a11.38,11.38,0,0,0,9.45,5H272a8.65,8.65,0,0,1,7.16,3.81l1.67,2.49,122.06,181.73a54.84,54.84,0,0,0,66.89,19.87l58.84-25a25.25,25.25,0,0,1,26.17,3.86"/><path class="cls-3" d="M1618.13,787.29c12.43,13.38,8.71,35.77-8.05,43l-134.77,57.63-271.39,116a16.26,16.26,0,0,1-11.49.53l-20.83-6.81L570.52,1258.06c-8.32,3-5.73,6.77-7.09,9s-2.6,0-2.6,0l-6.07-5"/><path class="cls-4" d="M1427.42,762.33a21.64,21.64,0,0,1,24.18,5.38l85.93,93.63"/><line class="cls-4" x1="192.4" y1="843.61" x2="192.37" y2="843.62"/><path class="cls-4" d="M249.93,1070.17a11.38,11.38,0,0,0,9.45,5H272a8.65,8.65,0,0,1,7.16,3.81l1.67,2.49,122.06,181.73a54.84,54.84,0,0,0,66.89,19.87l58.84-25a25.25,25.25,0,0,1,26.17,3.86"/><path class="cls-4" d="M249.93,1070.16,30.05,742.8A31.66,31.66,0,0,1,44.6,695.74"/><path class="cls-4" d="M1472.82,629.75c.1.12.2.24.31.35l145,157.19c12.43,13.38,8.71,35.77-8.05,43l-134.77,57.63-271.39,116a16.26,16.26,0,0,1-11.49.53l-20.83-6.81L570.52,1258.06c-8.32,3-5.73,6.77-7.09,9s-2.6,0-2.6,0l-6.07-5"/><path class="cls-4" d="M237.48,1082.14a11.39,11.39,0,0,0,9.45,5h12.59a8.62,8.62,0,0,1,7.16,3.82l122.06,181.72a71.78,71.78,0,0,0,87.67,26l58.83-25a8.36,8.36,0,0,1,8.63,1.27l20.47,17a3.77,3.77,0,0,0,6.18-2.9v-14"/><path class="cls-4" d="M1487.49,624.86c.1.12.2.24.31.35l140.6,151.27A41.94,41.94,0,0,1,1615.49,843c-.38.19-.78.37-1.17.54l-112.27,48.37-298.13,129.16a16.26,16.26,0,0,1-11.49.53l-20.83-6.82L570.52,1275.15"/><line class="cls-4" x1="237.48" y1="1082.14" x2="15.73" y2="751.98"/><path class="cls-5" d="M132.83,764.85a.22.22,0,0,0-.12.19v1.07c-5.73,5.3-9.06,11.87-9.48,18.67a.18.18,0,0,0,0,.12v82.17a.25.25,0,0,0,.25.25.25.25,0,0,0,.25-.25v-75.9c3.16,15.38,21,27.19,42.44,27.19"/><path class="cls-5" d="M527.68,1239.62c-11,0-20,6.75-20,15.05a13.26,13.26,0,0,0,5.27,10.2.24.24,0,0,0,.16.05.25.25,0,0,0,.19-.09.24.24,0,0,0,0-.35,12.76,12.76,0,0,1-5.09-9.81c0-8,8.74-14.55,19.49-14.55s19.48,6.53,19.48,14.55a11.22,11.22,0,0,1-.36,2.81.25.25,0,1,0,.48.13,11.86,11.86,0,0,0,.38-2.94C547.66,1246.37,538.7,1239.62,527.68,1239.62Z"/><path class="cls-5" d="M561.08,1255.05V1254a.23.23,0,0,0-.11-.19c-1.36-13-15.66-23.09-33.29-23.09s-31.91,10.18-33.29,23.08a.24.24,0,0,0-.12.2V1255c-5.73,5.3-9.06,11.87-9.49,18.67a.31.31,0,0,0,0,.12v2.8a.25.25,0,0,0,.25.25l0,0h0s.05,0,.08,0h0a.24.24,0,0,0,.12-.22c0-.39,0-.81,0-1.38,0-7,3.21-13.93,9-19.48v15.4h0c0,.44,0,.9.05,1.44a.25.25,0,0,0,.25.23h0a.25.25,0,0,0,.23-.26c0-.53-.05-1-.05-1.4h0v-11.05a21.84,21.84,0,0,0,5.53,10.12.22.22,0,0,0,.18.08.27.27,0,0,0,.17-.06.25.25,0,0,0,0-.36,20.51,20.51,0,0,1-5.89-14.06c0-13.57,14.76-24.61,32.91-24.61a39.07,39.07,0,0,1,23,7c6.15,4.5,9.66,10.51,9.89,16.94,0,.21,0,.44,0,.65a19.2,19.2,0,0,1-2.34,9.13.24.24,0,0,0,.1.33.25.25,0,0,0,.34-.1,20.53,20.53,0,0,0,1.9-5V1267a.25.25,0,0,0,.5,0v-11.28a32.23,32.23,0,0,1,4.43,5.17.24.24,0,0,0,.21.11.23.23,0,0,0,.14,0,.26.26,0,0,0,.07-.35A32.78,32.78,0,0,0,561.08,1255.05Z"/><path class="cls-5" d="M1300.07,947.73v-1.07a.24.24,0,0,0-.11-.19c-1.38-12.9-15.78-23.09-33.3-23.09s-31.9,10.18-33.29,23.08a.26.26,0,0,0-.11.2v1.06c-5.73,5.3-9.06,11.88-9.49,18.67a.31.31,0,0,0,0,.12v28.91a.25.25,0,0,0,.5,0V972.79c1.35,6.63,5.43,12.75,11.82,17.6a.21.21,0,0,0,.15.05.23.23,0,0,0,.2-.1.25.25,0,0,0-.05-.35c-7.81-5.93-12.12-13.78-12.12-22.1,0-7,3.21-13.93,9-19.47v15.39a0,0,0,0,1,0,0c0,8.63,5.79,16.55,15.49,21.19a.22.22,0,0,0,.11,0,.27.27,0,0,0,.23-.14.25.25,0,0,0-.12-.33c-9.52-4.55-15.21-12.3-15.21-20.73h0v-11c2.72,11.8,16.43,20.81,32.9,20.81s30.18-9,32.91-20.8V963a.25.25,0,1,0,.5,0V948.42a29.42,29.42,0,0,1,7.57,11.21.24.24,0,0,0,.23.16h.09a.26.26,0,0,0,.15-.32A30.06,30.06,0,0,0,1300.07,947.73Z"/><line class="cls-4" x1="192.45" y1="843.59" x2="115.36" y2="869.82"/><path class="cls-6" d="M36.58,684.11A45.73,45.73,0,0,0,7.82,724.25s0,0,0,0,0,.14,0,.21a45.49,45.49,0,0,0,.45,9c1.49,17.38,6.08,40.48,6.13,40.76l0,.05s0,0,0,0l391.36,582.33q1.38,2.05,2.9,4h0l.08.09a60.46,60.46,0,0,0,4.35,4.94l43.49,49.35A66,66,0,0,0,533,1431.92l121.18-53.33a.3.3,0,0,0,.13-.12l16.92-35.87,728.52-318.06,29.93,6.57a29.23,29.23,0,0,0,18.19-1.81L1562.09,979a39,39,0,0,0,18.44-16.94l39.4-72.2a163.35,163.35,0,0,0,15.81-41.7,88.34,88.34,0,0,0,4.2-26.89V804.24a.28.28,0,0,0-.06-.15,41.73,41.73,0,0,0-11.3-27.78L1488,625.05h0c-3.29-3.48-4.88-10.93-4.89-11v0h0v0l0,0,0,0h0l-18.85-20.16,0,0a.09.09,0,0,0-.07,0,.21.21,0,0,0-.11,0h0l-4,1.19L1352,478.75c-3.23-3.47-4.51-10.91-4.52-11v0h0l0,0a.25.25,0,0,0,0-.07l-18.52-20.16,0,0-.07,0a.21.21,0,0,0-.11,0s0,0,0,0l-4.47,1.35a3.58,3.58,0,0,1-.29-.27h0L1221,337.77V287l.14-.05,0,0s0,0,0,0,0,0,0,0a.36.36,0,0,0,0-.09.14.14,0,0,0,0-.09s0,0,0-.05,0,0,0,0,0,0,0-.05l-33.45-35.63a87.91,87.91,0,0,0-96.56-22L967.15,278.39l0,0h0s0,0,0,.05a.3.3,0,0,0,0,.08.17.17,0,0,0,0,.1s0,0,0,.06h0"/><ellipse class="cls-3" cx="729.07" cy="1152.87" rx="6.77" ry="4.87"/><ellipse class="cls-3" cx="761.69" cy="1139.03" rx="6.77" ry="4.87"/><path class="cls-3" d="M790.3,1057.52c0,2.7-3,4.88-6.77,4.88"/><path class="cls-3" d="M629.25,1134.16c0,2.69-3,4.87-6.77,4.87s-6.76-2.18-6.76-4.87"/><ellipse class="cls-3" cx="831.67" cy="1037.22" rx="6.77" ry="4.87"/><ellipse class="cls-3" cx="829.05" cy="1122.76" rx="3.89" ry="2.8"/><ellipse class="cls-3" cx="853.5" cy="1112.02" rx="3.89" ry="2.8"/><ellipse class="cls-3" cx="1056.5" cy="977.76" rx="6.77" ry="4.87"/><ellipse class="cls-3" cx="1075.23" cy="1002.58" rx="6.77" ry="4.87"/><path class="cls-3" d="M569.4,1215.32c0,17.52-20.24,31.73-45.2,31.73"/><line class="cls-3" x1="543.7" y1="1251.74" x2="601.24" y2="1227.16"/><polyline class="cls-3" points="716.41 1177.96 805.88 1139.75 805.99 1139.7"/><polyline class="cls-3" points="882.16 1107.16 882.17 1107.16 893.53 1102.3"/><line class="cls-3" x1="1066.62" y1="1028.36" x2="1055.58" y2="1033.08"/><polyline class="cls-3" points="979.24 1065.69 979.06 1065.77 896.04 1101.23"/><line class="cls-3" x1="826.39" y1="1141.64" x2="713.09" y2="1190.04"/><line class="cls-3" x1="999.57" y1="1067.66" x2="876.27" y2="1120.34"/><line class="cls-3" x1="543.7" y1="1262.4" x2="607.04" y2="1235.34"/><line class="cls-3" x1="1045.05" y1="953.64" x2="1051.63" y2="950.84"/><polygon class="cls-3" points="1098.99 988.3 1106.49 985.11 1103.41 980.91 1095.91 984.1 1098.99 988.3"/><polygon class="cls-3" points="1088.16 973.52 1095.66 970.34 1092.59 966.13 1085.09 969.33 1088.16 973.52"/><polygon class="cls-3" points="1073.8 953.92 1081.3 950.73 1078.22 946.53 1070.72 949.72 1073.8 953.92"/><polygon class="cls-3" points="1080.7 963.34 1088.2 960.15 1085.12 955.95 1077.62 959.14 1080.7 963.34"/><line class="cls-3" x1="758" y1="1077.66" x2="701.48" y2="1101.8"/><polyline class="cls-3" points="684.35 1108.77 701.48 1134.16 758 1110.02 758 1077.66"/><line class="cls-3" x1="701.48" y1="1101.8" x2="701.48" y2="1134.16"/><line class="cls-3" x1="944.56" y1="1008.51" x2="877.17" y2="1037.22"/><line class="cls-3" x1="740.97" y1="1077.47" x2="708.34" y2="1091.41"/><polyline class="cls-3" points="860.04 1044.18 877.17 1068.62 944.56 1040.87 944.56 1008.51"/><line class="cls-3" x1="877.17" y1="1037.22" x2="877.17" y2="1068.62"/><line class="cls-3" x1="1126.23" y1="987.35" x2="1126.23" y2="965.17"/><line class="cls-3" x1="1144.66" y1="987.35" x2="1144.66" y2="957.45"/><line class="cls-3" x1="1140.44" y1="981.32" x2="1140.44" y2="959.23"/><polyline class="cls-3" points="1150.24 955.09 1122.51 966.8 1122.51 962.35 1150.25 950.82"/><polyline class="cls-3" points="1150.24 949.66 1150.24 955.08 1150.24 985.02 1144.65 987.35 1140.44 981.32 1126.22 987.35 1126.22 995.01 1119.75 997.7"/><line class="cls-3" x1="1095.98" y1="947.18" x2="1122.5" y2="966.8"/><line class="cls-3" x1="1122.51" y1="962.35" x2="1095.91" y2="942.42"/><path class="cls-3" d="M716,1174.17l-1.22-1.82,0,0"/><path class="cls-3" d="M700.82,1200.93l-84,36.14a9.08,9.08,0,0,1-12.64-8.35v-2.57a15.21,15.21,0,0,1,9.25-14l95.56-40.9a5.34,5.34,0,0,1,7.44,4.91v1.51A25.5,25.5,0,0,1,700.82,1200.93Z"/><path class="cls-3" d="M882.35,1088h0"/><path class="cls-3" d="M825.85,1099.36a1.9,1.9,0,0,1-.86,2.8l-4.67,2a3,3,0,0,1-3.53-.9l-12-15-9.6-12a4.57,4.57,0,0,0-5.4-1.33l-.07,0a4.58,4.58,0,0,0-1.36,7.48l26.46,25.67a3.75,3.75,0,0,0,4.08.75l11.06-4.72a3.1,3.1,0,0,0,1.58-4.18l-15.08-31.6a4.58,4.58,0,1,0-8,4.47l6.86,10.5"/><polyline class="cls-3" points="825.85 1099.36 822.71 1098.49 815.37 1083.33 804.81 1088.25"/><line class="cls-3" x1="822.71" y1="1098.49" x2="815.58" y2="1101.54"/><path class="cls-3" d="M864,1082.93a1.9,1.9,0,0,1-.86,2.8l-4.67,2a3,3,0,0,1-3.53-.9l-12-15-9.6-12a4.57,4.57,0,0,0-5.4-1.33l-.07,0a4.58,4.58,0,0,0-1.36,7.48L853,1091.68a3.75,3.75,0,0,0,4.08.75l11.06-4.72a3.1,3.1,0,0,0,1.58-4.18l-15.08-31.6a4.58,4.58,0,1,0-8,4.47l6.86,10.5"/><polyline class="cls-3" points="864.02 1082.92 860.88 1082.05 853.54 1066.89 842.98 1071.81"/><line class="cls-3" x1="860.88" y1="1082.05" x2="853.75" y2="1085.1"/><path class="cls-3" d="M806,1139.91v-15.57a4.94,4.94,0,0,1,2.91-5.07"/><polyline class="cls-3" points="810.55 1127.11 817.97 1136.88 824.5 1139.03"/><polyline class="cls-3" points="873.78 1117.32 873.4 1112.26 865.06 1101.11"/><polyline class="cls-3" points="758 1101.54 788.25 1142.85 720.63 1172.22 704.42 1149.02 771.53 1120.69"/><polyline class="cls-3" points="612.68 1212.5 616.29 1218.17 696.15 1183.58 692.58 1178.28"/><polyline class="cls-3" points="609.16 1214.89 616.29 1226.08 696.15 1191.48"/><line class="cls-3" x1="696.15" y1="1183.58" x2="696.15" y2="1191.48"/><line class="cls-3" x1="616.3" y1="1218.17" x2="616.3" y2="1225.7"/><polyline class="cls-3" points="933.12 1000.99 925.95 1003.97 928.38 1007.48 883.01 1026.58 880.5 1022.86 876.03 1024.72"/><line class="cls-3" x1="925.95" y1="1003.97" x2="925.95" y2="1008.5"/><line class="cls-3" x1="885.01" y1="1103.72" x2="879.34" y2="1095.07"/><path class="cls-3" d="M887.9,1100.21l6.51,2.42a1.21,1.21,0,0,0,1.63-1.13v-3.87a4.45,4.45,0,0,0-1.35-3.19l-8.4-8.14"/><line class="cls-3" x1="843.7" y1="1025.61" x2="886.29" y2="1086.3"/><path class="cls-3" d="M810.38,1126.25l-1,5.84v6.15l1.13,1.46.08-2v-9.44a8.49,8.49,0,0,0-2-5.43h0a2.49,2.49,0,0,1,.86-3.95l1.84-.79a4.34,4.34,0,0,1,5.22,1.47h0a2.67,2.67,0,0,0,3.24.91l60.95-26A2.48,2.48,0,0,0,882,1091c-.64-1.17-1-2.47.3-3h0a3,3,0,0,1,2.87.61,6.6,6.6,0,0,1,2.68,5.41v6.22l-14.12,17.11,4,4.79.22,3.05a3.49,3.49,0,0,1-2.13,3.45l-42.05,17.5a4.23,4.23,0,0,1-4.88-1.22l-1.17-1.42L824.5,1139l-18.51.88-45.86-66.17"/><polygon class="cls-3" points="1072.17 1021.45 1099.44 1009.96 1061.32 958.8 1034.01 970.66 1072.17 1021.45"/><line class="cls-3" x1="1119.75" y1="997.71" x2="1119.75" y2="964.9"/><line class="cls-3" x1="1126.23" y1="977.76" x2="1140.44" y2="971.53"/><line class="cls-3" x1="651.32" y1="1116.43" x2="638.24" y2="1122.47"/><line class="cls-3" x1="613.16" y1="1173.65" x2="661.81" y2="1152.87"/><line class="cls-3" x1="609.16" y1="1168.13" x2="657.8" y2="1147.35"/><path class="cls-3" d="M963.54,983.65c0,2.69-3,4.87-6.76,4.87"/><path class="cls-3" d="M1011.68,963.34c0,2.69-3,4.87-6.76,4.87"/><ellipse class="cls-3" cx="1002.29" cy="1048.89" rx="3.89" ry="2.8"/><ellipse class="cls-3" cx="1026.74" cy="1038.14" rx="3.89" ry="2.8"/><path class="cls-3" d="M1055.6,1014.1h0"/><path class="cls-3" d="M999.1,1025.49a1.9,1.9,0,0,1-.86,2.8l-4.67,2a3,3,0,0,1-3.53-.9l-12-15-9.6-12a4.57,4.57,0,0,0-5.4-1.33l-.07,0a4.58,4.58,0,0,0-1.36,7.48l26.46,25.67a3.75,3.75,0,0,0,4.08.75l11.06-4.72a3.1,3.1,0,0,0,1.58-4.18l-15.08-31.6a4.58,4.58,0,1,0-8,4.47l6.86,10.5"/><polyline class="cls-3" points="999.1 1025.48 995.96 1024.61 988.62 1009.45 978.05 1014.37"/><line class="cls-3" x1="995.96" y1="1024.61" x2="988.82" y2="1027.66"/><path class="cls-3" d="M1037.27,1009.05a1.9,1.9,0,0,1-.86,2.8l-4.67,2a3,3,0,0,1-3.53-.9l-12-15-9.6-12a4.57,4.57,0,0,0-5.4-1.33l-.07,0a4.58,4.58,0,0,0-1.36,7.48l26.46,25.67a3.75,3.75,0,0,0,4.08.75l11.06-4.72a3.1,3.1,0,0,0,1.58-4.18l-15.08-31.6a4.58,4.58,0,1,0-8,4.47l6.86,10.5"/><polyline class="cls-3" points="1037.27 1009.05 1034.13 1008.17 1026.79 993.01 1016.22 997.93"/><line class="cls-3" x1="1034.13" y1="1008.17" x2="1026.99" y2="1011.22"/><path class="cls-3" d="M979.24,1066v-15.58a4.94,4.94,0,0,1,2.91-5.07"/><polyline class="cls-3" points="983.79 1053.23 991.22 1063 997.75 1065.15"/><polyline class="cls-3" points="1047.03 1043.44 1046.65 1038.38 1038.31 1027.23"/><line class="cls-3" x1="1058.26" y1="1029.84" x2="1052.58" y2="1021.19"/><path class="cls-3" d="M1061.15,1026.34l6.5,2.41a1.21,1.21,0,0,0,1.64-1.13v-3.87a4.43,4.43,0,0,0-1.36-3.19l-8.39-8.13"/><path class="cls-3" d="M983.63,1052.37a8.41,8.41,0,0,0-1.71-3.4h0a2.51,2.51,0,0,1,.24-3.58,2.58,2.58,0,0,1,.62-.38l1.84-.78a4.34,4.34,0,0,1,5.22,1.47,2.66,2.66,0,0,0,2.18,1.13,2.62,2.62,0,0,0,1.06-.22l45.27-19.33,14.25-6.09,1.43-.61a2.48,2.48,0,0,0,1.25-3.45c-.64-1.17-1-2.47.3-3h0a3,3,0,0,1,2.87.61,6.6,6.6,0,0,1,2.68,5.41v6.22l-2.89,3.51-11.23,13.6,4,4.79.22,3a3.49,3.49,0,0,1-2.13,3.45l-42,17.5a4.23,4.23,0,0,1-4.88-1.22l-1.17-1.42-3.22-4.44-14,.66-4.56.22-34.68-50"/><path class="cls-3" d="M983.63,1052.38h0l-1,5.83v6.14l1.13,1.46.08-2v-9.44a8,8,0,0,0-.25-2"/><polygon class="cls-3" points="1178.17 955.46 1185.67 952.27 1182.59 948.07 1175.1 951.26 1178.17 955.46"/><polyline class="cls-3" points="1164.27 936.48 1167.35 940.68 1174.84 937.49"/><line class="cls-3" x1="1205.41" y1="954.51" x2="1205.41" y2="932.33"/><polyline class="cls-3" points="1229.42 952.18 1223.84 954.51 1219.63 948.48 1205.4 954.51 1205.4 962.17 1198.93 964.86"/><line class="cls-3" x1="1198.94" y1="964.87" x2="1198.94" y2="932.05"/><line class="cls-3" x1="1205.41" y1="944.92" x2="1219.63" y2="938.68"/><path class="cls-7" d="M1256.39,880.51a5.72,5.72,0,0,0,6.68,1.66m-10.81,4.92.48-.21m-119.06,33.19h0l.06,0Zm-13.87,19.82-7.24-9.28,7.37,9.46ZM1110,927.25a.24.24,0,0,0-.35,0,.23.23,0,0,0-.09.24,3.07,3.07,0,0,1,1.38,1ZM4.5,636c-.11.23-.2.45-.3.68-.19.43-.37.88-.54,1.32a.08.08,0,0,1,0,0c-.34.88-.67,1.83-1,2.84-.18.57-.35,1.15-.51,1.73a.14.14,0,0,1,0,.06c-.13.51-.26,1-.38,1.54a1.31,1.31,0,0,0-.06.27c-.13.53-.24,1.07-.34,1.6s-.19,1-.27,1.54L1,648c-.06.34-.11.69-.14,1s-.07.56-.1.84c0,0,0,0,0,0-.05.36-.09.73-.11,1.1s-.07,1-.1,1.55a1,1,0,0,0,0,.17c0,.21,0,.41,0,.62s0,.7,0,1a0,0,0,0,0,0,0h0v28.76l6.33,48.34a47.37,47.37,0,0,0,7.6,20.14l222.12,330.71a11.63,11.63,0,0,0,9.66,5.14H258.8a8.36,8.36,0,0,1,6.95,3.71L387.81,1273a72.07,72.07,0,0,0,88,26.13l58.83-25a8.08,8.08,0,0,1,8.38,1.23l20.47,17a4,4,0,0,0,6.59-3.09v-13.84l30.77-13.33s0,0,0,0v0a.13.13,0,0,0,.07-.06.13.13,0,0,0,0-.08h0a.06.06,0,0,0,0,0v-27.62a15.48,15.48,0,0,1,9.29-14.19l100.29-43.83a11.54,11.54,0,0,1,16.16,10.57v20.39a.27.27,0,0,0,.06.16h0l.09.06,0,0a.19.19,0,0,0,.15,0l85.24-36.92a.16.16,0,0,0,.08-.06h0l0,0a.14.14,0,0,0,0-.06.06.06,0,0,0,0,0V1145A17.54,17.54,0,0,1,823,1128.85l78.85-34.1a6.68,6.68,0,0,1,9.33,6.13v26.42a.26.26,0,0,0,.12.21.24.24,0,0,0,.23,0L989.08,1094h0l.06,0a.09.09,0,0,0,0-.06.14.14,0,0,0,0-.06.06.06,0,0,0,0,0v-28.39a14.92,14.92,0,0,1,9.16-13.79l79.45-33.37a5.8,5.8,0,0,1,8,5.34v28.13s0,0,0,0v0a.12.12,0,0,0,0,.08l0,0,0,0h0l.08,0,.1,0,84.66-36.67,20.74,6.79c.3.1.6.18.9.26s.66.17,1,.23.64.12,1,.16.65.08,1,.11l.55,0,.74,0c.3,0,.59,0,.89,0l.3,0a12.78,12.78,0,0,0,1.5-.18l.68-.13.22,0v.27a.25.25,0,0,0,.5,0v-.39a15.94,15.94,0,0,0,2.47-.84l411.18-178.13a41,41,0,0,0,24.74-37.68V561.82a57.62,57.62,0,0,0-14.55-38.28L1550.37,440l0,0L1533,420.4c-.31-.35-.62-.68-1-1a3.11,3.11,0,0,0-.32-.31c-.29-.3-.58-.57-.88-.84s-.75-.67-1.14-1-.68-.54-1-.8-.71-.51-1.07-.74a6.65,6.65,0,0,0-.56-.36.71.71,0,0,0-.14-.1l-.45-.27a.24.24,0,0,0-.11-.06l-.58-.34c-.27-.16-.55-.31-.82-.45l-.7-.35a5.45,5.45,0,0,0-.55-.25l-.54-.24a.38.38,0,0,0-.13-.06c-.28-.13-.56-.24-.85-.35-.5-.2-1-.38-1.52-.54l-1-.31h0c-.3-.09-.6-.17-.91-.24s-.5-.12-.76-.18l-.46-.09c-.29-.06-.58-.12-.88-.16l-.74-.11c-.28-.05-.55-.08-.82-.11l-.82-.07a3.27,3.27,0,0,0-.54,0l-.38,0H1513c-.64,0-1.28,0-1.92,0-.8,0-1.59.09-2.38.18a29.76,29.76,0,0,0-3.94.76V392.38a2.68,2.68,0,0,0,0-.4,1.71,1.71,0,0,0,0-.39h0a.26.26,0,0,0,0-.12c0-.25-.39-6.16-10.07-13-7.13-5.05-16.91-1.06-17-1l-3.94,1.63V358.74a2.68,2.68,0,0,0,0-.4l0-.39h0a.26.26,0,0,0,0-.12c0-.25-.4-6.16-10.07-13-.24-.17-.48-.33-.72-.47a6.65,6.65,0,0,0-.58-.33c-.23-.13-.47-.25-.71-.36s-.41-.19-.61-.27l-.61-.23a14.47,14.47,0,0,0-3.16-.74l-.73-.08a10.23,10.23,0,0,0-1.09-.06h-.75c-.35,0-.69,0-1,0h-.19l-.61.05a5.7,5.7,0,0,0-.58.06l-.92.13a24.34,24.34,0,0,0-2.53.54l-.51.14-.44.13-.56.18-.66.24h0l-3,1.27V324.58a2.68,2.68,0,0,0,0-.4l0-.39h0l0,0a.11.11,0,0,0,0-.08c0-.24-.39-6.15-10.07-13a12,12,0,0,0-1.59-1l-.4-.2-.69-.3c-.19-.08-.37-.15-.56-.21l-.4-.14-.42-.12a12.08,12.08,0,0,0-1.29-.31l-.25-.05-.78-.12-.46,0-.84-.07c-.51,0-1,0-1.5,0H1424q-.3,0-.6,0l-.61.05-.38,0-.38.05-.37.05-1,.16a24.48,24.48,0,0,0-2.42.57l-.44.13-.56.18-.66.24h0l-2,.84V290.72a2.75,2.75,0,0,0,0-.41l0-.38h0a0,0,0,0,1,0,0l0,0a.13.13,0,0,0,0-.06c0-.25-.39-6.16-10.07-13a12,12,0,0,0-1.59-1l-.4-.2q-.35-.17-.69-.3c-.19-.08-.37-.15-.56-.21l-.4-.14-.42-.12a12.08,12.08,0,0,0-1.29-.31l-.25,0q-.39-.08-.78-.12l-.46-.05-.84-.07c-.51,0-1,0-1.5,0h-.41l-.6,0-.61.05-.38,0c-.26,0-.51.06-.75.1l-.72.11-.34.06c-.34.07-.66.13-1,.21l-.58.14-.27.07-.26.07-.25.07-.39.12-.26.08c-.57.18-.93.32-1,.35h0l-2.54,1V256.93a2.68,2.68,0,0,0,0-.4l0-.4v0s0,0,0-.05a.17.17,0,0,0,0-.07c0-.24-.39-6.15-10.07-13a13.28,13.28,0,0,0-1.94-1.14l-.6-.26a14,14,0,0,0-1.37-.49l-.67-.18a15.13,15.13,0,0,0-2-.36l-.51,0c-.62-.06-1.22-.08-1.81-.08-.39,0-.77,0-1.14,0h-.19l-.61,0-.38,0-.38,0-.37.05-.52.08-.45.08-.43.08a22.83,22.83,0,0,0-2.29.58l-.25.08a1.4,1.4,0,0,0-.29.09l-.45.15h0l-.12,0-.23.08h0L1355.3,243V225.12a2.68,2.68,0,0,0,0-.4l0-.39h0l0,0a.11.11,0,0,0,0-.08c0-.24-.39-6.15-10.07-13a12,12,0,0,0-1.59-1l-.4-.2q-.35-.17-.69-.3c-.19-.08-.37-.15-.56-.21l-.4-.14-.42-.12a12.08,12.08,0,0,0-1.29-.31l-.25,0-.78-.12-.46-.05-.84-.07c-.51,0-1,0-1.5,0h-.41q-.3,0-.6,0l-.61,0-.38,0-.38,0-.37.05-1,.16a24.48,24.48,0,0,0-2.42.57l-.44.13-.56.18-.66.24h0l-2.54,1.06V191.65c0-.25,0-.51,0-.77v0h0l0-.05a.17.17,0,0,0,0-.07c0-.25-.39-6.16-10.07-13a12,12,0,0,0-1.59-1c-.36-.18-.72-.35-1.09-.5s-.73-.28-1.1-.39l-.45-.13a2.25,2.25,0,0,0-.35-.09l-.33-.08-.34-.07-.2,0-.29-.05c-.24,0-.47-.08-.71-.11l-.68-.07-.79,0a20.5,20.5,0,0,0-2.08,0c-.42,0-.82.06-1.22.11l-.15,0a5,5,0,0,0-.56.07l-.26,0-.46.07h0l-.48.09a24.67,24.67,0,0,0-2.61.65c-.21.06-.4.12-.55.18l-.66.24h0l-1.64.68v-17.5c0-.26,0-.52,0-.78h0l0-.05a.17.17,0,0,0,0-.07c0-.25-.39-6.16-10.07-13-6.36-4.52-14.84-1.82-16.65-1.16l.12-14.05c0-.1,0-.2,0-.3s0-.18,0-.27v0h0s0,0,0,0a0,0,0,0,0,0,0,11.32,11.32,0,0,0-.09-1.43,5,5,0,0,0-.08-.56,8.81,8.81,0,0,0-.32-1.37c-.05-.18-.11-.35-.17-.52s0-.09,0-.13l-.06-.18a1.8,1.8,0,0,0-.08-.21,13.1,13.1,0,0,0-.86-2c-.08-.16-.17-.3-.25-.46s-.35-.59-.54-.87a14.68,14.68,0,0,0-1.24-1.61l-83.84-94.33a76.87,76.87,0,0,0-82.6-21.69l-27.56,9.47a21.88,21.88,0,0,0-14.78,20.7V80l-98.11,35.17a26,26,0,0,0-17.21,24.44v78.57m64.15-7.76,49.17,58.29m-311.48,772,21.44,32.06v19.89l-3.47,1.48a4.92,4.92,0,0,0-.65-1.08l-8.91-11.44a3,3,0,0,0-1.52-1l-.08,0h-.08a2.85,2.85,0,0,0-1-.1l-4.24.33a21.69,21.69,0,0,0-6.9,1.69l-14.05,6a11.09,11.09,0,0,0-3.42,2,1,1,0,0,0-.14.15l-.12.17a1.24,1.24,0,0,0-.28.74.13.13,0,0,0,0,.06h0a1,1,0,0,0,0,.17v20l-4.05,1.73a5.27,5.27,0,0,0-.72-1.26l-8.92-11.44a3.11,3.11,0,0,0-1.58-1.07h-.09a1.3,1.3,0,0,0-.34-.08,2.34,2.34,0,0,0-.38,0h-.3l-4.23.33a21.68,21.68,0,0,0-6.91,1.69l-6.95,3M235,750c-6.81,6.12-3.45,15.47-1.42,19.64a20.06,20.06,0,0,1-11.87-8.4c-.19-.29-.37-.58-.53-.88l1.92-9a17.54,17.54,0,0,0,.37-3.68v0h-.1M946.59,995v0a1,1,0,0,0,0,.17v20.31l-3.53,1.51a5.22,5.22,0,0,0-.75-1.31l-8.91-11.44a3,3,0,0,0-1.52-1l-.07,0h-.07l-.4-.09a2.58,2.58,0,0,0-.62,0l-4.24.33a22.17,22.17,0,0,0-6.91,1.7l-14,6a11.24,11.24,0,0,0-3.39,2l-.12.13a1.51,1.51,0,0,0-.44,1,.09.09,0,0,0,0,0v0a.91.91,0,0,0,0,.17v20.3l-3.53,1.51a5,5,0,0,0-.75-1.3l-8.91-11.44a3,3,0,0,0-1.52-1l-.08,0h-.06a2.61,2.61,0,0,0-.77-.11h-.25l-4.24.32a22.24,22.24,0,0,0-6.91,1.7l-14,6s-.49.19-1.1.48l-18.92-26a5.18,5.18,0,0,1,1.63-1.07l80.14-33.9a7.2,7.2,0,0,1,8.69,2.44l16,21.86a1.3,1.3,0,0,0-.35.84A.09.09,0,0,0,946.59,995Zm33.58-167,272.09,59.12-52.14,22.27a8.78,8.78,0,0,1-5.21.54l-15.49-3.12a30.86,30.86,0,0,0-18.06,1.77L1133.77,920h0l-.06,0h0s0,0,0,.06l0,.06a.17.17,0,0,0,0,.07v34.27h-12.68V941.39a.22.22,0,0,0-.06-.15l-.91-1.17-.13-.18-7.24-9.28-1.68-2.15-.94-1.21a.24.24,0,0,0-.35,0,.23.23,0,0,0-.09.24.35.35,0,0,0-.14,0,.29.29,0,0,0-.16,0l-.21,0a2.68,2.68,0,0,0-.8-.06l-4.24.33a22,22,0,0,0-6.9,1.7l-14,6a11.09,11.09,0,0,0-3.42,2,1,1,0,0,0-.14.15l-.12.17a1.24,1.24,0,0,0-.28.74.09.09,0,0,0,0,0v0a1,1,0,0,0,0,.17v20.32l-.94.4a5.2,5.2,0,0,0-.74-1.32l-8.92-11.43a3,3,0,0,0-1.16-.92M1110,927.25a.24.24,0,0,0-.35,0,.23.23,0,0,0-.09.24,3.07,3.07,0,0,1,1.38,1Zm9.86,12.64-7.24-9.28,7.37,9.46Zm13.87-19.82h0l.06,0Zm122.71-39.56a5.72,5.72,0,0,0,6.68,1.66m-10.81,4.92.48-.21M1110,927.25a.24.24,0,0,0-.35,0,.23.23,0,0,0-.09.24,3.07,3.07,0,0,1,1.38,1Zm9.86,12.64-7.24-9.28,7.37,9.46Zm13.87-19.82h0l.06,0Zm122.71-39.56a5.72,5.72,0,0,0,6.68,1.66m-10.81,4.92.48-.21"/><path class="cls-3" d="M1203.26,546.14l62-110.07a14.86,14.86,0,0,1,7.23-6.41l189.62-78.57a8.28,8.28,0,0,1,11.44,7.65v20.65"/><path class="cls-3" d="M1194.17,536.46l24.33-43.22,35.83-63.64a25.6,25.6,0,0,1,7-7.94h0a25.64,25.64,0,0,1,5.45-3.09l176.61-73.17,3.4-1.41"/><path class="cls-3" d="M1446.79,344s9.66-4,16.76,1c9.69,6.88,10,12.84,10,12.84"/><path class="cls-3" d="M1248.63,528.46v-42a19.25,19.25,0,0,1,11.85-17.77l31.45-13.08"/><path class="cls-3" d="M1234.28,579.78l62-110.07a14.86,14.86,0,0,1,7.23-6.41l189.62-78.57a8.28,8.28,0,0,1,11.44,7.65v19.86"/><path class="cls-3" d="M1477.81,377.62l-180,74.59a25.52,25.52,0,0,0-12.44,11L1225.19,570.1"/><path class="cls-3" d="M1477.81,377.62s9.66-4,16.76,1c9.69,6.88,10,12.84,10,12.84"/><path class="cls-3" d="M1173.13,512l62-110.07a14.76,14.76,0,0,1,7.23-6.41L1432,316.94a8.27,8.27,0,0,1,11.44,7.64v20.81"/><path class="cls-3" d="M1164,502.3l25.35-45,34.81-61.83a25.7,25.7,0,0,1,5.18-6.45,25.41,25.41,0,0,1,7.27-4.58l177.64-73.61,2.37-1"/><path class="cls-3" d="M1416.66,309.82s9.66-4,16.76,1c9.7,6.88,10,12.84,10,12.84"/><path class="cls-3" d="M1261.33,421.65h0l-31,12.88a19.27,19.27,0,0,0-11.85,17.78v40.92"/><path class="cls-3" d="M1144,478.13l62-110.07a14.76,14.76,0,0,1,7.23-6.41l189.62-78.57a8.27,8.27,0,0,1,11.44,7.64V310.8"/><path class="cls-3" d="M1134.93,468.44l24.84-44.11,35.33-62.74a25.5,25.5,0,0,1,5.5-6.75h0a25.37,25.37,0,0,1,6.93-4.29l177.13-73.39,2.89-1.2"/><path class="cls-3" d="M1387.55,276s9.67-4,16.77,1c9.69,6.87,10,12.83,10,12.83"/><path class="cls-3" d="M1189.39,457.27V418.46a19.24,19.24,0,0,1,11.86-17.77l28.13-11.7"/><path class="cls-3" d="M1114.41,444.34l62-110.07a14.72,14.72,0,0,1,7.23-6.41l189.62-78.57a8.27,8.27,0,0,1,11.44,7.64v20.23"/><path class="cls-3" d="M1357.94,242.17l-2.89,1.2-177.12,73.39a25.22,25.22,0,0,0-10.1,7.58h0a25.5,25.5,0,0,0-2.34,3.45l-12.71,22.58-11.09,19.69-11.52,20.47-24.84,44.12"/><path class="cls-3" d="M1357.94,242.17s9.66-4,16.76,1c9.69,6.88,10,12.84,10,12.84"/><path class="cls-3" d="M1159.77,424.33V384.66a19.26,19.26,0,0,1,11.86-17.77l29-12.05h0"/><path class="cls-3" d="M1084.79,412.53l37.11-65.92,10.95-19.45,13.91-24.7a14.76,14.76,0,0,1,7.23-6.41l189.62-78.57a8.27,8.27,0,0,1,11.44,7.64v18.25"/><path class="cls-3" d="M1075.7,402.84l24.84-44.12L1135.86,296a25.11,25.11,0,0,1,4.83-6.13h0a25.2,25.2,0,0,1,7.61-4.9l177.12-73.39,2.89-1.2"/><path class="cls-3" d="M1328.32,210.36s9.66-4,16.76,1c9.69,6.88,10,12.84,10,12.84"/><path class="cls-3" d="M1130.16,390.53V352.85a19.25,19.25,0,0,1,10.17-17,18.52,18.52,0,0,1,1.68-.8l25.81-10.74h0"/><path class="cls-3" d="M1055.18,379.06l62-110.07a14.81,14.81,0,0,1,7.23-6.41L1314,184a8.27,8.27,0,0,1,11.43,7.64v19.91"/><path class="cls-3" d="M1046.08,369.37l25.75-45.73,34.41-61.12a25.52,25.52,0,0,1,1.89-2.88h0a25.41,25.41,0,0,1,10.55-8.16l178-73.77,2-.82"/><path class="cls-3" d="M1298.7,176.9s9.67-4,16.77,1c9.69,6.88,10,12.83,10,12.83"/><path class="cls-3" d="M1100.54,358.72V319.39a19.24,19.24,0,0,1,11.86-17.77l28.29-11.77h0"/><path class="cls-3" d="M1026.46,347.25l62-110.07a14.76,14.76,0,0,1,7.23-6.41l189.62-78.57a8.27,8.27,0,0,1,11.43,7.64v17.87"/><path class="cls-3" d="M1017.37,337.56l60.16-106.85a25.47,25.47,0,0,1,12.45-11l180-74.59"/><path class="cls-3" d="M1058.1,80.28V34.87a21.64,21.64,0,0,1,14.61-20.47l27.57-9.47a76.78,76.78,0,0,1,82.32,21.62l83.84,94.33a14.52,14.52,0,0,1,3.68,9.79l-.13,14.42s9.67-4,16.77,1c9.69,6.88,10,12.83,10,12.83"/><path class="cls-3" d="M1108.14,259.64h0l-24.44,10.17a19.24,19.24,0,0,0-11.86,17.77v36.06"/><path class="cls-3" d="M1147,145.09l-60.89-67.78a10.82,10.82,0,0,0-11.71-3"/><path class="cls-3" d="M1068.46,23l95.12,109.26a6,6,0,0,1-2.36,9.5l-70.39,27.13a37.11,37.11,0,0,0-16.35,12.41c-7,9.41-17.93,24.11-22.92,31.09a25.28,25.28,0,0,0-3.36,22.18L1079,192.13a28.19,28.19,0,0,1,12.69-9.77l163-62.93A11.33,11.33,0,0,1,1270.12,130h0"/><line class="cls-3" x1="600.72" y1="1261.9" x2="569.8" y2="1275.29"/><line class="cls-3" x1="988.98" y1="1093.73" x2="911.47" y2="1127.3"/><path class="cls-4" d="M1086.13,1051.65l84.75-36.71,20.83,6.82a16.23,16.23,0,0,0,8.87.34,16.46,16.46,0,0,0,2.62-.88l411.18-178.13A40.8,40.8,0,0,0,1639,805.64V561.82a57.38,57.38,0,0,0-14.49-38.11l-74.3-83.6"/><line class="cls-3" x1="812.2" y1="1170.3" x2="726.96" y2="1207.22"/><path class="cls-3" d="M990,359.25a14.17,14.17,0,0,0,8.87-13.14V204.88a1.5,1.5,0,0,1,2.65-1l4.91,5.82,49.72,58.94"/><line class="cls-3" x1="1084.11" y1="301.82" x2="1071.83" y2="287.27"/><line class="cls-3" x1="1141.68" y1="370.06" x2="1130.16" y2="356.4"/><line class="cls-3" x1="1395.8" y1="826.05" x2="1395.8" y2="827.07"/><polyline class="cls-3" points="1279.35 533.25 1279.35 533.26 1290.21 546.13"/><line class="cls-3" x1="1259.31" y1="509.49" x2="1248.63" y2="496.83"/><line class="cls-3" x1="1229.35" y1="473.98" x2="1218.5" y2="461.12"/><line class="cls-3" x1="1199.74" y1="438.88" x2="1189.39" y2="426.61"/><line class="cls-3" x1="1170.86" y1="404.64" x2="1159.77" y2="391.5"/><line class="cls-3" x1="1113.18" y1="336.27" x2="1100.54" y2="321.29"/><path class="cls-3" d="M1006.43,209.74V350.23a14.18,14.18,0,0,1-8.87,13.15"/><ellipse class="cls-3" cx="1446.01" cy="594.65" rx="17.68" ry="13.06"/><ellipse class="cls-3" cx="1046.7" cy="124.6" rx="15.76" ry="11.88"/><path class="cls-3" d="M600.72,1261.9v-27.61a15.76,15.76,0,0,1,9.44-14.43L710.45,1176A11.79,11.79,0,0,1,727,1186.84v20.38l85.24-36.92V1145a17.82,17.82,0,0,1,10.74-16.35l78.85-34.1a6.93,6.93,0,0,1,9.68,6.36v26.42L989,1093.73v-28.39a15.21,15.21,0,0,1,9.31-14l79.46-33.36a6,6,0,0,1,8.38,5.57v28.12"/><path class="cls-3" d="M650.22,1142.32l21.51-9.18h0l3.94-1.68"/><polyline class="cls-3" points="762.21 1094.51 765.47 1093.11 766.06 1092.87"/><polyline class="cls-3" points="831.35 1064.99 852.86 1055.81 856.79 1054.13"/><line class="cls-3" x1="942.9" y1="1017.36" x2="921.39" y2="1026.54"/><polyline class="cls-3" points="1011.44 988.1 1032.95 978.9 1036.87 977.24"/><polyline class="cls-3" points="1079.31 959.11 1077.97 959.67 1056.46 968.87"/><polyline class="cls-3" points="991.85 996.47 987.93 998.13 966.42 1007.33"/><line class="cls-3" x1="897.88" y1="1036.58" x2="876.37" y2="1045.76"/><path class="cls-3" d="M811.77,1073.34l-4.62,2h0l-9.54,4.07-11.75,5-.23.1"/><polyline class="cls-3" points="721.2 1112.02 716.75 1113.91 695.24 1123.11"/><polyline class="cls-3" points="630.65 1150.68 625.7 1152.8 608.39 1160.18 604.42 1161.91 604.19 1162.02"/><polyline class="cls-3" points="671.74 1133.16 650.45 1142.26 650.23 1142.36 650.22 1142.36"/><path class="cls-3" d="M404.52,1234.56a48.15,48.15,0,0,0,58.9,17.44l105.1-44.89"/><path class="cls-3" d="M1574.3,586.41s70.15-20.78,43.78-64.3"/><line class="cls-3" x1="1152.77" y1="350.37" x2="1140.33" y2="335.88"/><line class="cls-3" x1="1182.14" y1="384.61" x2="1168.42" y2="368.61"/><line class="cls-3" x1="1211.22" y1="418.5" x2="1197.64" y2="402.67"/><line class="cls-3" x1="1241.02" y1="453.24" x2="1226.7" y2="436.54"/><line class="cls-3" x1="1271.19" y1="488.39" x2="1256.32" y2="471.07"/><line class="cls-3" x1="1304.87" y1="527.65" x2="1286.08" y2="505.75"/><line class="cls-3" x1="1124.07" y1="316.92" x2="1111.35" y2="302.1"/><line class="cls-3" x1="1094.81" y1="282.82" x2="1083.66" y2="269.82"/><line class="cls-3" x1="1066.66" y1="250.01" x2="1051.32" y2="232.14"/><polyline class="cls-3" points="1120.66 976.61 1120.66 941.39 1109.75 927.41"/><path class="cls-3" d="M1099.11,985.82V952.15a4.71,4.71,0,0,0-.92-2.79l-8.63-11.66a2.83,2.83,0,0,0-2.51-1.14l-6.29.49a1.58,1.58,0,0,0-1.46,1.57v22.51Z"/><path class="cls-3" d="M1120.66,976.61V943.1a5,5,0,0,0-1.05-3.05l-8.92-11.43a2.82,2.82,0,0,0-2.47-1.09l-4.24.33a21.45,21.45,0,0,0-6.82,1.67l-14.06,6s-3.8,1.47-3.8,2.84"/><line class="cls-3" x1="1088.08" y1="936.67" x2="1109.23" y2="927.63"/><line class="cls-3" x1="1099.11" y1="950.6" x2="1120.39" y2="941.51"/><path class="cls-3" d="M1056.67,1004V970.28a4.71,4.71,0,0,0-.92-2.79l-8.63-11.66a2.86,2.86,0,0,0-2.51-1.15l-6.29.49a1.59,1.59,0,0,0-1.46,1.58v22.5Z"/><path class="cls-3" d="M1078.22,994.74V961.23a5,5,0,0,0-1-3.05l-8.92-11.44a2.83,2.83,0,0,0-2.47-1.08l-4.23.32a21.73,21.73,0,0,0-6.83,1.68l-14.06,6s-3.8,1.47-3.8,2.84"/><line class="cls-3" x1="1045.64" y1="954.8" x2="1066.79" y2="945.76"/><line class="cls-3" x1="1056.67" y1="968.73" x2="1077.95" y2="959.64"/><path class="cls-3" d="M1011.65,1023.18V989.51a4.71,4.71,0,0,0-.92-2.79l-8.63-11.66a2.83,2.83,0,0,0-2.51-1.14l-6.29.49a1.58,1.58,0,0,0-1.46,1.57v22.51Z"/><path class="cls-3" d="M1033.2,1014V980.46a5,5,0,0,0-1-3.05L1023.23,966a2.8,2.8,0,0,0-2.46-1.09l-4.24.33a21.45,21.45,0,0,0-6.83,1.67l-14.06,6s-3.8,1.47-3.8,2.84"/><line class="cls-3" x1="1000.62" y1="974.03" x2="1021.77" y2="964.99"/><line class="cls-3" x1="1011.65" y1="987.96" x2="1032.93" y2="978.87"/><path class="cls-3" d="M966.63,1008.73v33.67l-19.8-24.69v-22.5a1.6,1.6,0,0,1,.42-1.08,1.63,1.63,0,0,1,1-.5l6.28-.49a2.75,2.75,0,0,1,1,.11,2.88,2.88,0,0,1,1.48,1l8.63,11.65A4.69,4.69,0,0,1,966.63,1008.73Z"/><path class="cls-3" d="M947.25,994.13a1.3,1.3,0,0,0-.42.84"/><path class="cls-3" d="M951.26,991.85l13.42-5.73a21.8,21.8,0,0,1,6.83-1.68l4.24-.33a2.59,2.59,0,0,1,1,.11,2.87,2.87,0,0,1,1.47,1l8.91,11.44a5.12,5.12,0,0,1,.79,1.45,5,5,0,0,1,.26,1.59v33.52"/><line class="cls-3" x1="955.6" y1="993.26" x2="976.75" y2="984.22"/><line class="cls-3" x1="966.63" y1="1007.19" x2="987.91" y2="998.1"/><path class="cls-3" d="M921.61,1028v33.68l-19.8-24.7v-22.5a1.58,1.58,0,0,1,1.46-1.58l6.28-.49a2.75,2.75,0,0,1,1,.11,2.88,2.88,0,0,1,1.48,1l8.63,11.65a4.69,4.69,0,0,1,.92,2.79Z"/><path class="cls-3" d="M901.81,1014.2c0-1.37,3.79-2.84,3.79-2.84l14.06-6a21.8,21.8,0,0,1,6.83-1.68l4.24-.33a2.59,2.59,0,0,1,1,.11"/><path class="cls-3" d="M942.9,1017.36a4.82,4.82,0,0,1,.26,1.56v33.51"/><line class="cls-3" x1="921.61" y1="1026.42" x2="942.9" y2="1017.33"/><path class="cls-3" d="M876.59,1080.87V1047.2a4.76,4.76,0,0,0-.92-2.79L867,1032.76a2.83,2.83,0,0,0-2.51-1.15l-6.29.49a1.57,1.57,0,0,0-1.45,1.57v22.51Z"/><path class="cls-3" d="M856.79,1033.43a1.3,1.3,0,0,1,.42-.84,7.68,7.68,0,0,1,2.11-1.43"/><path class="cls-3" d="M897.88,1036.58a4.88,4.88,0,0,1,.26,1.57v33.51"/><line class="cls-3" x1="865.56" y1="1031.72" x2="886.71" y2="1022.68"/><line class="cls-3" x1="876.59" y1="1045.65" x2="897.88" y2="1036.56"/><path class="cls-3" d="M831.57,1100.1v-33.67a4.69,4.69,0,0,0-.92-2.79L822,1052a2.83,2.83,0,0,0-2.51-1.15l-6.29.49a1.57,1.57,0,0,0-1.45,1.58v22.5Z"/><path class="cls-3" d="M853.12,1090.9v-33.52a5,5,0,0,0-1-3.05l-8.92-11.43a2.85,2.85,0,0,0-2.46-1.09l-4.24.33a21.46,21.46,0,0,0-6.83,1.68l-14.06,6s-3.79,1.47-3.79,2.85"/><line class="cls-3" x1="820.54" y1="1050.95" x2="841.69" y2="1041.91"/><line class="cls-3" x1="831.57" y1="1064.88" x2="852.86" y2="1055.79"/><path class="cls-3" d="M785.86,1119.63V1086a4.65,4.65,0,0,0-.92-2.79l-8.63-11.66a2.83,2.83,0,0,0-2.51-1.14l-6.28.49a1.57,1.57,0,0,0-1.46,1.57v22.51Z"/><path class="cls-3" d="M807.41,1110.42v-33.51a5,5,0,0,0-1-3.05l-8.91-11.43a2.83,2.83,0,0,0-2.47-1.09l-4.24.33a21.51,21.51,0,0,0-6.83,1.67l-14.06,6s-3.79,1.47-3.79,2.84"/><line class="cls-3" x1="774.83" y1="1070.48" x2="795.98" y2="1061.44"/><line class="cls-3" x1="785.86" y1="1084.41" x2="807.15" y2="1075.32"/><path class="cls-3" d="M741,1139v-33.67a4.67,4.67,0,0,0-.92-2.79l-8.62-11.66a2.87,2.87,0,0,0-2.51-1.14l-6.29.49a1.58,1.58,0,0,0-1.46,1.57v22.51Z"/><path class="cls-3" d="M762.55,1129.8v-33.51a5,5,0,0,0-1-3l-8.92-11.43a2.82,2.82,0,0,0-2.47-1.09l-4.24.33a21.72,21.72,0,0,0-6.82,1.67l-14.06,6s-3.8,1.47-3.8,2.84"/><line class="cls-3" x1="729.97" y1="1089.86" x2="751.12" y2="1080.82"/><line class="cls-3" x1="740.99" y1="1103.79" x2="762.28" y2="1094.7"/><path class="cls-3" d="M695.47,1158.24v-33.67a4.76,4.76,0,0,0-.92-2.79l-8.63-11.65a2.83,2.83,0,0,0-2.51-1.15l-6.29.49a1.58,1.58,0,0,0-1.46,1.57v22.51Z"/><path class="cls-3" d="M717,1149v-33.51a5,5,0,0,0-1-3L707.05,1101a2.83,2.83,0,0,0-2.47-1.09l-4.23.33a21.71,21.71,0,0,0-6.83,1.67l-14.06,6s-3.8,1.47-3.8,2.85"/><line class="cls-3" x1="684.44" y1="1109.09" x2="705.59" y2="1100.05"/><line class="cls-3" x1="695.47" y1="1123.02" x2="716.75" y2="1113.93"/><path class="cls-3" d="M650.45,1177.47V1143.8a4.76,4.76,0,0,0-.92-2.79l-8.63-11.65a2.83,2.83,0,0,0-2.51-1.15l-6.29.49a1.58,1.58,0,0,0-1.46,1.58v22.5Z"/><path class="cls-3" d="M672,1168.27v-33.52a5,5,0,0,0-1-3L662,1120.27a2.85,2.85,0,0,0-2.46-1.09l-4.24.33a21.46,21.46,0,0,0-6.83,1.68l-14.06,6s-3.8,1.47-3.8,2.85"/><line class="cls-3" x1="639.42" y1="1128.32" x2="660.57" y2="1119.28"/><line class="cls-3" x1="650.45" y1="1142.25" x2="671.73" y2="1133.16"/><path class="cls-3" d="M604.42,1197.13v-33.67a4.69,4.69,0,0,0-.92-2.79L594.87,1149a2.86,2.86,0,0,0-2.51-1.15l-6.29.49a1.58,1.58,0,0,0-1.45,1.58v22.5Z"/><path class="cls-3" d="M626,1187.93v-33.51a5,5,0,0,0-1.05-3.05L616,1139.93a2.85,2.85,0,0,0-2.46-1.09l-4.24.33a21.8,21.8,0,0,0-6.83,1.68l-14.06,6s-3.79,1.48-3.79,2.85"/><line class="cls-3" x1="593.39" y1="1147.98" x2="614.54" y2="1138.95"/><line class="cls-3" x1="604.42" y1="1161.92" x2="625.71" y2="1152.82"/><polyline class="cls-3" points="561.98 1160.27 562.57 1161.14 562.65 1161.27 572.34 1175.63"/><polyline class="cls-3" points="625.97 1187.92 650.44 1177.46 650.45 1177.45"/><polyline class="cls-3" points="717.02 1149.01 740.85 1138.82 741 1138.76"/><polyline class="cls-3" points="807.41 1110.37 831.53 1100.06 831.57 1100.04"/><polyline class="cls-3" points="898.14 1071.59 921.55 1061.58 921.61 1061.56"/><polyline class="cls-3" points="988.18 1033.1 1011.58 1023.1 1011.65 1023.07"/><polyline class="cls-3" points="1078.22 994.62 1099.03 985.72 1099.11 985.68"/><line class="cls-3" x1="1142.93" y1="966.95" x2="1120.66" y2="976.47"/><polyline class="cls-3" points="1056.67 1003.83 1056.6 1003.86 1033.2 1013.86"/><polyline class="cls-3" points="966.63 1042.31 966.57 1042.34 943.16 1052.35"/><polyline class="cls-3" points="876.59 1080.8 876.54 1080.82 853.12 1090.83"/><polyline class="cls-3" points="785.86 1119.58 785.83 1119.59 762.55 1129.55"/><polyline class="cls-3" points="695.47 1158.21 695.45 1158.22 672 1168.24"/><path class="cls-3" d="M1120.66,954.8h13.18V920.28l27.62-11.5a30.76,30.76,0,0,1,17.91-1.75l15.49,3.12a9,9,0,0,0,5.36-.56L1540.4,764.28A16.59,16.59,0,0,0,1550.48,749V627.81A39.36,39.36,0,0,0,1540.8,602l-95-109.15a9,9,0,0,0-10-2.48c-21.45,8.32-95,36.83-106.18,41a100.3,100.3,0,0,0-21.92,11.31"/><path class="cls-3" d="M1550.18,440.12l-17.37-19.55a27.85,27.85,0,0,0-31.5-7.21l-151.22,62.81a27.75,27.75,0,0,0-10.65,7.8c-7.59,9-23.1,27.44-30.52,36.44-10,12.19-1.2,22.25-1.2,22.25l33.77-45.35a20.15,20.15,0,0,1,8.49-6.59l88.93-36.42a8.27,8.27,0,0,1,9.35,2.2l108,123.36a54.94,54.94,0,0,1,13.52,39.27V755.29a26.61,26.61,0,0,1-16.12,23l-343.06,146a24.45,24.45,0,0,1-14.41,1.47l-22.7-4.57a12,12,0,0,0-7.06.73l-23.6,10.08"/><path class="cls-3" d="M.75,654.47V683.2l6.33,48.34a46.77,46.77,0,0,0,7.56,20l222.12,330.7a11.39,11.39,0,0,0,9.45,5H258.8a8.63,8.63,0,0,1,7.16,3.81L388,1272.85a71.78,71.78,0,0,0,87.67,26l58.83-25a8.36,8.36,0,0,1,8.63,1.27l20.47,17a3.77,3.77,0,0,0,6.18-2.89v-14"/><path class="cls-3" d="M1279.35,533.26l.3-13.15a19.25,19.25,0,0,1,11.85-17.77l50.44-21"/><line class="cls-3" x1="1290.21" y1="546.12" x2="1262.88" y2="594.65"/><polyline class="cls-3" points="604.42 1197.13 572.33 1210.99 572.33 1175.62"/><path class="cls-3" d="M1048.2,234.57s7.54-6.35,14.64-9.24,174.65-69.79,174.65-69.79,6.24-2.55,6.24,0"/><polyline class="cls-3" points="1133.84 954.79 1142.92 966.96 1142.92 931.92 1133.84 920.27"/><line class="cls-3" x1="1200.58" y1="930.12" x2="1200.58" y2="1022.68"/><line class="cls-3" x1="1171.22" y1="930.12" x2="1171.22" y2="1014.95"/><path class="cls-3" d="M3.9,638.1s0,0,0,0c-.36.92-.69,1.87-1,2.82a45.82,45.82,0,0,0,5.71,39.5l379.45,565.15a68,68,0,0,0,83.17,24.62l98.58-42.1h0"/><polyline class="cls-3" points="568.52 1207.11 569.8 1228.14 569.64 1290.38"/><path class="cls-4" d="M1218.5,493.24l35.83-63.64a25.6,25.6,0,0,1,7-7.94h0a25.64,25.64,0,0,1,5.45-3.09l176.61-73.17,3.4-1.41"/><path class="cls-4" d="M1477.81,377.62l-180,74.59a25.52,25.52,0,0,0-12.44,11"/><path class="cls-4" d="M1189.39,457.27l34.81-61.83a25.7,25.7,0,0,1,5.18-6.45,25.41,25.41,0,0,1,7.27-4.58l177.64-73.61,2.37-1"/><path class="cls-4" d="M1159.77,424.33l35.33-62.74a25.5,25.5,0,0,1,5.5-6.75h0a25.37,25.37,0,0,1,6.93-4.29l177.13-73.39,2.89-1.2"/><path class="cls-4" d="M1357.94,242.17l-2.89,1.2-177.12,73.39a25.22,25.22,0,0,0-10.1,7.58h0a25.5,25.5,0,0,0-2.34,3.45l-12.71,22.58-11.09,19.69-11.52,20.47"/><path class="cls-4" d="M1100.54,358.72,1135.86,296a25.11,25.11,0,0,1,4.83-6.13h0a25.2,25.2,0,0,1,7.61-4.9l177.12-73.39,2.89-1.2"/><path class="cls-4" d="M1071.83,323.64l34.41-61.12a25.52,25.52,0,0,1,1.89-2.88h0a25.41,25.41,0,0,1,10.55-8.16l178-73.77,2-.82"/><path class="cls-4" d="M1077.53,230.71a25.47,25.47,0,0,1,12.45-11l180-74.59"/><path class="cls-4" d="M1068.46,23l95.12,109.26a6,6,0,0,1-2.36,9.5l-70.39,27.13a37.11,37.11,0,0,0-16.35,12.41c-7,9.41-17.93,24.11-22.92,31.09a25.28,25.28,0,0,0-3.36,22.18L1079,192.13a28.19,28.19,0,0,1,12.69-9.77l163-62.93A11.33,11.33,0,0,1,1270.12,130h0"/><ellipse class="cls-4" cx="1446.01" cy="594.65" rx="17.68" ry="13.06"/><path class="cls-4" d="M1550.18,440.12l-17.37-19.55a27.85,27.85,0,0,0-31.5-7.21l-151.22,62.81a27.75,27.75,0,0,0-10.65,7.8c-7.59,9-23.1,27.44-30.52,36.44-10,12.19-1.2,22.25-1.2,22.25l33.77-45.35a20.15,20.15,0,0,1,8.49-6.59l88.93-36.42a8.27,8.27,0,0,1,9.35,2.2l108,123.36a54.94,54.94,0,0,1,13.52,39.27V755.29a26.61,26.61,0,0,1-16.12,23l-343.06,146a24.45,24.45,0,0,1-14.41,1.47l-22.7-4.57a12,12,0,0,0-7.06.73l-23.6,10.08"/><path class="cls-2" d="M1462.28,568.17c0-6.12-7.3-11.09-16.27-11.09-8.82,0-16,4.81-16.25,10.78a.11.11,0,0,0,0,.06v.24h0v1.71c0,3.22,2,6.11,5.24,8.14v20.68c0,4.15,4.94,7.54,11,7.54s11-3.39,11-7.54V578c3.21-2,5.24-4.92,5.24-8.14v-1.37s0,0,0,0S1462.28,568.27,1462.28,568.17Z"/><path class="cls-2" d="M1063,97.32c0-6.12-7.3-11.09-16.27-11.09-8.82,0-16,4.81-16.25,10.78a.11.11,0,0,0,0,.06v.24h0v1.72c0,3.21,2,6.1,5.24,8.13v20.68c0,4.15,4.94,7.54,11,7.54s11-3.39,11-7.54V107.18c3.21-2,5.24-4.92,5.24-8.13V97.67s0,0,0,0S1063,97.42,1063,97.32Z"/><ellipse class="cls-3" cx="1446.01" cy="568.17" rx="16.02" ry="10.85"/><path class="cls-3" d="M1462,568.52v1.37c0,6-7.17,10.85-16,10.85s-16-4.86-16-10.85v-2"/><path class="cls-3" d="M1435.23,598.7c0,4,4.83,7.29,10.78,7.29s10.78-3.26,10.78-7.29"/><path class="cls-3" d="M1435.23,596c0,4,4.83,7.29,10.78,7.29s10.78-3.26,10.78-7.29"/><path class="cls-3" d="M1435.23,593.22c0,4,4.83,7.29,10.78,7.29s10.78-3.26,10.78-7.29"/><path class="cls-3" d="M1435.23,590.48c0,4,4.83,7.29,10.78,7.29s10.78-3.26,10.78-7.29"/><path class="cls-3" d="M1435.23,587.74c0,4,4.83,7.29,10.78,7.29s10.78-3.26,10.78-7.29"/><path class="cls-3" d="M1435.23,585c0,4,4.83,7.29,10.78,7.29s10.78-3.26,10.78-7.29"/><path class="cls-3" d="M1435.23,582.26c0,4,4.83,7.29,10.78,7.29s10.78-3.26,10.78-7.29"/><path class="cls-3" d="M1435.23,579.52c0,4,4.83,7.29,10.78,7.29s10.78-3.26,10.78-7.29"/><path class="cls-3" d="M1435.38,578c.86,3.45,5.29,6.07,10.63,6.07s9.77-2.62,10.63-6.07"/><path class="cls-8" d="M1458.06,564.64a8.54,8.54,0,0,0-2.2-2.35l-8.2,3.34a1.93,1.93,0,0,1-2.15-.49l-4.63-5.13a15.65,15.65,0,0,0-3,1.18l4.76,5.26a.85.85,0,0,1-.31,1.35l-8.38,3.4a8.81,8.81,0,0,0,2.2,2.34l8-3.26a2.14,2.14,0,0,1,2.42.55l4.53,5a14.12,14.12,0,0,0,3-1.17l-4.65-5.13a.94.94,0,0,1,.35-1.51Z"/><polyline class="cls-3" points="1435.23 577.91 1435.23 579.52 1435.23 582.26 1435.23 598.71"/><polyline class="cls-3" points="1456.79 577.91 1456.79 579.52 1456.79 582.26 1456.79 598.71"/><ellipse class="cls-3" cx="1046.7" cy="97.32" rx="16.02" ry="10.85"/><path class="cls-3" d="M1062.72,97.67v1.38c0,6-7.17,10.85-16,10.85s-16-4.86-16-10.85v-2"/><path class="cls-3" d="M1035.92,127.86c0,4,4.83,7.29,10.78,7.29s10.78-3.26,10.78-7.29"/><path class="cls-3" d="M1035.92,125.12c0,4,4.83,7.29,10.78,7.29s10.78-3.26,10.78-7.29"/><path class="cls-3" d="M1035.92,122.37c0,4,4.83,7.29,10.78,7.29s10.78-3.26,10.78-7.29"/><path class="cls-3" d="M1035.92,119.63c0,4,4.83,7.29,10.78,7.29s10.78-3.26,10.78-7.29"/><path class="cls-3" d="M1035.92,116.89c0,4,4.83,7.29,10.78,7.29s10.78-3.26,10.78-7.29"/><path class="cls-3" d="M1035.92,114.15c0,4,4.83,7.29,10.78,7.29s10.78-3.26,10.78-7.29"/><path class="cls-3" d="M1035.92,111.41c0,4,4.83,7.29,10.78,7.29s10.78-3.26,10.78-7.29"/><path class="cls-3" d="M1035.92,108.67c0,4,4.83,7.29,10.78,7.29s10.78-3.26,10.78-7.29"/><path class="cls-3" d="M1036.07,107.16c.86,3.45,5.29,6.07,10.63,6.07s9.77-2.62,10.63-6.07"/><path class="cls-8" d="M1058.75,93.8a8.54,8.54,0,0,0-2.2-2.35l-8.2,3.33a1.93,1.93,0,0,1-2.15-.49l-4.63-5.12a15.65,15.65,0,0,0-3,1.18l4.75,5.25A.84.84,0,0,1,1043,97l-8.38,3.41a8.81,8.81,0,0,0,2.2,2.34l8-3.27a2.14,2.14,0,0,1,2.42.55l4.53,5a14.12,14.12,0,0,0,3-1.17l-4.65-5.14a.94.94,0,0,1,.35-1.51Z"/><polyline class="cls-3" points="1035.92 107.06 1035.92 108.67 1035.92 111.42 1035.92 127.86"/><polyline class="cls-3" points="1057.48 107.06 1057.48 108.67 1057.48 111.42 1057.48 127.86"/><path class="cls-6" d="M1462.28,568.17c0-6.12-7.3-11.09-16.27-11.09-8.82,0-16,4.81-16.25,10.78a.11.11,0,0,0,0,.06v.24h0v1.71c0,3.22,2,6.11,5.24,8.14v20.68c0,4.15,4.94,7.54,11,7.54s11-3.39,11-7.54V578c3.21-2,5.24-4.92,5.24-8.14v-1.37s0,0,0,0S1462.28,568.27,1462.28,568.17Z"/><path class="cls-6" d="M1063,97.32c0-6.12-7.3-11.09-16.27-11.09-8.82,0-16,4.81-16.25,10.78a.11.11,0,0,0,0,.06v.24h0v1.72c0,3.21,2,6.1,5.24,8.13v20.68c0,4.15,4.94,7.54,11,7.54s11-3.39,11-7.54V107.18c3.21-2,5.24-4.92,5.24-8.13V97.67s0,0,0,0S1063,97.42,1063,97.32Z"/><path class="cls-2" d="M1556.39,580.53,1457,467.06l-106.39,42.38a87.44,87.44,0,0,1-99.07-24.63L1038.94,234.57a44.08,44.08,0,0,1-9.85-20.82.54.54,0,0,1,0-.18A43.75,43.75,0,0,1,1057,179.81l101.53-38.21V127.31l-94.74-108.6L96.45,386.54c-57.8,24.59-68.73,36.51-68.83,36.63a.61.61,0,0,1-.16.12A47.36,47.36,0,0,0,11,444.45l0,0a.11.11,0,0,1,0,.06c0,.12-.1.26-.14.39l.07,0a.5.5,0,0,1,.1.7c-.3.4-.57.83-.86,1.24,0,.13-.09.25-.13.39a.49.49,0,0,1-.36.31,45.93,45.93,0,0,0-4.75,9l0,0a.11.11,0,0,1,0,.06c-3.78,9.9-3.09,23.38-3.08,23.51V655.48a45.28,45.28,0,0,0,7.76,25.07L389,1245.7a67.5,67.5,0,0,0,82.56,24.44l98.4-42,17.69-37.89a.49.49,0,0,1,.26-.25L1554,778.15h0a26,26,0,0,0,15.79-22.54V619.48A54.16,54.16,0,0,0,1556.39,580.53ZM1046.7,85.05c10.44,0,18.91,5.85,18.91,13.06s-8.47,13.07-18.91,13.07-18.91-5.85-18.91-13.07S1036.26,85.05,1046.7,85.05ZM1446,582.53c-11.72,0-21.22-6.43-21.22-14.36s9.5-14.37,21.22-14.37,21.22,6.43,21.22,14.37S1457.73,582.53,1446,582.53Z"/><line class="cls-3" x1="1559.31" y1="592.05" x2="569.8" y2="1008.25"/><path class="cls-3" d="M569.8,1008.23h0l-98.58,42.1a68,68,0,0,1-83.17-24.62L8.6,497a45.82,45.82,0,0,1-5.71-39.5c.3-.95.63-1.9,1-2.82,0,0,0,0,0-.05a47,47,0,0,1,6.17-11.11"/><line class="cls-3" x1="569.8" y1="987.59" x2="1550.48" y2="579.16"/><path class="cls-3" d="M1158.56,126.49l-95.08-109L95.79,385.43h0c-58.75,25-69.05,36.78-69.05,36.78l0,0A47.46,47.46,0,0,0,10,443.64s0,0,0,.05c-.36.92-.69,1.87-1,2.82A45.82,45.82,0,0,0,14.71,486l373.34,519.06a68,68,0,0,0,83.17,24.62l98.58-42.1h0"/><path class="cls-3" d="M569.8,1228.13h0l-98.58,42.1a68,68,0,0,1-83.17-24.62L8.6,680.47A45.83,45.83,0,0,1,.75,655.08v-.23"/><ellipse class="cls-3" cx="1446.01" cy="568.17" rx="21.22" ry="14.36"/><ellipse class="cls-3" cx="1046.7" cy="98.12" rx="18.91" ry="13.06"/><path class="cls-3" d="M1029.08,213.31a43.64,43.64,0,0,1,27.63-48.49l101.85-38.33V141.6l-101.85,38.33a43.37,43.37,0,0,0-27.63,33.38,43.34,43.34,0,0,0,9.74,20.59l212.64,250.24a87,87,0,0,0,98.5,24.49l106.72-42.52,99.59,113.74a54.94,54.94,0,0,1,13.51,39.28V755.28a26.62,26.62,0,0,1-16.12,23h0L587.56,1190.09l-17.76,38.05"/><line class="cls-3" x1="0.75" y1="655.08" x2="0.75" y2="478.4"/><line class="cls-3" x1="1559.31" y1="592.05" x2="569.8" y2="1008.25"/><path class="cls-3" d="M569.8,1008.23h0l-98.58,42.1a68,68,0,0,1-83.17-24.62L8.6,497a45.82,45.82,0,0,1-5.71-39.5c.3-.95.63-1.9,1-2.82,0,0,0,0,0-.05a47,47,0,0,1,6.17-11.11"/><path class="cls-3" d="M569.8,1228.13h0l-98.58,42.1a68,68,0,0,1-83.17-24.62L8.6,680.47A45.83,45.83,0,0,1,.75,655.08v-.23"/><ellipse class="cls-3" cx="1446.01" cy="568.17" rx="21.22" ry="14.36"/><ellipse class="cls-3" cx="1046.7" cy="98.12" rx="18.91" ry="13.06"/><path class="cls-3" d="M1029.08,213.31a43.64,43.64,0,0,1,27.63-48.49l101.85-38.33V141.6l-101.85,38.33a43.37,43.37,0,0,0-27.63,33.38,43.34,43.34,0,0,0,9.74,20.59l212.64,250.24a87,87,0,0,0,98.5,24.49l106.72-42.52,99.59,113.74a54.94,54.94,0,0,1,13.51,39.28V755.28a26.62,26.62,0,0,1-16.12,23h0L587.56,1190.09l-17.76,38.05"/><line class="cls-3" x1="0.75" y1="655.08" x2="0.75" y2="478.4"/><path class="cls-9" d="M.75,656.61V479.93S0,466.33,3.88,456.17c0,0,0,0,0-.05,1.55-4,3.43-8.59,6-12"/><path class="cls-9" d="M1158.5,126.78l-95.08-109L95.73,385.72h0c-58.74,25-69.05,36.78-69.05,36.78l0,0A47.46,47.46,0,0,0,10,443.92"/><path class="cls-9" d="M569.8,1228.14h0l-98.58,42.1a68,68,0,0,1-83.17-24.62L8.6,680.48A45.83,45.83,0,0,1,.75,655.09v-.23"/><path class="cls-9" d="M1158.56,126.49V141.6l-101.85,38.33a43.37,43.37,0,0,0-27.63,33.38,43.34,43.34,0,0,0,9.74,20.59l212.64,250.24a87,87,0,0,0,98.5,24.49l106.72-42.52,99.59,113.74a54.94,54.94,0,0,1,13.51,39.28V755.28a26.62,26.62,0,0,1-16.12,23h0L587.56,1190.09l-17.76,38.05"/></g></svg>