<svg xmlns="http://www.w3.org/2000/svg" viewBox="0 0 1640.44 1438.07"><defs><style>.cls-1{opacity:0.5;}.cls-2{fill:#040713;stroke-miterlimit:10;}.cls-2,.cls-3{stroke:#fff;}.cls-3{fill:none;stroke-linecap:round;stroke-linejoin:round;stroke-width:0.5px;}</style></defs><title>eth</title><g id="argon_caly" data-name="argon caly"><path class="cls-2" d="M538.84,298.06a.24.24,0,0,0-.22.14.24.24,0,0,0,0,.27c51.17,61.36,138.86,179.9,142.91,234.95,4.41,59.8-25,98.51-98.51,129.41-35.13,14.78-58.92,39.89-68.8,72.62-5.93,19.63-6.74,41.62-2.39,65.35,4.31,23.56,13.51,47.78,27.34,72a10.38,10.38,0,0,0-5.1,9v27a3.27,3.27,0,0,0,.15,1h0a.11.11,0,0,0,0,.08,3.24,3.24,0,0,0,1,1.48l5,7.27a3.39,3.39,0,0,0,4.58,2.18l1.77-.72v6.79a3.5,3.5,0,0,0,.27,1.35,3.25,3.25,0,0,0,.78,1.16L553,937a3.55,3.55,0,0,0,.94,1.36h0l0,0a3.61,3.61,0,0,0,2.35.89,3.42,3.42,0,0,0,1.36-.28l1.49-.6V945a3.44,3.44,0,0,0,.22,1.26,3.64,3.64,0,0,0,1,1.5l5.32,7.73.46.66h0A3.73,3.73,0,0,0,569,957.5a3.89,3.89,0,0,0,1.41-.28l1.29-.53v6.38a3.9,3.9,0,0,0,.43,1.78,3.65,3.65,0,0,0,.46.67l5.88,8.53,0,.07h0a3.88,3.88,0,0,0,3.13,1.59,4,4,0,0,0,1.47-.29l4.11-1.68v12.68s0,0,0,.06,0,.06,0,.09l35.51,50.78a.2.2,0,0,0,.08.08,1.49,1.49,0,0,0,.62.76,1.5,1.5,0,0,0,.76.21,1.34,1.34,0,0,0,.4-.06v.08s0,0,0,.08,0,.07,0,.09L658.56,1076a1.75,1.75,0,0,0,1.28.56,1.77,1.77,0,0,0,.67-.13.6.6,0,0,0,.11-.06l6.73-2.76,46.34,66.28,0,.05,0,0a.31.31,0,0,0,.12,0h0l.05,0,.08,0,13.87-5.68,0,0a.19.19,0,0,0,.07-.08.09.09,0,0,0,0-.06s0,0,0-.06v-7.87l3.93,5.5a1.14,1.14,0,0,0,1.73.22l1-.42a1.12,1.12,0,0,0,.71-.28l0,0a1.17,1.17,0,0,0,.34-.83v-6.48l3.37,4.87a1.15,1.15,0,0,0,1,.52,1.11,1.11,0,0,0,.75-.29l1-.43a1.08,1.08,0,0,0,.7-.29.1.1,0,0,0,0,0h0a1.15,1.15,0,0,0,.32-.81v-6.47l3.38,4.86a1.11,1.11,0,0,0,.94.52h0l.09,0h0a1.14,1.14,0,0,0,.62-.25h0l1.07-.44a1.1,1.1,0,0,0,.67-.28l0,0,0,0,0,0a1.17,1.17,0,0,0,.3-.78v-6.47l3.38,4.86a1.14,1.14,0,0,0,1,.52h0l.1,0h0a1.23,1.23,0,0,0,.64-.27l1-.41.1,0,0,0a1.15,1.15,0,0,0,.57-.26l0,0a1.16,1.16,0,0,0,.35-.83V1115l3.37,4.87a1.14,1.14,0,0,0,1,.52h0a.15.15,0,0,0,.09,0h0a1.12,1.12,0,0,0,.6-.25h0l1-.41.06,0h0a1.12,1.12,0,0,0,.6-.25h0l0,0a.1.1,0,0,0,0,0l0,0,0,0a1.2,1.2,0,0,0,.31-.79V1112l3.37,4.86a1.14,1.14,0,0,0,1,.52h.06a.18.18,0,0,0,.1,0h0a1.21,1.21,0,0,0,.49-.22h0l1.11-.45.07,0,0,0a1.07,1.07,0,0,0,.58-.26l.06,0a1.16,1.16,0,0,0,.34-.83v-6.47l3.37,4.86a1.14,1.14,0,0,0,1,.52h0a.18.18,0,0,0,.1,0h0a1.07,1.07,0,0,0,.5-.21h0l1.11-.45,0,0,0,0a1.06,1.06,0,0,0,.6-.26l.05,0a1.16,1.16,0,0,0,.34-.83v-6.48l3.37,4.87a1.14,1.14,0,0,0,1,.52h.07l.09,0,.05,0a1.28,1.28,0,0,0,.42-.17h0l0,0,1.15-.47,0,0,.05,0a1.1,1.1,0,0,0,.42-.17l11.85-4.87,0,0,.07-.07,0-.08s0,0,0,0v-30.59s0,0,0,0,0,0,0,0l0,0v0l-5-7.08v-5.74s0,0,0-.05,0,0,0,0l0,0v0l-67.72-100a7.72,7.72,0,0,0-.74-2.67l-16-32.67a22.12,22.12,0,0,0-15.43-12l-29.47-6.15s0,0-.07,0h-.08L654.25,912v-6.87a2.83,2.83,0,0,0-1-2.16l-7.17-7s0,0,0,0l0,0a2.22,2.22,0,0,0-.44-.42l0-.05h0a2.72,2.72,0,0,0-2.72-.36l-4.14,1.69v-7.09a2.56,2.56,0,0,0-.31-1.24,2.7,2.7,0,0,0-1.21-1.2L630.83,881h0a2.36,2.36,0,0,0-1.2-1.19l-.07-.05a2.59,2.59,0,0,0-2.13,0L623,881.55v-7.19a2.66,2.66,0,0,0-.32-1.27h0l0,0v0h0a2.59,2.59,0,0,0-.94-.92l-6.79-6.62,0,0h0l0,0h0a2.37,2.37,0,0,0-.62-.6h0l0,0,0,0a2.55,2.55,0,0,0-2.35-.21l-4.52,1.85V859a2.57,2.57,0,0,0-.4-1.38l0-.06,0,0h0a2.66,2.66,0,0,0-.56-.55l-6.94-6.76h0a2.4,2.4,0,0,0-.76-.76.2.2,0,0,0-.09-.06,2.37,2.37,0,0,0-2.15-.14l-19.63,8.05c-24.21-40.34-32.94-80.52-24-110.26,6.41-21.18,21.85-37.06,45.91-47.19,40.06-16.85,69.31-36.48,89.41-60,25.45-29.79,36.76-66.6,33.61-109.39-2.75-37.31-30.75-93.81-83.22-167.93-14.74-20.81-31-42.47-48.35-64.38a.25.25,0,0,0-.2-.09"/><path class="cls-2" d="M875,298.06a.24.24,0,0,0-.22.14.24.24,0,0,0,0,.27c51.17,61.36,138.85,179.89,142.91,234.95,4.4,59.8-25.06,98.51-98.52,129.41-35.12,14.78-58.91,39.89-68.8,72.62-11.84,39.18-3.18,87.61,24.39,136.38l-.72.29a10.38,10.38,0,0,0-6.46,9.65v27a3.27,3.27,0,0,0,.14,1h0a.11.11,0,0,0,0,.08,3.24,3.24,0,0,0,1,1.48l5,7.27a3.39,3.39,0,0,0,4.58,2.18l1.77-.72v6.79a3.5,3.5,0,0,0,.27,1.35,3.27,3.27,0,0,0,.79,1.16l5.27,7.65a3.66,3.66,0,0,0,.94,1.36h0l0,0a3.61,3.61,0,0,0,2.35.89,3.42,3.42,0,0,0,1.36-.28l1.49-.6V945a3.44,3.44,0,0,0,.23,1.26,3.53,3.53,0,0,0,1,1.5l5.32,7.73.46.66h0a3.7,3.7,0,0,0,2.82,1.31,3.89,3.89,0,0,0,1.41-.28l1.29-.53v6.38a3.78,3.78,0,0,0,.44,1.78,3.22,3.22,0,0,0,.46.67l5.88,8.53,0,.07h0a3.88,3.88,0,0,0,3.13,1.59,4,4,0,0,0,1.47-.29l4.11-1.68v12.68s0,0,0,.06a.15.15,0,0,0,0,.09l35.5,50.78a.2.2,0,0,0,.08.08,1.49,1.49,0,0,0,.62.76,1.5,1.5,0,0,0,.76.21,1.34,1.34,0,0,0,.4-.06v.08s0,0,0,.08,0,.07,0,.09L992,1076a1.72,1.72,0,0,0,1.27.56,1.74,1.74,0,0,0,.67-.13.6.6,0,0,0,.11-.06l6.73-2.76,46.34,66.28,0,.05,0,0a.22.22,0,0,0,.11,0h0l.06,0,.08,0,13.86-5.68,0,0a.2.2,0,0,0,.08-.08.14.14,0,0,0,0-.06s0,0,0-.06v-7.87l3.94,5.5a1.13,1.13,0,0,0,1.72.22l1-.42a1.16,1.16,0,0,0,.71-.28l0,0a1.15,1.15,0,0,0,.34-.83v-6.48l3.38,4.87a1.14,1.14,0,0,0,1,.52,1.16,1.16,0,0,0,.76-.29l1-.43a1.08,1.08,0,0,0,.7-.29.1.1,0,0,0,0,0h0a1.16,1.16,0,0,0,.33-.81v-6.47l3.37,4.86a1.12,1.12,0,0,0,.94.52h0l.1,0h0a1.11,1.11,0,0,0,.61-.25h0l1.08-.44a1.1,1.1,0,0,0,.66-.28l0,0,0,0,0,0a1.18,1.18,0,0,0,.31-.78v-6.47l3.37,4.86a1.14,1.14,0,0,0,1,.52h0l.1,0h0a1.19,1.19,0,0,0,.64-.27l1-.41.1,0,0,0a1.11,1.11,0,0,0,.57-.26l.06,0a1.17,1.17,0,0,0,.34-.83V1115l3.37,4.87a1.14,1.14,0,0,0,1,.52h0a.15.15,0,0,0,.09,0h0a1.12,1.12,0,0,0,.59-.25h0l1-.41.06,0h0a1.19,1.19,0,0,0,.61-.25h0l0,0,0,0v0l0,0a1.15,1.15,0,0,0,.31-.79V1112l3.37,4.86a1.14,1.14,0,0,0,1,.52h.06a.18.18,0,0,0,.1,0h0a1.09,1.09,0,0,0,.49-.22h0l1.11-.45.07,0,0,0a1.06,1.06,0,0,0,.58-.26l0,0a1.16,1.16,0,0,0,.34-.83v-6.47l3.37,4.86a1.14,1.14,0,0,0,1,.52h0a.16.16,0,0,0,.1,0h0a1.07,1.07,0,0,0,.5-.21h0l1.11-.45,0,0,.05,0a1.22,1.22,0,0,0,.59-.26l0,0a1.17,1.17,0,0,0,.34-.83v-6.48L1116,1111a1.14,1.14,0,0,0,1,.52h.07l.1,0,0,0a1.13,1.13,0,0,0,.42-.17h0l0,0,1.15-.47,0,0,.05,0a1.1,1.1,0,0,0,.42-.17l11.85-4.87,0,0,.07-.07a.11.11,0,0,0,0-.08s0,0,0,0v-30.59s0,0,0,0,0,0,0,0l0,0v0l-5-7.08v-5.74s0,0,0-.05,0,0,0,0l0,0v0l-67.72-100a7.71,7.71,0,0,0-.73-2.67l-16-32.67a22.12,22.12,0,0,0-15.43-12L997,908.21s0,0-.07,0h-.07L987.7,912v-6.87a2.83,2.83,0,0,0-1-2.16l-7.18-7h0v0a2.46,2.46,0,0,0-.43-.42l-.06-.05h0a2.72,2.72,0,0,0-2.72-.36l-4.14,1.69v-7.09a2.64,2.64,0,0,0-.3-1.24,2.77,2.77,0,0,0-1.22-1.2L964.28,881h0a2.36,2.36,0,0,0-1.2-1.19l-.07-.05a2.59,2.59,0,0,0-2.13,0l-4.4,1.81v-7.19a2.56,2.56,0,0,0-.33-1.27h0l0,0v0h0a2.7,2.7,0,0,0-1-.92l-6.79-6.62,0,0h0a2.44,2.44,0,0,0-.68-.68l0,0a2.54,2.54,0,0,0-2.35-.21l-4.52,1.85V859a2.57,2.57,0,0,0-.4-1.38l0-.06,0,0h0a3,3,0,0,0-.57-.55l-6.93-6.76h0a2.27,2.27,0,0,0-.75-.76l-.09-.06a2.39,2.39,0,0,0-2.16-.14l-17.5,7.18C888.1,815.82,879.78,777,888.82,747.06c6.41-21.18,21.85-37.06,45.91-47.19,40.08-16.86,69.32-36.49,89.4-60,25.46-29.8,36.77-66.61,33.61-109.39-2.74-37.29-30.74-93.79-83.21-167.93-14.78-20.87-31-42.54-48.36-64.38a.25.25,0,0,0-.2-.09"/><path class="cls-3" d="M783.58,1111.22h0l.49-.2,0,0,1.2-.49h0l.51-.22,11.81-4.84"/><path class="cls-3" d="M771.41,1116.21h0l-.54.23h0l-1.14.47h0l-.54.23h0"/><path class="cls-3" d="M757,1122.1h0l0,0-.54.25h0l-1.09.43h0l0,0-.59.25"/><polyline class="cls-3" points="742.56 1128.03 742.55 1128.03 741.9 1128.3 740.85 1128.73 740.83 1128.73 740.82 1128.74 740.19 1129"/><polyline class="cls-3" points="713.92 1139.77 713.92 1139.75 727.82 1134.06"/><polyline class="cls-3" points="660.23 1076.24 660.23 1076.23 667.45 1073.27"/><polyline class="cls-3" points="747.4 1126.04 747.42 1126.04 748.06 1125.77 748.07 1125.77 749.12 1125.34 749.78 1125.07 749.79 1125.07 749.8 1125.06"/><path class="cls-3" d="M761.86,1120.11h0l.59-.24,0,0h0l1-.43h0l.62-.26h0"/><path class="cls-3" d="M776.33,1114.18h0l.55-.23h0l1.15-.47h0l.55-.23h0"/><line class="cls-3" x1="787.94" y1="1086.35" x2="745.45" y2="1103.77"/><polyline class="cls-3" points="708.53 1032.01 713.57 1029.94 752.81 1013.85"/><path class="cls-3" d="M668,919.92c16.39-.35,31.92,11.29,33.74,19.14s-4.36,11.4-7.5,13.06-21.34,1.77-25.82.73-8.21-6.42-16.56-11.64-22.14-5.59-22.14-5.59l5-2.07,33.66-13.8"/><path class="cls-3" d="M701.61,944.75h0c-6.92-7.13-13.89-4.39-13.89-4.39l-23.91,9.79-.2.09"/><polyline class="cls-3" points="587.53 939.59 596.17 936.04 663.46 908.45"/><line class="cls-3" x1="741.11" y1="1118.11" x2="735.61" y2="1120.37"/><line class="cls-3" x1="755.55" y1="1112.2" x2="750.06" y2="1114.45"/><line class="cls-3" x1="770" y1="1106.27" x2="764.5" y2="1108.53"/><line class="cls-3" x1="784.44" y1="1100.35" x2="778.94" y2="1102.61"/><polyline class="cls-3" points="777.22 1103.31 771.72 1105.56 771.72 1105.57"/><line class="cls-3" x1="762.78" y1="1109.23" x2="757.27" y2="1111.48"/><polyline class="cls-3" points="742.83 1117.41 745.45 1116.34 748.34 1115.15"/><line class="cls-3" x1="733.89" y1="1121.07" x2="727.82" y2="1123.56"/><line class="cls-3" x1="741.36" y1="1097.91" x2="713.92" y2="1109.16"/><line class="cls-3" x1="797.63" y1="1074.86" x2="787.94" y2="1078.83"/><polyline class="cls-3" points="708.93 1096.2 713.92 1094.16 733.21 1086.25 736.37 1084.96"/><polyline class="cls-3" points="624.94 976.08 644.65 968 647.22 966.95"/><polyline class="cls-3" points="746.63 1080.76 772.62 1070.11 772.63 1070.11 774.27 1069.43 783.15 1065.78"/><line class="cls-3" x1="792.64" y1="1067.71" x2="787.94" y2="1069.64"/><polyline class="cls-3" points="708.93 1102.01 713.92 1099.97 736.37 1090.77"/><polyline class="cls-3" points="661.38 1064.6 661.38 1064.61 668.99 1075.48 691.81 1108.13 694.97 1112.65 708.22 1131.59 713.92 1139.75 713.92 1139.77"/><line class="cls-3" x1="587.53" y1="965.12" x2="578.08" y2="951.62"/><line class="cls-3" x1="559.42" y1="924.93" x2="553" y2="915.75"/><line class="cls-3" x1="546.91" y1="907.04" x2="540.41" y2="897.73"/><line class="cls-3" x1="571.99" y1="942.91" x2="565.56" y2="933.71"/><polyline class="cls-3" points="623.05 1037.24 623.05 1037.24 621.96 1035.68 619.43 1032.06 618.82 1031.19 587.53 986.44"/><line class="cls-3" x1="713.92" y1="1109.16" x2="708.93" y2="1102.01"/><line class="cls-3" x1="624.94" y1="976.08" x2="708.93" y2="1096.21"/><line class="cls-3" x1="708.53" y1="1045.15" x2="736.37" y2="1084.96"/><line class="cls-3" x1="724.46" y1="961.16" x2="792.64" y2="1061.89"/><polyline class="cls-3" points="745.45 1103.77 741.36 1097.91 736.37 1090.77"/><line class="cls-3" x1="797.63" y1="1074.86" x2="792.64" y2="1067.71"/><line class="cls-3" x1="713.92" y1="1139.77" x2="713.92" y2="1109.16"/><path class="cls-3" d="M624.94,1038.43l33.81,37.37a1.52,1.52,0,0,0,2.63-1V1064.6"/><line class="cls-3" x1="587.53" y1="986.43" x2="587.53" y2="939.59"/><path class="cls-3" d="M723.11,967.32a7.05,7.05,0,0,1-.3,1.76,7.43,7.43,0,0,1-1.13,2.27l-7.1,9.67a15.27,15.27,0,0,1-11.15,6.19c-7.13.52-17.79,1.19-22.47.81-7.36-.59-31.65-26.51-49.35-24.88-7.89.74-6.67,12-6.67,12v63.27"/><path class="cls-3" d="M627.72,949.83c22.09-1.79,47.68,33,55,33.65,4.68.37,15.34-.29,22.48-.83a15.21,15.21,0,0,0,11.14-6.18l7.1-9.67a7.43,7.43,0,0,0,.69-7.66l-16-32.67a22,22,0,0,0-15.26-11.86l-29.47-6.16"/><path class="cls-3" d="M624.88,1038a1.24,1.24,0,0,1-1.83-1.09V970l2.23-17.89"/><line class="cls-3" x1="727.83" y1="1134.06" x2="727.83" y2="1123.56"/><line class="cls-3" x1="708.53" y1="1045.15" x2="708.53" y2="1032"/><line class="cls-3" x1="797.63" y1="1105.45" x2="797.63" y2="1074.86"/><line class="cls-3" x1="792.64" y1="1067.71" x2="792.64" y2="1061.89"/><line class="cls-3" x1="708.93" y1="1102.01" x2="708.93" y2="1096.2"/><line class="cls-3" x1="736.37" y1="1090.77" x2="736.37" y2="1084.96"/><path class="cls-3" d="M708.53,1032l33,44a19.85,19.85,0,0,1,4,11.9v15.92"/><path class="cls-3" d="M752.8,1013.85l31.53,44.83a19.84,19.84,0,0,1,3.61,11.41v16.26"/><path class="cls-3" d="M741.11,1118.11v10a.93.93,0,0,1-.26.65h0a.88.88,0,0,1-.64.27.9.9,0,0,1-.75-.41l-3.83-5.53"/><path class="cls-3" d="M742.83,1117.41v10a.9.9,0,0,1-.27.66h0a.91.91,0,0,1-.65.27"/><line class="cls-3" x1="740.84" y1="1128.73" x2="742.55" y2="1128.03"/><path class="cls-3" d="M733.89,1121.08v10a.88.88,0,0,1-.27.64h0a.84.84,0,0,1-.64.27.9.9,0,0,1-.75-.41l-4.39-6.14"/><path class="cls-3" d="M735.61,1120.37v10a.88.88,0,0,1-.27.65h0a.88.88,0,0,1-.65.27"/><line class="cls-3" x1="733.62" y1="1131.69" x2="735.33" y2="1130.99"/><path class="cls-3" d="M741.11,1118.11v10a.93.93,0,0,1-.26.65h0a.88.88,0,0,1-.64.27.9.9,0,0,1-.75-.41l-3.83-5.53"/><path class="cls-3" d="M742.83,1117.41v10a.9.9,0,0,1-.27.66h0a.91.91,0,0,1-.65.27"/><line class="cls-3" x1="740.84" y1="1128.73" x2="742.55" y2="1128.03"/><path class="cls-3" d="M748.34,1115.15v10a.9.9,0,0,1-.27.64v0h0a.91.91,0,0,1-.65.26.88.88,0,0,1-.75-.4l-3.83-5.53"/><path class="cls-3" d="M750.05,1114.45v10a.9.9,0,0,1-.26.65h0a.88.88,0,0,1-.65.27"/><line class="cls-3" x1="748.06" y1="1125.76" x2="749.78" y2="1125.06"/><path class="cls-3" d="M755.56,1112.19v10a.92.92,0,0,1-.27.64h0a.89.89,0,0,1-1.39-.14l-3.84-5.53"/><path class="cls-3" d="M757.28,1111.48v10a.92.92,0,0,1-.27.65h0a.9.9,0,0,1-.66.27"/><line class="cls-3" x1="755.28" y1="1122.8" x2="757" y2="1122.1"/><path class="cls-3" d="M762.78,1109.22v10a.94.94,0,0,1-.27.65h0a.91.91,0,0,1-.65.27.87.87,0,0,1-.74-.41l-3.84-5.53"/><path class="cls-3" d="M764.5,1108.52v10a1,1,0,0,1-.27.66h0a.94.94,0,0,1-.66.27"/><line class="cls-3" x1="762.5" y1="1119.84" x2="764.22" y2="1119.14"/><path class="cls-3" d="M770,1106.26v10a.9.9,0,0,1-.27.64v0h0a.88.88,0,0,1-.64.26.87.87,0,0,1-.75-.4l-3.84-5.53"/><path class="cls-3" d="M771.72,1105.56v10a.9.9,0,0,1-.27.65h0a.9.9,0,0,1-.66.27"/><line class="cls-3" x1="769.72" y1="1116.87" x2="771.44" y2="1116.17"/><path class="cls-3" d="M777.22,1103.3v10a.88.88,0,0,1-.27.64h0a.85.85,0,0,1-.64.27.9.9,0,0,1-.75-.41l-3.84-5.53"/><path class="cls-3" d="M778.94,1102.59v10a.92.92,0,0,1-.27.65h0a.9.9,0,0,1-.66.27"/><line class="cls-3" x1="776.95" y1="1113.91" x2="778.66" y2="1113.21"/><path class="cls-3" d="M784.44,1100.33v10a.9.9,0,0,1-.27.65h0a.89.89,0,0,1-1.39-.14l-3.83-5.53"/><path class="cls-3" d="M785.89,1110.25h0a.91.91,0,0,1-.65.27"/><line class="cls-3" x1="784.17" y1="1110.95" x2="785.88" y2="1110.25"/><line class="cls-3" x1="718.07" y1="1028.09" x2="695.31" y2="987.74"/><line class="cls-3" x1="742.66" y1="1018.01" x2="718.66" y2="975.47"/><line class="cls-3" x1="713.57" y1="1029.94" x2="689.91" y2="988.01"/><polyline class="cls-3" points="787.22 1064.11 788.99 1063.39 792.64 1061.89"/><line class="cls-3" x1="722.81" y1="969.08" x2="724.66" y2="964.37"/><path class="cls-3" d="M578.08,951.62V940.35a11.86,11.86,0,0,1,7.36-11l61-25,4-1.65a2.53,2.53,0,0,1,2.59.37l.06,0a2.59,2.59,0,0,1,.9,2v7.24"/><path class="cls-3" d="M578.08,959.74v12.1a3.53,3.53,0,0,0,.64,2.07l0,.07a3.62,3.62,0,0,0,4.3,1.22l4.46-1.83.07,0"/><path class="cls-3" d="M572.84,965.38h0a2.87,2.87,0,0,1-.43-.64,3.52,3.52,0,0,1-.41-1.66V951"/><path class="cls-3" d="M572,942.91V932.2a11.63,11.63,0,0,1,7.22-10.78l59.24-24.3,4.48-1.83a2.49,2.49,0,0,1,2.48.33l.06,0a2.46,2.46,0,0,1,.4.39v0"/><path class="cls-3" d="M565.56,933.71v-10.2A11.38,11.38,0,0,1,572.63,913l58.24-23.89,4.17-1.71a2.4,2.4,0,0,1,2,.06h0a2.48,2.48,0,0,1,1.12,1.1v0a2.31,2.31,0,0,1,.27,1.11v7.46"/><path class="cls-3" d="M565.56,941.83v11.93a3.54,3.54,0,0,0,.4,1.63l0,.06.39.55h0a3.44,3.44,0,0,0,4,1l1.64-.66"/><path class="cls-3" d="M630.62,881.17v0a2.16,2.16,0,0,0-1.12-1.09l0,0a2.35,2.35,0,0,0-1.93,0l-4.74,2-56.43,23.13a11.17,11.17,0,0,0-6.93,10.34v9.53"/><path class="cls-3" d="M559.42,933.06v12a3.16,3.16,0,0,0,.21,1.17,3.28,3.28,0,0,0,1,1.43"/><path class="cls-3" d="M553,915.75v-9a10.91,10.91,0,0,1,6.77-10.1L615.09,874l4.42-1.82a2.31,2.31,0,0,1,2,.1,2.34,2.34,0,0,1,1,.92v0a2.32,2.32,0,0,1,.3,1.15v7.57"/><path class="cls-3" d="M559.42,938.06l-1.84.74a3.28,3.28,0,0,1-3.44-.57,3.36,3.36,0,0,1-.94-1.36,3.31,3.31,0,0,1-.2-1.15V923.89"/><path class="cls-3" d="M547.92,929.2l0,0a3.09,3.09,0,0,1-.73-1.07,3.26,3.26,0,0,1-.25-1.26V915.16"/><path class="cls-3" d="M614.7,865.6l0,0a2.25,2.25,0,0,0-.62-.61h0a2.26,2.26,0,0,0-2.15-.21l-4.86,2-53.51,21.93a10.67,10.67,0,0,0-6.62,9.87V907"/><path class="cls-3" d="M540.41,897.73V890a10.45,10.45,0,0,1,6.46-9.65l52.57-21.56,4.48-1.83a2.22,2.22,0,0,1,2.1.2l0,0a2.25,2.25,0,0,1,.58.57l0,0h0A2.35,2.35,0,0,1,607,859v7.74"/><path class="cls-3" d="M546.91,919.69l-2.12.86a3.16,3.16,0,0,1-4.25-2,3.3,3.3,0,0,1-.13-.89V905.87"/><path class="cls-3" d="M535.51,911.19h0a3,3,0,0,1-1-1.44h0a3.26,3.26,0,0,1-.14-1v-27a10.19,10.19,0,0,1,6.32-9.42L596.4,849.5a2.14,2.14,0,0,1,2,.15h0l0,0a2.2,2.2,0,0,1,.7.69h0"/><line class="cls-3" x1="590.41" y1="941.95" x2="623.27" y2="949.38"/><polyline class="cls-3" points="638.18 888.55 638.17 888.53 637.05 887.43 637.04 887.43 630.62 881.16 630.61 881.14 629.5 880.07 629.45 880.02"/><polyline class="cls-3" points="606.68 857.77 606.66 857.76 606.64 857.72 606.06 857.15 606.02 857.13 599.11 850.38 599.1 850.37 599.1 850.36 598.4 849.67 598.38 849.64 598.36 849.64"/><polyline class="cls-3" points="614.05 864.97 614.07 864.97 614.68 865.58 614.7 865.6 621.52 872.27 622.47 873.19 622.48 873.22"/><polyline class="cls-3" points="645.41 895.62 645.47 895.66 645.87 896.05 645.88 896.07 653.04 903.08 653.1 903.12"/><polyline class="cls-3" points="534.49 909.72 534.49 909.73 534.5 909.74 535.5 911.18 535.51 911.19 540.54 918.5 541.7 920.17"/><polyline class="cls-3" points="559.63 946.2 560.61 947.63 565.96 955.39 565.99 955.45 566.38 956 566.39 956.01"/><polyline class="cls-3" points="572.4 964.74 572.83 965.37 572.84 965.38 578.72 973.91 578.77 973.98"/><polyline class="cls-3" points="554.13 938.23 553.2 936.87 547.91 929.21 547.89 929.18 547.15 928.11"/><polyline class="cls-3" points="578.08 959.74 581.41 964.5 587.53 973.26 587.6 973.35"/><polyline class="cls-3" points="559.42 933.06 555.9 928.02 553 923.88"/><polyline class="cls-3" points="546.91 915.16 543.16 909.8 540.41 905.87"/><polyline class="cls-3" points="565.56 941.83 568.69 946.32 571.99 951.03"/><path class="cls-3" d="M668.92,920.76c12.14,6.77,20.12,18.83,20.12,18.83"/><path class="cls-3" d="M1117,1111.22h0l.49-.2,0,0,1.19-.49h0l.51-.22,11.81-4.84"/><path class="cls-3" d="M1104.86,1116.21h0l-.54.23h0l-1.15.47h0l-.54.23h0"/><path class="cls-3" d="M1090.46,1122.1h0l0,0-.54.25h0l-1.08.43h0l0,0-.58.25"/><polyline class="cls-3" points="1076.02 1128.03 1076.01 1128.03 1075.35 1128.3 1074.3 1128.73 1074.29 1128.73 1074.27 1128.74 1073.64 1129"/><polyline class="cls-3" points="1047.37 1139.77 1047.37 1139.75 1061.27 1134.06"/><polyline class="cls-3" points="993.68 1076.24 993.68 1076.23 1000.9 1073.27"/><polyline class="cls-3" points="1080.86 1126.04 1080.87 1126.04 1081.51 1125.77 1081.52 1125.77 1082.58 1125.34 1083.23 1125.07 1083.24 1125.07 1083.25 1125.06"/><path class="cls-3" d="M1095.31,1120.11h0l.59-.24s0,0,0,0h0l1-.43h0l.62-.26h0"/><path class="cls-3" d="M1109.78,1114.18h0l.55-.23h0l1.15-.47h0l.55-.23h0"/><line class="cls-3" x1="1121.39" y1="1086.35" x2="1078.9" y2="1103.77"/><polyline class="cls-3" points="1041.98 1032.01 1047.02 1029.94 1086.26 1013.85"/><path class="cls-3" d="M1001.45,919.92c16.39-.35,31.92,11.29,33.74,19.14s-4.36,11.4-7.49,13.06-21.35,1.77-25.82.73-8.21-6.42-16.57-11.64-22.14-5.59-22.14-5.59l5-2.07,33.66-13.8"/><path class="cls-3" d="M1035.06,944.75h0c-6.92-7.13-13.89-4.39-13.89-4.39l-23.91,9.79-.2.09"/><polyline class="cls-3" points="920.98 939.59 929.62 936.04 996.91 908.45"/><line class="cls-3" x1="1074.57" y1="1118.11" x2="1069.06" y2="1120.37"/><line class="cls-3" x1="1089.01" y1="1112.2" x2="1083.51" y2="1114.45"/><line class="cls-3" x1="1103.46" y1="1106.27" x2="1097.95" y2="1108.53"/><line class="cls-3" x1="1117.89" y1="1100.35" x2="1112.39" y2="1102.61"/><polyline class="cls-3" points="1110.67 1103.31 1105.17 1105.56 1105.17 1105.57"/><line class="cls-3" x1="1096.23" y1="1109.23" x2="1090.72" y2="1111.48"/><polyline class="cls-3" points="1076.29 1117.41 1078.9 1116.34 1081.79 1115.15"/><line class="cls-3" x1="1067.34" y1="1121.07" x2="1061.27" y2="1123.56"/><line class="cls-3" x1="1074.81" y1="1097.91" x2="1047.37" y2="1109.16"/><line class="cls-3" x1="1131.08" y1="1074.86" x2="1121.39" y2="1078.83"/><polyline class="cls-3" points="1042.38 1096.2 1047.37 1094.16 1066.66 1086.25 1069.82 1084.96"/><polyline class="cls-3" points="958.39 976.08 978.11 968 980.67 966.95"/><polyline class="cls-3" points="1080.08 1080.76 1106.07 1070.11 1106.08 1070.11 1107.73 1069.43 1116.6 1065.78"/><line class="cls-3" x1="1126.09" y1="1067.71" x2="1121.39" y2="1069.64"/><polyline class="cls-3" points="1042.38 1102.01 1047.37 1099.97 1069.82 1090.77"/><polyline class="cls-3" points="994.83 1064.6 994.83 1064.61 1002.45 1075.48 1025.26 1108.13 1028.42 1112.65 1041.67 1131.59 1047.37 1139.75 1047.37 1139.77"/><line class="cls-3" x1="920.98" y1="965.12" x2="911.53" y2="951.62"/><line class="cls-3" x1="892.87" y1="924.93" x2="886.45" y2="915.75"/><line class="cls-3" x1="880.36" y1="907.04" x2="873.86" y2="897.73"/><line class="cls-3" x1="905.44" y1="942.91" x2="899.01" y2="933.71"/><polyline class="cls-3" points="956.5 1037.24 956.5 1037.24 955.41 1035.68 952.88 1032.06 952.27 1031.19 920.98 986.44"/><line class="cls-3" x1="1047.37" y1="1109.16" x2="1042.38" y2="1102.01"/><line class="cls-3" x1="958.39" y1="976.08" x2="1042.38" y2="1096.21"/><line class="cls-3" x1="1041.99" y1="1045.15" x2="1069.82" y2="1084.96"/><line class="cls-3" x1="1057.91" y1="961.16" x2="1126.09" y2="1061.89"/><polyline class="cls-3" points="1078.9 1103.77 1074.81 1097.91 1069.82 1090.77"/><line class="cls-3" x1="1131.08" y1="1074.86" x2="1126.09" y2="1067.71"/><line class="cls-3" x1="1047.37" y1="1139.77" x2="1047.37" y2="1109.16"/><path class="cls-3" d="M958.39,1038.43l33.81,37.37a1.52,1.52,0,0,0,2.63-1V1064.6"/><line class="cls-3" x1="920.98" y1="986.43" x2="920.98" y2="939.59"/><path class="cls-3" d="M1056.56,967.32a7.05,7.05,0,0,1-.3,1.76,7.63,7.63,0,0,1-1.12,2.27L1048,981a15.25,15.25,0,0,1-11.14,6.19c-7.14.52-17.8,1.19-22.48.81-7.36-.59-31.64-26.51-49.34-24.88-7.9.74-6.68,12-6.68,12v63.27"/><path class="cls-3" d="M961.17,949.83c22.09-1.79,47.68,33,55,33.65,4.69.37,15.34-.29,22.48-.83a15.21,15.21,0,0,0,11.14-6.18l7.11-9.67a7.43,7.43,0,0,0,.68-7.66l-16-32.67a22,22,0,0,0-15.26-11.86l-29.47-6.16"/><path class="cls-3" d="M958.33,1038a1.25,1.25,0,0,1-1.83-1.09V970l2.23-17.89"/><line class="cls-3" x1="1061.28" y1="1134.06" x2="1061.28" y2="1123.56"/><line class="cls-3" x1="1041.99" y1="1045.15" x2="1041.99" y2="1032"/><line class="cls-3" x1="1131.08" y1="1105.45" x2="1131.08" y2="1074.86"/><line class="cls-3" x1="1126.09" y1="1067.71" x2="1126.09" y2="1061.89"/><line class="cls-3" x1="1042.38" y1="1102.01" x2="1042.38" y2="1096.2"/><line class="cls-3" x1="1069.82" y1="1090.77" x2="1069.82" y2="1084.96"/><path class="cls-3" d="M1042,1032l33,44a19.85,19.85,0,0,1,4,11.9v15.92"/><path class="cls-3" d="M1086.26,1013.85l31.52,44.83a19.84,19.84,0,0,1,3.61,11.41v16.26"/><path class="cls-3" d="M1074.57,1118.11v10a.94.94,0,0,1-.27.65h0a.91.91,0,0,1-.65.27.9.9,0,0,1-.75-.41l-3.83-5.53"/><path class="cls-3" d="M1076.29,1117.41v10a1,1,0,0,1-.27.66h0a.9.9,0,0,1-.65.27"/><line class="cls-3" x1="1074.29" y1="1128.73" x2="1076.01" y2="1128.03"/><path class="cls-3" d="M1067.35,1121.08v10a.92.92,0,0,1-.27.64h0a.84.84,0,0,1-.64.27.9.9,0,0,1-.75-.41l-4.39-6.14"/><path class="cls-3" d="M1069.06,1120.37v10a.91.91,0,0,1-.26.65h0a.88.88,0,0,1-.65.27"/><line class="cls-3" x1="1067.07" y1="1131.69" x2="1068.79" y2="1130.99"/><path class="cls-3" d="M1074.57,1118.11v10a.94.94,0,0,1-.27.65h0a.91.91,0,0,1-.65.27.9.9,0,0,1-.75-.41l-3.83-5.53"/><path class="cls-3" d="M1076.29,1117.41v10a1,1,0,0,1-.27.66h0a.9.9,0,0,1-.65.27"/><line class="cls-3" x1="1074.29" y1="1128.73" x2="1076.01" y2="1128.03"/><path class="cls-3" d="M1081.79,1115.15v10a.9.9,0,0,1-.27.64v0h0a.91.91,0,0,1-.65.26.86.86,0,0,1-.74-.4l-3.84-5.53"/><path class="cls-3" d="M1083.51,1114.45v10a.9.9,0,0,1-.27.65h0a.9.9,0,0,1-.66.27"/><line class="cls-3" x1="1081.51" y1="1125.76" x2="1083.23" y2="1125.06"/><path class="cls-3" d="M1089,1112.19v10a.92.92,0,0,1-.27.64h0a.89.89,0,0,1-1.39-.14l-3.84-5.53"/><path class="cls-3" d="M1090.73,1111.48v10a.92.92,0,0,1-.27.65h0a.9.9,0,0,1-.66.27"/><line class="cls-3" x1="1088.73" y1="1122.8" x2="1090.45" y2="1122.1"/><path class="cls-3" d="M1096.23,1109.22v10a.94.94,0,0,1-.27.65h0a.89.89,0,0,1-1.39-.14l-3.84-5.53"/><path class="cls-3" d="M1098,1108.52v10a1,1,0,0,1-.27.66h0a.94.94,0,0,1-.66.27"/><line class="cls-3" x1="1095.96" y1="1119.84" x2="1097.67" y2="1119.14"/><path class="cls-3" d="M1103.45,1106.26v10a.86.86,0,0,1-.27.64v0h0a.91.91,0,0,1-1.39-.14l-3.84-5.53"/><path class="cls-3" d="M1105.17,1105.56v10a.9.9,0,0,1-.27.65h0a.88.88,0,0,1-.66.27"/><line class="cls-3" x1="1103.18" y1="1116.87" x2="1104.89" y2="1116.17"/><path class="cls-3" d="M1110.67,1103.3v10a.88.88,0,0,1-.27.64h0a.85.85,0,0,1-.64.27.9.9,0,0,1-.75-.41l-3.83-5.53"/><path class="cls-3" d="M1112.39,1102.59v10a.88.88,0,0,1-.27.65h0a.88.88,0,0,1-.65.27"/><line class="cls-3" x1="1110.4" y1="1113.91" x2="1112.11" y2="1113.21"/><path class="cls-3" d="M1117.89,1100.33v10a.9.9,0,0,1-.27.65h0a.88.88,0,0,1-.64.27.9.9,0,0,1-.75-.41l-3.83-5.53"/><path class="cls-3" d="M1119.34,1110.25h0a.91.91,0,0,1-.65.27"/><line class="cls-3" x1="1117.62" y1="1110.95" x2="1119.33" y2="1110.25"/><line class="cls-3" x1="1051.52" y1="1028.09" x2="1028.76" y2="987.74"/><line class="cls-3" x1="1076.11" y1="1018.01" x2="1052.11" y2="975.47"/><line class="cls-3" x1="1047.02" y1="1029.94" x2="1023.36" y2="988.01"/><polyline class="cls-3" points="1120.67 1064.11 1122.44 1063.39 1126.09 1061.89"/><line class="cls-3" x1="1056.26" y1="969.08" x2="1058.11" y2="964.37"/><path class="cls-3" d="M911.53,951.62V940.35a11.86,11.86,0,0,1,7.37-11l61-25,4-1.65a2.55,2.55,0,0,1,2.6.37l0,0a2.59,2.59,0,0,1,.9,2v7.24"/><path class="cls-3" d="M911.53,959.74v12.1a3.53,3.53,0,0,0,.64,2.07l.05.07a3.63,3.63,0,0,0,4.3,1.22l4.46-1.83.07,0"/><path class="cls-3" d="M906.29,965.38h0a3.25,3.25,0,0,1-.43-.64,3.52,3.52,0,0,1-.41-1.66V951"/><path class="cls-3" d="M905.44,942.91V932.2a11.62,11.62,0,0,1,7.23-10.78l59.23-24.3,4.48-1.83a2.49,2.49,0,0,1,2.48.33l.06,0a2.46,2.46,0,0,1,.4.39v0"/><path class="cls-3" d="M899,933.71v-10.2A11.38,11.38,0,0,1,906.08,913l58.24-23.89,4.17-1.71a2.4,2.4,0,0,1,2,.06h0a2.48,2.48,0,0,1,1.12,1.1l0,0a2.42,2.42,0,0,1,.26,1.11v7.46"/><path class="cls-3" d="M899,941.83v11.93a3.54,3.54,0,0,0,.4,1.63l0,.06.39.55h0a3.44,3.44,0,0,0,4,1l1.64-.66"/><path class="cls-3" d="M964.07,881.17v0a2.13,2.13,0,0,0-1.12-1.09l0,0a2.35,2.35,0,0,0-1.93,0l-4.74,2L899.8,905.06a11.17,11.17,0,0,0-6.93,10.34v9.53"/><path class="cls-3" d="M892.87,933.06v12a3.16,3.16,0,0,0,.21,1.17,3.28,3.28,0,0,0,1,1.43"/><path class="cls-3" d="M886.45,915.75v-9a10.91,10.91,0,0,1,6.77-10.1L948.55,874l4.42-1.82a2.32,2.32,0,0,1,2,.1,2.37,2.37,0,0,1,.94.92v0a2.32,2.32,0,0,1,.3,1.15v7.57"/><path class="cls-3" d="M892.87,938.06l-1.83.74a3.3,3.3,0,0,1-3.45-.57,3.36,3.36,0,0,1-.94-1.36,3.31,3.31,0,0,1-.2-1.15V923.89"/><path class="cls-3" d="M881.37,929.2l0,0a3.09,3.09,0,0,1-.73-1.07,3.45,3.45,0,0,1-.25-1.26V915.16"/><path class="cls-3" d="M948.15,865.6v0a2.57,2.57,0,0,0-.62-.61h0a2.29,2.29,0,0,0-2.16-.21l-4.86,2L887,888.69a10.67,10.67,0,0,0-6.62,9.87V907"/><path class="cls-3" d="M873.86,897.73V890a10.44,10.44,0,0,1,6.47-9.65l52.56-21.56,4.48-1.83a2.22,2.22,0,0,1,2.1.2l0,0a2.25,2.25,0,0,1,.58.57l0,0h0a2.35,2.35,0,0,1,.36,1.25v7.74"/><path class="cls-3" d="M880.36,919.69l-2.11.86a3.17,3.17,0,0,1-4.26-2,3.3,3.3,0,0,1-.13-.89V905.87"/><path class="cls-3" d="M869,911.19h0a3,3,0,0,1-1-1.44h0a3,3,0,0,1-.14-1v-27a10.19,10.19,0,0,1,6.31-9.42l55.73-22.85a2.16,2.16,0,0,1,2,.15h0l0,0a2.1,2.1,0,0,1,.7.69h0"/><line class="cls-3" x1="923.87" y1="941.95" x2="956.72" y2="949.38"/><polyline class="cls-3" points="971.64 888.55 971.62 888.53 970.5 887.43 970.49 887.43 964.07 881.16 964.06 881.14 962.95 880.07 962.9 880.02"/><polyline class="cls-3" points="940.13 857.77 940.12 857.76 940.09 857.72 939.51 857.15 939.47 857.13 932.56 850.38 932.55 850.37 932.55 850.36 931.85 849.67 931.83 849.64 931.82 849.64"/><polyline class="cls-3" points="947.5 864.97 947.52 864.97 948.14 865.58 948.15 865.6 954.98 872.27 955.92 873.19 955.93 873.22"/><polyline class="cls-3" points="978.86 895.62 978.92 895.66 979.32 896.05 979.33 896.07 986.5 903.08 986.55 903.12"/><polyline class="cls-3" points="867.95 909.72 867.95 909.73 867.96 909.74 868.95 911.18 868.96 911.19 873.99 918.5 875.15 920.17"/><polyline class="cls-3" points="893.08 946.2 894.06 947.63 899.41 955.39 899.44 955.45 899.83 956 899.84 956.01"/><polyline class="cls-3" points="905.85 964.74 906.28 965.37 906.29 965.38 912.17 973.91 912.22 973.98"/><polyline class="cls-3" points="887.59 938.23 886.65 936.87 881.37 929.21 881.34 929.18 880.61 928.11"/><polyline class="cls-3" points="911.53 959.74 914.86 964.5 920.98 973.26 921.05 973.35"/><polyline class="cls-3" points="892.87 933.06 889.35 928.02 886.45 923.88"/><polyline class="cls-3" points="880.36 915.16 876.61 909.8 873.86 905.87"/><polyline class="cls-3" points="899.01 941.83 902.14 946.32 905.44 951.03"/><path class="cls-3" d="M1002.37,920.76c12.14,6.77,20.12,18.83,20.12,18.83"/><path class="cls-3" d="M538.84,298.31c44.19,53,138.71,177.28,143,235.09,4.42,59.93-25.09,98.71-98.67,129.66-35,14.75-58.79,39.8-68.65,72.46-11.93,39.46-2.79,88.71,25,137.38"/><path class="cls-3" d="M589.87,298.31c13.62,17.2,30.84,39.65,48.34,64.37,52.45,74.09,80.43,130.55,83.18,167.8,3.14,42.71-8.14,79.46-33.55,109.21-20.07,23.5-49.28,43.11-89.32,59.95-24.12,10.16-39.62,26.09-46,47.35-9.1,30.16-.33,70,24.1,110.65"/><path class="cls-3" d="M875,298.31c44.19,53,138.7,177.28,143,235.09,4.41,59.93-25.1,98.71-98.68,129.66-35,14.75-58.78,39.8-68.65,72.46-11.85,39.2-2.9,88.07,24.5,136.43"/><path class="cls-3" d="M926,298.31c13.63,17.2,30.85,39.65,48.35,64.37,52.44,74.09,80.43,130.55,83.17,167.8,3.15,42.71-8.14,79.46-33.55,109.21-20.06,23.5-49.28,43.11-89.31,59.95C910.5,709.8,895,725.73,888.58,747c-9.05,29.94-.46,69.43,23.57,109.77"/></g></svg>