<svg xmlns="http://www.w3.org/2000/svg" viewBox="0 0 1640.44 1438.07"><defs><style>.cls-1{opacity:0.5;}.cls-2{fill:#040713;stroke-miterlimit:10;}.cls-2,.cls-3{stroke:#fff;}.cls-3{fill:none;stroke-linecap:round;stroke-linejoin:round;stroke-width:0.5px;}</style></defs><title>hdmi</title><g id="ads"><path class="cls-2" d="M559.22,296.42a.74.74,0,0,0-.66.4.76.76,0,0,0,0,.77c28.74,41.94,63.53,99.13,66,133.34,4.4,59.56-25,98.11-98.21,128.92-35.25,14.82-59.14,40-69.08,72.92-11.35,37.57-3.82,84.05,21.19,130.88a30.58,30.58,0,0,0-1.36,19.27,22.84,22.84,0,0,0,.76,2.3l13.4,40.47.24.76,0,0a3.87,3.87,0,0,0,3.48,2.2,4,4,0,0,0,1.48-.29l.73-.3v15s0,.51,0,1.2l3.13,9.56.3.9.05.12a.7.7,0,0,0,.33.33,4.34,4.34,0,0,0,1.17,1.17,4.5,4.5,0,0,0,4,.49v13.37a5.43,5.43,0,0,0,.05.72,4.75,4.75,0,0,0,3.17,3.79v5.06a5,5,0,0,0,2.2,4.12,4.67,4.67,0,0,0,3.62.76v12.93a5.47,5.47,0,0,0,.63,2.5l2.73,8.24,0,.13a4.6,4.6,0,0,0,.46,1.37,5.5,5.5,0,0,0,4.93,3h.29v12a6.56,6.56,0,0,0,.07.92,5.44,5.44,0,0,0,.55,1.68l4.83,14.59,1.46,2.13.12.24h0l123.57,176.73.13.24h0a6.16,6.16,0,0,0,7.46,2.23l31.1-12.75,18,25.72.11.15h0l.13.09,9.16,4.58a.77.77,0,0,0,.34.08l.19,0,9.45-3.88a.73.73,0,0,0,.41-.06l2.77-1.24,1.8-.74a.71.71,0,0,0,.41-.06l2.77-1.24,1.81-.74a.69.69,0,0,0,.4-.06l2.77-1.24,1.81-.74a.78.78,0,0,0,.4-.06l2.78-1.25,1.8-.74a.68.68,0,0,0,.4,0l2.78-1.25,1.8-.74a.68.68,0,0,0,.4-.06l2.78-1.24,1.8-.74a.73.73,0,0,0,.41-.06l2.77-1.24,1.81-.74a.7.7,0,0,0,.4-.06l2.78-1.25,8.72-3.57a.74.74,0,0,0,.35-.3l7.28-11.79a.8.8,0,0,0,.11-.4v-20.44a.69.69,0,0,0,0-.25v-.08L769.38,1062v-52a6.1,6.1,0,0,0-.92-3.24,3,3,0,0,0-.35-.5L644.73,829.82a4.67,4.67,0,0,0-.36-.51,6.05,6.05,0,0,0-.54-.61.74.74,0,0,0-.27-.5l-12.12-9.53-.65-.5-.15-.15h-.06a5.8,5.8,0,0,0-5.31-.45l-5,2.07v-7.31a5.46,5.46,0,0,0-3.23-5l-6.42-5a5.27,5.27,0,0,0-5.13-.62l-6.08,2.5v-8.24a4.92,4.92,0,0,0-2.09-4l-6.55-5.19-.58-.47-.18-.12a4.74,4.74,0,0,0-4.34-.39L579,788.47v-9.1a4.16,4.16,0,0,0-.18-1.2.76.76,0,0,0-.17-1l-.49-.38a4.38,4.38,0,0,0-1.9-1.5l-6.05-4.75A4.15,4.15,0,0,0,566,770l-8,3.26V762.85a3.81,3.81,0,0,0-1.14-2.73l-21-16.48a24,24,0,0,0-3.39-2.67,29,29,0,0,0-18.07-4.21,31.72,31.72,0,0,0-3.24.39c-16.94-34.33-22.06-67.16-14.41-92.47,6.35-21,21.7-36.81,45.62-46.87,40.14-16.88,69.44-36.56,89.59-60.16,25.55-29.91,36.9-66.83,33.73-109.75-2.27-30.84-21.85-75-58.19-131.14a.75.75,0,0,0-.63-.34"/><path class="cls-2" d="M952.7,296.42a.74.74,0,0,0-.66.4.76.76,0,0,0,0,.77c28.74,42,63.51,99.14,66,133.34,4.39,59.56-25,98.11-98.22,128.92-35.25,14.83-59.14,40-69.07,72.92-10.57,35-4.64,78.35,16.7,122.1-4.62,8-6.34,16.82-4.85,24.65l7.64,112.21c-.16,1.91-.24,3.88-.24,5.86a33.27,33.27,0,0,0,1.28,9.19,31.89,31.89,0,0,0,3.64,8.16l0,.09a31.45,31.45,0,0,0,1.85,2.63L992.07,1082.4l.43.62a32.85,32.85,0,0,0,42.24,16.5l2.81-1.16,29.63,42.37v.33l0,.13a.46.46,0,0,0,.1.16l.11.12a.75.75,0,0,0,.49.19l.19,0,119.64-49.05.16-.07.17-.21a.76.76,0,0,0,.09-.18l0-.09v-30.23l0-.32-26.44-37.8a68.32,68.32,0,0,0,4.4-24.18,34,34,0,0,0-8.4-22.45L1044,814.33a33.54,33.54,0,0,0-7.71-11,34.39,34.39,0,0,0-4.38-3.54l-.23-.16a31.14,31.14,0,0,0-3.23-1.92l-.1-.1h-.07l-75.2-44.86L924,735.41h0c-6.11-3.83-14-5.3-22.15-4.16-14.86-32.57-18.87-62.5-11.6-86.57,6.36-21,21.71-36.81,45.62-46.87,40.14-16.88,69.45-36.56,89.6-60.16,25.54-29.89,36.89-66.82,33.73-109.75-2.27-30.84-21.85-75-58.19-131.14a.75.75,0,0,0-.63-.34"/><path class="cls-3" d="M952.7,297.17c33.8,49.35,63.8,101.69,66.16,133.71,4.41,59.93-25.1,98.71-98.68,129.66-35,14.74-58.78,39.8-68.64,72.45-10.66,35.28-4.49,78.39,16.83,121.91"/><path class="cls-3" d="M1000.37,297.17c36.3,56.12,55.8,100,58.07,130.79,3.14,42.71-8.14,79.46-33.55,109.21-20.07,23.5-49.28,43.11-89.32,60-24.13,10.15-39.62,26.08-46.05,47.35-7.38,24.42-3,55.19,11.87,87.6"/><path class="cls-3" d="M559.22,297.17C593,346.53,623,398.89,625.4,430.88c4.42,59.93-25.09,98.71-98.67,129.66-35,14.74-58.78,39.8-68.65,72.45-11.37,37.63-3.59,84.17,21.29,130.61"/><path class="cls-3" d="M606.91,297.17c36.3,56.12,55.8,100,58.07,130.79,3.15,42.71-8.14,79.46-33.55,109.21-20.07,23.5-49.28,43.11-89.31,60-24.13,10.15-39.63,26.08-46.05,47.35-7.83,25.91-2.46,59,14.7,93.52"/><path class="cls-3" d="M535.42,744.22h0a22.28,22.28,0,0,0-3.31-2.6h0a28.42,28.42,0,0,0-17.61-4.1,38.27,38.27,0,0,0-12.12,3A43.69,43.69,0,0,0,492,746.74l0,0a43.12,43.12,0,0,0-9.13,10.11c-5.36,8.28-7.2,17.71-5,25.79v0a21.73,21.73,0,0,0,.78,2.36v0"/><line class="cls-3" x1="532.97" y1="871.25" x2="657.29" y2="1049.06"/><path class="cls-3" d="M694.05,1110l-31.66,13a5.43,5.43,0,0,1-6.67-2.16l0,0a5.4,5.4,0,0,1-.79-2.84V1055.8a10.73,10.73,0,0,1,6.64-9.91L761.2,1005a5.38,5.38,0,0,1,6.31,1.7h0a3.3,3.3,0,0,1,.3.43h0a5.3,5.3,0,0,1,.8,2.84v52.19"/><path class="cls-3" d="M532,943.87l0,0a5.38,5.38,0,0,1-.8-2.83V878.83a10.76,10.76,0,0,1,6.65-9.91l99.66-40.85a5.39,5.39,0,0,1,6.31,1.7h0a4.15,4.15,0,0,1,.3.43v0"/><path class="cls-3" d="M631,819.27l0,0a5.7,5.7,0,0,0-.67-.52h0a5.06,5.06,0,0,0-4.71-.46l-6.09,2.5L612,823.82l-11.72,4.81"/><path class="cls-3" d="M525.77,927.32v0a4.68,4.68,0,0,1-.54-1.59v0a5,5,0,0,1-.06-.78V866.2a10.09,10.09,0,0,1,6.28-9.36l27.64-11.33"/><path class="cls-3" d="M525.17,912a4.8,4.8,0,0,1-5.3-2.53,3.72,3.72,0,0,1-.4-1.19l0-.11h0a4.71,4.71,0,0,1-.08-.85V852.62a9.06,9.06,0,0,1,.27-2.22,9.4,9.4,0,0,1,5.58-6.5l25.64-10.51"/><path class="cls-3" d="M619.47,820.76v-8.43a4.68,4.68,0,0,0-.93-2.83h0a4.73,4.73,0,0,0-1.94-1.52h0a4.66,4.66,0,0,0-3.65,0l-.93.38-13.39,5.49-7.19,3-1.67.68"/><path class="cls-3" d="M591.42,808.23l7.19-2.94,7.12-2.92a4.51,4.51,0,0,1,4.4.53l.23.18,0,0h0"/><line class="cls-3" x1="589.75" y1="817.44" x2="591.42" y2="816.76"/><path class="cls-3" d="M546.32,826.72l-24.63,10.09a9.09,9.09,0,0,0-4.2,3.53h0a9,9,0,0,0-1.4,4.82v52.43c0,.21,0,.42,0,.62h0a4.63,4.63,0,0,0,.54,1.62h0"/><path class="cls-3" d="M591.42,816.76l-1.67.68M584,811.29l7.46-3.06m-18-8.19,4.83-2,13.22-5.42,1.42-.58a4.18,4.18,0,0,1,5.77,3.87v9.36M538,814.53l-22.6,9.26a8.43,8.43,0,0,0-2.54,1.63,8.33,8.33,0,0,0-2.62,6.06v48.29a4.22,4.22,0,0,0,5.82,3.91"/><path class="cls-3" d="M567.62,793.93l3.41-1.4,7.17-2.94,7.71-3.16a4,4,0,0,1,3.64.32l0,0,.15.1h0l0,0h0l.27.22,0,0,.15.14h0"/><path class="cls-3" d="M516.09,872.51l-3.48,1.43a4,4,0,0,1-2.34.22,4,4,0,0,1-3.17-3.34h0a3.14,3.14,0,0,1-.05-.61V824.08a7.32,7.32,0,0,1,0-.81h0a7.85,7.85,0,0,1,2.62-5.1,7.57,7.57,0,0,1,2.27-1.42l21.55-8.84"/><line class="cls-3" x1="591.42" y1="808.23" x2="583.96" y2="811.29"/><path class="cls-3" d="M525.21,795.65l-19.61,8a6.88,6.88,0,0,0-1.83,1.09,7.24,7.24,0,0,0-2.68,5.64v42.24a3.69,3.69,0,0,0,5.09,3.42l.81-.33"/><path class="cls-3" d="M557,782.63l.29-.12L571,776.87l2.13-.88a3.65,3.65,0,0,1,4.4,1.33h0a3.58,3.58,0,0,1,.63,2v10.22"/><path class="cls-3" d="M498.07,844.24c0-.67,0-1.13,0-1.13V803.22a6.87,6.87,0,0,1,2.71-5.46,6.65,6.65,0,0,1,1.56-.89l18.54-7.6"/><path class="cls-3" d="M569.77,771.19l-.07-.05a3.42,3.42,0,0,0-3.44-.48l-9,3.68-5.84,2.4"/><path class="cls-3" d="M498.06,827l-1.77.72a3.13,3.13,0,0,1-4-1.58h0a3.17,3.17,0,0,1-.28-1.29V789.12a6.16,6.16,0,0,1,2.75-5.12,5.72,5.72,0,0,1,1.07-.56l16.5-6.77"/><path class="cls-3" d="M540.49,765.12l2.24-.92L553,760a3,3,0,0,1,2.78.23h0a2.68,2.68,0,0,1,.53.41l0,0a3,3,0,0,1,.91,2.19v11.49"/><polyline class="cls-3" points="501.16 825.7 507.09 823.27 507.09 823.26 511.21 821.58"/><line class="cls-3" x1="557.27" y1="782.95" x2="557.27" y2="782.51"/><line class="cls-3" x1="765.27" y1="1104.75" x2="763.3" y2="1101.94"/><polygon class="cls-3" points="712.37 1115.32 712.37 1136.24 721.54 1140.82 777.67 1117.81 784.95 1106.01 784.95 1085.57 712.37 1115.32"/><polygon class="cls-3" points="724.02 1110.55 724.02 1114.82 726.81 1113.57 726.81 1109.4 724.02 1110.55"/><polygon class="cls-3" points="729 1108.5 729 1112.78 731.79 1111.53 731.79 1107.36 729 1108.5"/><polygon class="cls-3" points="733.98 1106.46 733.98 1110.73 736.77 1109.48 736.77 1105.32 733.98 1106.46"/><polygon class="cls-3" points="738.96 1104.42 738.96 1108.69 741.75 1107.44 741.75 1103.28 738.96 1104.42"/><polygon class="cls-3" points="743.95 1102.38 743.95 1106.65 746.74 1105.4 746.74 1101.23 743.95 1102.38"/><polygon class="cls-3" points="748.93 1100.34 748.93 1104.61 751.72 1103.36 751.72 1099.19 748.93 1100.34"/><polygon class="cls-3" points="753.91 1098.29 753.91 1102.57 756.7 1101.32 756.7 1097.15 753.91 1098.29"/><polygon class="cls-3" points="758.89 1096.25 758.89 1100.52 761.68 1099.27 761.68 1095.11 758.89 1096.25"/><polygon class="cls-3" points="763.87 1094.21 763.87 1098.48 766.66 1097.23 766.66 1093.06 763.87 1094.21"/><polygon class="cls-3" points="731.28 1132.66 731.28 1136.93 734.07 1135.68 734.07 1131.51 731.28 1132.66"/><polygon class="cls-3" points="736.26 1130.61 736.26 1134.89 739.05 1133.64 739.05 1129.47 736.26 1130.61"/><polygon class="cls-3" points="741.24 1128.57 741.24 1132.85 744.03 1131.59 744.03 1127.43 741.24 1128.57"/><polygon class="cls-3" points="746.22 1126.53 746.22 1130.8 749.02 1129.55 749.02 1125.39 746.22 1126.53"/><polygon class="cls-3" points="751.21 1124.49 751.21 1128.76 754 1127.51 754 1123.34 751.21 1124.49"/><polygon class="cls-3" points="756.19 1122.45 756.19 1126.72 758.98 1125.47 758.98 1121.3 756.19 1122.45"/><polygon class="cls-3" points="761.17 1120.4 761.17 1124.68 763.96 1123.43 763.96 1119.26 761.17 1120.4"/><polygon class="cls-3" points="766.15 1118.36 766.15 1122.64 768.94 1121.38 768.94 1117.22 766.15 1118.36"/><polygon class="cls-3" points="768.85 1092.17 768.85 1096.44 771.65 1095.19 771.65 1091.02 768.85 1092.17"/><polygon class="cls-3" points="718.03 1120.49 718.03 1132 724.7 1132.85 772.65 1113.19 779.51 1105.98 779.51 1095.29 718.03 1120.49"/><line class="cls-3" x1="765.27" y1="1108.03" x2="765.27" y2="1104.75"/><line class="cls-3" x1="761.84" y1="1106.15" x2="759.87" y2="1103.34"/><line class="cls-3" x1="761.84" y1="1109.43" x2="761.84" y2="1106.16"/><line class="cls-3" x1="758.41" y1="1107.56" x2="756.44" y2="1104.75"/><line class="cls-3" x1="758.41" y1="1110.84" x2="758.41" y2="1107.56"/><line class="cls-3" x1="754.98" y1="1108.97" x2="753.01" y2="1106.15"/><line class="cls-3" x1="754.98" y1="1112.24" x2="754.98" y2="1108.97"/><line class="cls-3" x1="751.54" y1="1110.37" x2="749.58" y2="1107.56"/><line class="cls-3" x1="751.55" y1="1113.65" x2="751.55" y2="1110.37"/><line class="cls-3" x1="748.11" y1="1111.78" x2="746.15" y2="1108.97"/><line class="cls-3" x1="748.12" y1="1115.05" x2="748.12" y2="1111.78"/><line class="cls-3" x1="744.68" y1="1113.18" x2="742.72" y2="1110.37"/><line class="cls-3" x1="744.68" y1="1116.46" x2="744.68" y2="1113.18"/><line class="cls-3" x1="741.25" y1="1114.59" x2="739.29" y2="1111.78"/><line class="cls-3" x1="741.25" y1="1117.86" x2="741.25" y2="1114.59"/><line class="cls-3" x1="737.82" y1="1115.99" x2="735.86" y2="1113.18"/><line class="cls-3" x1="737.82" y1="1119.27" x2="737.82" y2="1115.99"/><line class="cls-3" x1="734.39" y1="1117.4" x2="732.43" y2="1114.59"/><line class="cls-3" x1="734.39" y1="1120.67" x2="734.39" y2="1117.4"/><line class="cls-3" x1="730.96" y1="1118.8" x2="729" y2="1115.99"/><line class="cls-3" x1="730.96" y1="1122.08" x2="730.96" y2="1118.8"/><line class="cls-3" x1="727.53" y1="1120.21" x2="725.57" y2="1117.4"/><line class="cls-3" x1="727.53" y1="1123.48" x2="727.53" y2="1120.21"/><line class="cls-3" x1="724.1" y1="1121.61" x2="722.14" y2="1118.8"/><line class="cls-3" x1="724.1" y1="1124.89" x2="724.1" y2="1121.61"/><line class="cls-3" x1="720.67" y1="1123.02" x2="718.71" y2="1120.21"/><line class="cls-3" x1="720.67" y1="1126.3" x2="720.67" y2="1123.02"/><polyline class="cls-3" points="509.71 818.16 511.21 821.58 512.89 825.42"/><polyline class="cls-3" points="521.96 846.12 519.13 839.67 519.13 839.66 518.74 838.78"/><polyline class="cls-3" points="527.78 859.41 530.87 866.45 532.96 871.22 532.96 871.23 532.97 871.24 532.97 871.24 532.97 871.25"/><line class="cls-3" x1="503.83" y1="804.75" x2="500.77" y2="797.76"/><polyline class="cls-3" points="546.32 826.72 538.03 814.53 538.03 830.12"/><polyline class="cls-3" points="533.53 807.9 525.21 795.65 525.21 811.29"/><polyline class="cls-3" points="520.87 789.27 512.31 776.67 512.31 792.78"/><polyline class="cls-3" points="550.85 848.89 550.85 833.39 553.09 836.68 559.09 845.51 559.21 845.69"/><polyline class="cls-3" points="573.37 800.04 578.2 805.17 583.96 811.29"/><line class="cls-3" x1="551.43" y1="776.74" x2="540.49" y2="765.12"/><polyline class="cls-3" points="556.98 782.63 557.27 782.95 567.62 793.93"/><polyline class="cls-3" points="589.75 817.45 591.42 819.22 598.61 826.86 600.28 828.63 600.43 828.79"/><polyline class="cls-3" points="712.38 1116 708.86 1110.97 696.01 1092.6 696.01 1092.59 688.68 1082.1 678.25 1067.19"/><polyline class="cls-3" points="678.26 1087.44 694.05 1110.02 712.38 1136.24"/><line class="cls-3" x1="530.58" y1="941.87" x2="655.72" y2="1120.84"/><line class="cls-3" x1="644.1" y1="830.23" x2="767.83" y2="1007.2"/><polyline class="cls-3" points="751.2 1037.29 768.63 1062.22 784.95 1085.57"/><line class="cls-3" x1="751.2" y1="1037.29" x2="678.26" y2="1067.19"/><polygon class="cls-3" points="763.1 1072.37 757.26 1064.02 745.63 1068.79 751.48 1077.14 763.1 1072.37"/><polygon class="cls-3" points="722.51 1089.02 716.67 1080.66 705.04 1085.43 710.88 1093.79 722.51 1089.02"/><line class="cls-3" x1="678.26" y1="1067.2" x2="678.26" y2="1087.44"/><polyline class="cls-3" points="618.54 809.5 618.53 809.49 616.59 807.97 616.58 807.97 610.39 803.1 610.36 803.08 610.13 802.9"/><polyline class="cls-3" points="556.36 760.66 556.34 760.64 555.81 760.23 555.8 760.23 555.79 760.22 535.42 744.22 535.41 744.21 532.11 741.61 532.1 741.6"/><polyline class="cls-3" points="590.09 787.15 590.05 787.12 589.78 786.9 589.77 786.9 589.75 786.88 589.73 786.87"/><polyline class="cls-3" points="578.14 777.77 577.57 777.32 577.56 777.32"/><polyline class="cls-3" points="596.68 792.36 590.24 787.29 589.55 786.75"/><polyline class="cls-3" points="578.14 777.77 577.57 777.32 577.56 777.32 575.84 775.96 569.76 771.19 569.7 771.14"/><polyline class="cls-3" points="630.27 818.72 630.28 818.72 630.98 819.27 641.26 827.35 643.1 828.79"/><polyline class="cls-3" points="519.87 909.5 519.44 908.19 519.44 908.19 516.68 899.85 516.68 899.84 516.14 898.22 516.13 898.21"/><polyline class="cls-3" points="492.27 826.12 492.27 826.1 492.06 825.46 478.7 785.1 478.69 785.07 477.91 782.71 477.9 782.67"/><polyline class="cls-3" points="498.06 844.22 498.07 844.23 498.07 844.24 498.3 844.94 498.3 844.95 498.31 844.96 501.16 853.59 501.17 853.6 501.46 854.49 501.46 854.5 501.47 854.51"/><polyline class="cls-3" points="525.23 925.69 525.76 927.3 530.58 941.87"/><path class="cls-3" d="M863.43,779.55v0c-2.38-12.5,3.52-27.37,16.15-37.58,1-.81,2-1.58,3.08-2.3a47.61,47.61,0,0,1,8.32-4.58,43.3,43.3,0,0,1,8.37-2.63c8.84-1.81,17.54-.61,24.29,3.64l0,0"/><path class="cls-3" d="M892.23,754.52h0a2.55,2.55,0,0,1-1.07,2.08c-.95.67-1.94,1.42-3,2.31-12,9.69-20,23-22.12,36.49,0,.28-.08.54-.12.8l0,.15a43.28,43.28,0,0,0-.4,5.36c0,.38,0,.77,0,1.15a40,40,0,0,0,.45,5.5,2.55,2.55,0,0,1-.4,1.78l-.42-6.14-1.36-20A68.06,68.06,0,0,1,884.93,755c1.16-.93,2.2-1.73,3.2-2.44a2.54,2.54,0,0,1,4.1,2Z"/><path class="cls-3" d="M952.66,753.38h0l-5.39-3.22-16.82-10h0a56.06,56.06,0,0,0-17.4,1.09,2.55,2.55,0,1,0,1.09,5,47.83,47.83,0,0,1,23.84.55,34.56,34.56,0,0,1,6.52,2.54c.39.2.78.42,1.17.64h0"/><path class="cls-3" d="M896.88,769c-.85.61-1.74,1.3-2.81,2.16a73.47,73.47,0,0,0-23.64,32.89l-.16.45a107.72,107.72,0,0,0-3.53,16.9,2.52,2.52,0,0,1-.39,1l-.84-12.31-.42-6.14c.12-.39.24-.76.36-1.12v0l.15-.43a78.69,78.69,0,0,1,25.27-35.23c1.13-.9,2.08-1.63,3-2.3a2.55,2.55,0,0,1,3,4.11Z"/><path class="cls-3" d="M947.27,750.16l-1.61-.22h0c-.49-.06-1-.12-1.46-.16a65.94,65.94,0,0,0-20.4,1.34,2.55,2.55,0,0,0,.46,5,2.51,2.51,0,0,0,.55-.06,60.71,60.71,0,0,1,18.91-1.26,50.68,50.68,0,0,1,11.18,2.35,63.74,63.74,0,0,1,6.08,2.44,98.2,98.2,0,0,1,11.74,6.5,2.56,2.56,0,0,0,1.37.4,1.93,1.93,0,0,0,.53-.07l-10.76-6.41-11.2-6.68Z"/><path class="cls-3" d="M902.72,781.7c-.8.6-1.64,1.25-2.56,2a90.57,90.57,0,0,0-22.8,27.24,1,1,0,0,1-.11.21l0,.07,0,.06a77.93,77.93,0,0,0-5.52,13.11l-.06.21a69.08,69.08,0,0,0-2.6,11.84v.06a60.59,60.59,0,0,0-.34,12.22,2.51,2.51,0,0,1-.43,1.6l-1.78-26.26c.08-.31.18-.62.27-.93l.08-.24a83.62,83.62,0,0,1,5.87-14,2,2,0,0,0,.11-.2l0-.07,0-.07A95.72,95.72,0,0,1,897,779.73c1-.78,1.85-1.46,2.69-2.1a2.55,2.55,0,1,1,3.06,4.07Z"/><path class="cls-3" d="M987.74,774.3a2.48,2.48,0,0,1-.54.06,2.61,2.61,0,0,1-1.38-.41c-1.15-.75-2.36-1.47-3.6-2.15a65.13,65.13,0,0,0-10.62-4.61,58.89,58.89,0,0,0-11-2.47,67.37,67.37,0,0,0-13.87-.31,75.81,75.81,0,0,0-11.11,1.72,2.55,2.55,0,0,1-1.15-5,80.44,80.44,0,0,1,11.86-1.83,71.25,71.25,0,0,1,14.63.3l.29,0c.87.11,1.74.24,2.59.39l10.76,6.41Z"/><path class="cls-3" d="M863.42,779.52v0l.31,4.46,1.36,20,.42,6.14.84,12.31.11,1.61,1.78,26.26,2.82,41.41s0,0,0,0,0,0,0,0l1,14.82"/><path class="cls-3" d="M923.64,736.07l6.8,4.07h0l16.82,10,5.39,3.22h0l11.2,6.68,10.76,6.41,13.12,7.83,40.23,24,0,0,3.29,2,0,0,.07.05"/><line class="cls-3" x1="1174" y1="1054.53" x2="1082.72" y2="1091.96"/><polyline class="cls-3" points="1129.49 990.87 1129.49 990.87 1038.21 1028.29"/><path class="cls-3" d="M1037.82,1097.44l-3.36,1.38a32.12,32.12,0,0,1-44.3-29.71,71,71,0,0,1,44.06-65.67l85-34.86a33.42,33.42,0,0,1,46.12,30.93,67.89,67.89,0,0,1-4.48,24.28"/><path class="cls-3" d="M1043.31,814.69a33.05,33.05,0,0,0-7.57-10.84,34.86,34.86,0,0,0-4.4-3.55l0,0a32.06,32.06,0,0,0-3.29-2l0,0a33.1,33.1,0,0,0-28.05-1.24l-85,34.86a71,71,0,0,0-43.81,59.82s0,0,0,0,0,0,0,0c-.17,1.93-.24,3.88-.24,5.84a32.47,32.47,0,0,0,1.25,9,31.89,31.89,0,0,0,3.54,8l0,0,0,.06a29.61,29.61,0,0,0,1.83,2.6v0"/><polyline class="cls-3" points="1187.48 1091.89 1068.15 1140.82 1067.92 1140.91"/><polygon class="cls-3" points="1084.91 1123.13 1084.91 1129.75 1089.24 1127.81 1089.24 1121.35 1084.91 1123.13"/><polygon class="cls-3" points="1093.94 1119.42 1093.94 1126.05 1098.27 1124.11 1098.27 1117.65 1093.94 1119.42"/><polygon class="cls-3" points="1102.97 1115.72 1102.97 1122.34 1107.3 1120.4 1107.3 1113.95 1102.97 1115.72"/><polygon class="cls-3" points="1112 1112.02 1112 1118.64 1116.33 1116.7 1116.33 1110.25 1112 1112.02"/><polygon class="cls-3" points="1121.03 1108.32 1121.03 1114.94 1125.36 1113 1125.36 1106.55 1121.03 1108.32"/><polygon class="cls-3" points="1130.06 1104.62 1130.06 1111.24 1134.39 1109.3 1134.39 1102.85 1130.06 1104.62"/><polygon class="cls-3" points="1139.09 1100.92 1139.09 1107.54 1143.42 1105.6 1143.42 1099.14 1139.09 1100.92"/><polygon class="cls-3" points="1148.12 1097.22 1148.12 1103.84 1152.45 1101.9 1152.45 1095.44 1148.12 1097.22"/><polygon class="cls-3" points="1157.15 1093.52 1157.15 1100.14 1161.47 1098.2 1161.47 1091.74 1157.15 1093.52"/><polygon class="cls-3" points="1166.18 1089.81 1166.18 1096.43 1170.51 1094.5 1170.51 1088.04 1166.18 1089.81"/><polygon class="cls-3" points="1090.24 1095.97 1090.24 1102.6 1094.57 1100.66 1094.57 1094.2 1090.24 1095.97"/><polygon class="cls-3" points="1099.27 1092.27 1099.27 1098.89 1103.6 1096.96 1103.6 1090.5 1099.27 1092.27"/><polygon class="cls-3" points="1108.3 1088.57 1108.3 1095.19 1112.63 1093.26 1112.63 1086.8 1108.3 1088.57"/><polygon class="cls-3" points="1117.33 1084.87 1117.33 1091.49 1121.66 1089.55 1121.66 1083.1 1117.33 1084.87"/><polygon class="cls-3" points="1126.36 1081.17 1126.36 1087.79 1130.69 1085.85 1130.69 1079.4 1126.36 1081.17"/><polygon class="cls-3" points="1135.39 1077.47 1135.39 1084.09 1139.72 1082.15 1139.72 1075.69 1135.39 1077.47"/><polygon class="cls-3" points="1144.42 1073.77 1144.42 1080.39 1148.75 1078.45 1148.75 1071.99 1144.42 1073.77"/><polygon class="cls-3" points="1153.45 1070.07 1153.45 1076.69 1157.78 1074.75 1157.78 1068.29 1153.45 1070.07"/><polygon class="cls-3" points="1162.48 1066.36 1162.48 1072.99 1166.81 1071.05 1166.81 1064.59 1162.48 1066.36"/><polyline class="cls-3" points="1067.92 1140.91 1067.92 1140.49 1067.92 1111.24"/><polyline class="cls-3" points="1187.48 1061.81 1187.48 1062.23 1187.48 1091.89"/><polyline class="cls-3" points="1174 1054.54 1181.35 1062.96 1187.48 1062.23"/><polygon class="cls-3" points="1183.06 1073.72 1183.06 1080.71 1073.22 1125.74 1073.22 1119.38 1083.18 1105.49 1157.05 1075.21 1159.17 1074.34 1173.2 1068.59 1183.06 1073.72"/><polyline class="cls-3" points="1023.41 1076.83 1023.41 1076.83 1023.63 1077.15 1032.11 1089.27 1037.82 1097.44 1067.92 1140.49 1068.14 1140.82"/><polyline class="cls-3" points="875.61 914.52 875.64 914.57 877.52 917.25 893.34 939.87 992.69 1081.97 993.3 1082.87"/><polyline class="cls-3" points="1035.74 803.85 1043.3 814.65 1043.3 814.66 1055.23 831.72 1156.53 976.61 1157.15 977.51"/><polyline class="cls-3" points="1067.92 1111.24 1053.72 1090.93 1039.53 1070.64 1031.51 1059.16 1023.41 1047.58 1023.41 1047.58"/><polyline class="cls-3" points="1073.97 1106.67 1060.9 1087.98 1046.72 1067.69 1034.63 1050.4 1029.66 1043.29"/><polyline class="cls-3" points="1082.72 1091.96 1075.7 1081.92 1061.51 1061.63 1046.3 1039.87 1038.21 1028.29"/><polyline class="cls-3" points="1174 1054.54 1157.61 1031.09 1142.97 1010.15 1137.59 1002.45 1129.49 990.87 1129.49 990.87"/><polyline class="cls-3" points="1187.49 1061.81 1160.91 1023.79 1151.07 1009.73 1142.97 998.15"/><polyline class="cls-3" points="1067.92 1111.24 1074.57 1106.67 1082.72 1091.96"/><line class="cls-3" x1="1129.49" y1="990.87" x2="1038.21" y2="1028.29"/><line class="cls-3" x1="1023.63" y1="1077.15" x2="1023.41" y2="1077.24"/><polyline class="cls-3" points="1023.42 1077.24 1023.42 1076.83 1023.42 1047.58"/><line class="cls-3" x1="1142.97" y1="998.57" x2="1142.97" y2="998.15"/><polyline class="cls-3" points="1129.49 990.87 1136.84 999.3 1142.98 998.57"/><polyline class="cls-3" points="1023.41 1047.58 1030.06 1043.01 1038.21 1028.29"/><line class="cls-3" x1="1136.84" y1="999.3" x2="1181.35" y2="1062.96"/><path class="cls-3" d="M1162,1080.32a1.11,1.11,0,0,1-.64.21,1.14,1.14,0,0,1-.94-.48l-3.24-4.65a.69.69,0,0,1-.1-.19l2.12-.87,3.08,4.41A1.12,1.12,0,0,1,1162,1080.32Z"/><path class="cls-3" d="M1153.09,1084a1.21,1.21,0,0,1-.65.2,1.14,1.14,0,0,1-.93-.48l-3.24-4.64a1,1,0,0,1-.11-.2l2.12-.87,3.09,4.41A1.14,1.14,0,0,1,1153.09,1084Z"/><path class="cls-3" d="M1144.2,1087.61a1.08,1.08,0,0,1-.64.2,1.14,1.14,0,0,1-.93-.48l-3.24-4.64a.72.72,0,0,1-.11-.19l2.12-.87,3.08,4.4A1.14,1.14,0,0,1,1144.2,1087.61Z"/><path class="cls-3" d="M1135.32,1091.25a1.11,1.11,0,0,1-.64.21,1.14,1.14,0,0,1-.94-.48l-3.24-4.65a.69.69,0,0,1-.1-.19l2.12-.87,3.08,4.41A1.12,1.12,0,0,1,1135.32,1091.25Z"/><path class="cls-3" d="M1126.44,1094.9a1.21,1.21,0,0,1-.65.2,1.14,1.14,0,0,1-.93-.48l-3.24-4.64a1,1,0,0,1-.11-.2l2.12-.87,3.09,4.41A1.14,1.14,0,0,1,1126.44,1094.9Z"/><path class="cls-3" d="M1117.55,1098.54a1.15,1.15,0,0,1-.64.2,1.14,1.14,0,0,1-.93-.48l-3.24-4.64a.93.93,0,0,1-.11-.19l2.12-.87,3.08,4.4A1.14,1.14,0,0,1,1117.55,1098.54Z"/><path class="cls-3" d="M1108.67,1102.18a1.11,1.11,0,0,1-.64.21,1.14,1.14,0,0,1-.94-.48l-3.24-4.65a.69.69,0,0,1-.1-.19l2.12-.87,3.08,4.4A1.13,1.13,0,0,1,1108.67,1102.18Z"/><path class="cls-3" d="M1099.79,1105.83a1.21,1.21,0,0,1-.65.2,1.14,1.14,0,0,1-.93-.48l-3.24-4.65a.72.72,0,0,1-.11-.19l2.12-.87,3.09,4.41A1.14,1.14,0,0,1,1099.79,1105.83Z"/><path class="cls-3" d="M1090.9,1109.47a1.15,1.15,0,0,1-.64.2,1.14,1.14,0,0,1-.93-.48l-3.24-4.64a.93.93,0,0,1-.11-.19l2.12-.88,3.08,4.41A1.14,1.14,0,0,1,1090.9,1109.47Z"/><path class="cls-3" d="M1080.59,1109.09l1.71,2.44a1.14,1.14,0,0,1-.28,1.58,1.18,1.18,0,0,1-.64.2,1.16,1.16,0,0,1-.94-.48l-1.24-1.79"/></g></svg>