<svg xmlns="http://www.w3.org/2000/svg" viewBox="0 0 1640.44 1438.07"><defs><style>.cls-1{opacity:0.5;}.cls-2{fill:#040713;stroke-miterlimit:10;}.cls-2,.cls-3{stroke:#fff;}.cls-3{fill:none;stroke-linecap:round;stroke-linejoin:round;}</style></defs><title>screwdrivers</title><g id="argon_caly" data-name="argon caly"><path class="cls-2" d="M1564,650.28c-3.67-10.23-9.6-19-16.71-24.59s-14.7-7.54-21.17-5.21l-.19.07-19.67,8.2c-5.84-2.56-11.62-3-16.73-1.12a17.34,17.34,0,0,0-1.94.82h0L1278,717.1h0a22,22,0,0,0-11.55,10.32,19.3,19.3,0,0,0-10.59.62,17.51,17.51,0,0,0-2.57,1.15l0,0-66.42,32.6c-.29.13-.57.26-.84.41l-.36.17a.53.53,0,0,0-.14.11,17.82,17.82,0,0,0-3.67,2.81,16.75,16.75,0,0,0-5.74,1,17,17,0,0,0-6.31,4.06,16.78,16.78,0,0,0-5.73,1,17.07,17.07,0,0,0-6.45,4.2,16.43,16.43,0,0,0-5.91,1,17,17,0,0,0-6.88,4.65c-6-2.82-11.92-3.33-17.16-1.45-.53.19-1,.41-1.56.64l-12.38,5.16,0,0c-12,4.35-18.21,20.38-15.4,40L686.67,996.83h0l-170.27,61-93.82,49a.39.39,0,0,0-.1.08l0,0a1,1,0,0,0-.09.13l0,0a.51.51,0,0,0,0,.13s0,0,0,.06a.43.43,0,0,0,0,.11s0,0,0,.07l12,28.78a.54.54,0,0,0,.09.12.73.73,0,0,0,.08.09.43.43,0,0,0,.26.09h0l.12,0,105.33-27.18.1,0,160.44-83.5h0l408.9-170.29c8.4,12.58,19.27,19.78,29.21,19.78a19.43,19.43,0,0,0,6.59-1.13h0l.15-.06c.47-.18.94-.37,1.39-.58l12.31-5.13h.05c5.86-2.1,10.42-7,13.21-14.12.32,0,.64,0,1,0a16.55,16.55,0,0,0,5.61-1,17.11,17.11,0,0,0,6.44-4.2h.38a16.52,16.52,0,0,0,5.55-1,17.25,17.25,0,0,0,6.29-4h.15a16.48,16.48,0,0,0,5.6-1,17,17,0,0,0,6.3-4.06h.15a16,16,0,0,0,8.39-2.3l67.9-23.12.16,0a19.31,19.31,0,0,0,8.53-6.22,24.56,24.56,0,0,0,8.89,1.77,19.78,19.78,0,0,0,6.68-1.14h0l.1,0a17.42,17.42,0,0,0,1.67-.71l209.74-88.7c5.73-2.06,10.28-6.75,13.16-13.57l18.39-7.66h0c6.47-2.33,11.08-8.53,13-17.46S1567.63,660.51,1564,650.28Z"/><path class="cls-2" d="M755.15,537.54c8.41,12.58,19.27,19.77,29.21,19.77a19.43,19.43,0,0,0,6.59-1.13h0l.06,0c.51-.19,1-.4,1.5-.62l12.29-5.12,0,0c5.86-2.1,10.42-7,13.21-14.11l.95,0a16.32,16.32,0,0,0,5.62-1,17,17,0,0,0,6.44-4.19h.38a16.32,16.32,0,0,0,5.55-1,17.09,17.09,0,0,0,6.29-4h.15a16.49,16.49,0,0,0,5.6-1,16.77,16.77,0,0,0,6.3-4.06h.15a16.34,16.34,0,0,0,8.41-2.31l67.87-23.11.17-.06a19.28,19.28,0,0,0,8.53-6.21,24.54,24.54,0,0,0,8.89,1.76,19.78,19.78,0,0,0,6.68-1.14h0l.1,0c.57-.22,1.12-.45,1.66-.71l209.72-88.7h0c5.74-2.06,10.29-6.75,13.18-13.57l18.39-7.67h0c6.47-2.32,11.08-8.52,13-17.46s.94-19.38-2.73-29.61-9.6-19-16.71-24.59-14.7-7.53-21.17-5.21h0l-.73.31c-.25.1-.51.19-.76.31h0l-.1,0-18.24,7.59c-5.84-2.55-11.62-2.94-16.73-1.12a16.79,16.79,0,0,0-2,.83h0L923.41,399.12h0a22,22,0,0,0-11.55,10.32,19.3,19.3,0,0,0-10.59.61,18.63,18.63,0,0,0-2.57,1.15l-.06,0-66.42,32.6c-.27.12-.54.25-.8.39l-.38.19a.58.58,0,0,0-.15.11,17.42,17.42,0,0,0-3.66,2.81,16.55,16.55,0,0,0-5.74,1,17,17,0,0,0-6.31,4.07,16.73,16.73,0,0,0-5.73.95,17.09,17.09,0,0,0-6.45,4.21,16.21,16.21,0,0,0-5.91.94,17,17,0,0,0-6.88,4.66c-6-2.83-11.92-3.34-17.16-1.46h0c-.51.19-1,.4-1.49.62l-12.4,5.17h0c-12.05,4.36-18.21,20.38-15.4,40l-19.21,8L93.86,778.09h0l-.1.07-.06,0h0L73.89,799.94a4.18,4.18,0,0,0,3.09,7h31.19a.46.46,0,0,0,.21,0l628-261.54Z"/><line class="cls-3" x1="434.79" y1="1136.05" x2="422.8" y2="1107.27"/><polyline class="cls-3" points="700.49 1025.39 700.55 1025.36 1109.87 854.89 1123.79 849.1 1134.08 844.81 1136.17 843.94"/><polyline class="cls-3" points="1125.06 814.79 1122.99 815.65 1112.68 819.95 1098.77 825.74 686.86 997.29"/><path class="cls-3" d="M1130.45,873.08h0"/><line class="cls-3" x1="1553.49" y1="696.89" x2="1534.91" y2="704.63"/><line class="cls-3" x1="1101.78" y1="797.73" x2="1101.77" y2="797.73"/><path class="cls-3" d="M1526.25,621l-1.46.61-.14.06-18.42,7.67"/><path class="cls-3" d="M1109.87,854.89c9.83,14.92,23.88,23,35.45,18.8,15.08-5.41,20.25-29.44,11.56-53.68s-28-39.51-43-34.1c-12.17,4.36-17.9,20.87-15.07,39.83"/><path class="cls-3" d="M1134.06,844.82h0a4.52,4.52,0,0,0,.8-.22,5.58,5.58,0,0,0,1.29-.65c4.07-2.64,5.27-10,2.6-17.44-2.78-7.76-8.76-12.78-13.71-11.71h0a5.2,5.2,0,0,0-.77.22,5.78,5.78,0,0,0-1.27.63h0"/><path class="cls-3" d="M1152.55,869a18.81,18.81,0,0,0,6.69-1.08c6-2.15,10.43-7.26,13-14.16a41.19,41.19,0,0,0,2.17-8.57,58.09,58.09,0,0,0-.06-16.39,72.45,72.45,0,0,0-3.61-14.57,71.61,71.61,0,0,0-8-15.89,54.69,54.69,0,0,0-10.73-12,37.44,37.44,0,0,0-7.21-4.67c-5.79-2.81-11.72-3.52-17.11-1.59a19.11,19.11,0,0,0-7.24,4.71"/><path class="cls-3" d="M1157.73,776a16.63,16.63,0,0,1,6.42-4.23,15.93,15.93,0,0,1,5.76-.93,20.38,20.38,0,0,1,7.63,1.68c9.5,4,18.76,14.57,23.85,28.75,4.78,13.33,4.71,26.58.68,35.67a22.69,22.69,0,0,1-4.41,6.69,16.65,16.65,0,0,1-6.27,4.08,15.88,15.88,0,0,1-6,.92"/><path class="cls-3" d="M1144.86,781.7a16.59,16.59,0,0,1,6.93-4.79,15.83,15.83,0,0,1,5.94-.92,20.52,20.52,0,0,1,7.67,1.76,33.37,33.37,0,0,1,9.36,6.25A56.66,56.66,0,0,1,1189,806.41a57.8,57.8,0,0,1,3.47,24.16h0a36.06,36.06,0,0,1-2.68,11.26,23.07,23.07,0,0,1-4.37,6.78,16.55,16.55,0,0,1-6.42,4.23,16.18,16.18,0,0,1-6.73.89"/><path class="cls-3" d="M1169.91,770.83a16.51,16.51,0,0,1,6.28-4.09,16,16,0,0,1,5.77-.93c11.85.18,25,12.45,31.46,30.43,6.15,17.14,4.29,34.15-3.71,42.36a16.51,16.51,0,0,1-6.28,4.09,16,16,0,0,1-5.77.93"/><path class="cls-3" d="M1182,765.81a16.53,16.53,0,0,1,6.27-4.08c13-4.68,29.71,8.53,37.23,29.5s3,41.76-10,46.44a15.88,15.88,0,0,1-5.75.93"/><path class="cls-3" d="M1285.58,813.41l.75-.25a18.9,18.9,0,0,0,8.55-6.34c7.59-9.68,9-27.49,2.6-45.42s-18.85-30.75-30.84-33.42a18.94,18.94,0,0,0-10.67.53,18.13,18.13,0,0,0-2.5,1.12l-.13.07"/><path class="cls-3" d="M1553.49,696.89c13-4.67,17.52-25.47,10-46.44s-24.2-34.18-37.24-29.5a15.51,15.51,0,0,0-1.46.61l-.14.06"/><path class="cls-3" d="M1521.94,718.12c5.86-2.1,10.25-6.94,13-13.49a41.33,41.33,0,0,0,2.63-9.72c1.41-9.41.29-20.6-3.74-31.84-4.4-12.26-11.43-22.28-19.29-28.61a37.39,37.39,0,0,0-8.28-5.17c-5.63-2.51-11.34-3.06-16.57-1.19a18.05,18.05,0,0,0-1.87.79h0"/><path class="cls-3" d="M1266.64,728c2.73-5,6.61-8.66,11.51-10.42,15.46-5.55,35.22,10.11,44.13,35,8.55,23.81,4,47.43-10,54.24h0a18.05,18.05,0,0,1-1.87.79c-4.91,1.76-10.26,1.39-15.55-.75"/><line class="cls-3" x1="1278.15" y1="717.56" x2="1489.66" y2="628.1"/><line class="cls-3" x1="1310.43" y1="807.57" x2="1521.94" y2="718.12"/><polyline class="cls-3" points="434.79 1136.05 540.11 1108.86 700.55 1025.36"/><polyline class="cls-3" points="686.86 997.29 516.62 1058.31 422.8 1107.26"/><line class="cls-3" x1="1145.32" y1="873.69" x2="1159.23" y2="867.89"/><line class="cls-3" x1="1113.84" y1="785.9" x2="1127.75" y2="780.11"/><line class="cls-3" x1="1185.79" y1="762.84" x2="1254.24" y2="729.25"/><line class="cls-3" x1="1218.26" y1="836.33" x2="1286.33" y2="813.16"/><polyline class="cls-3" points="108.17 806.43 736.2 544.88 760.25 534.88 778.02 527.47 781.63 525.96"/><polyline class="cls-3" points="94.05 778.55 724.66 515.92 748.92 505.82 766.91 498.31 770.52 496.81"/><path class="cls-3" d="M775.91,555.1h0"/><line class="cls-3" x1="1198.95" y1="378.91" x2="1180.37" y2="386.65"/><line class="cls-3" x1="747.24" y1="479.75" x2="747.23" y2="479.75"/><path class="cls-3" d="M1171.71,303l-1.46.61-.14.06-18.42,7.67"/><path class="cls-3" d="M755.33,536.91c9.83,14.92,23.88,23,35.45,18.8C805.86,550.3,811,526.27,802.34,502s-28-39.51-43-34.1c-12.17,4.36-17.9,20.87-15.07,39.83"/><path class="cls-3" d="M779.52,526.84h0a4.52,4.52,0,0,0,.8-.22,5.58,5.58,0,0,0,1.29-.65c4.07-2.64,5.27-10,2.6-17.44-2.78-7.76-8.76-12.78-13.71-11.71h0a5.2,5.2,0,0,0-.77.22,5.78,5.78,0,0,0-1.27.63h0"/><path class="cls-3" d="M798,551a18.81,18.81,0,0,0,6.69-1.08c6-2.15,10.43-7.26,13-14.16a41.19,41.19,0,0,0,2.17-8.57,58.09,58.09,0,0,0-.06-16.39,72.45,72.45,0,0,0-3.61-14.57,71.61,71.61,0,0,0-8-15.89,54.69,54.69,0,0,0-10.73-11.95,37.44,37.44,0,0,0-7.21-4.67c-5.79-2.81-11.72-3.52-17.11-1.59a19.11,19.11,0,0,0-7.24,4.71"/><path class="cls-3" d="M803.19,458a16.63,16.63,0,0,1,6.42-4.23,15.93,15.93,0,0,1,5.76-.93,20.38,20.38,0,0,1,7.63,1.68c9.5,4,18.76,14.57,23.85,28.75,4.78,13.33,4.71,26.58.68,35.67a22.69,22.69,0,0,1-4.41,6.69,16.65,16.65,0,0,1-6.27,4.08,15.88,15.88,0,0,1-6,.92"/><path class="cls-3" d="M790.32,463.72a16.59,16.59,0,0,1,6.93-4.79,15.83,15.83,0,0,1,5.94-.92,20.52,20.52,0,0,1,7.67,1.76,33.37,33.37,0,0,1,9.36,6.25,56.66,56.66,0,0,1,14.26,22.41A57.8,57.8,0,0,1,838,512.59h0a36.06,36.06,0,0,1-2.68,11.26,23.07,23.07,0,0,1-4.37,6.78,16.55,16.55,0,0,1-6.42,4.23,16.18,16.18,0,0,1-6.73.89"/><path class="cls-3" d="M815.37,452.85a16.51,16.51,0,0,1,6.28-4.09,16,16,0,0,1,5.77-.93c11.85.18,25,12.45,31.46,30.43,6.15,17.14,4.29,34.15-3.71,42.36a16.51,16.51,0,0,1-6.28,4.09,16,16,0,0,1-5.77.93"/><path class="cls-3" d="M827.42,447.83a16.53,16.53,0,0,1,6.27-4.08c13-4.68,29.71,8.53,37.23,29.5s3.05,41.76-10,46.44a15.88,15.88,0,0,1-5.75.93"/><path class="cls-3" d="M931,495.43l.75-.25a18.9,18.9,0,0,0,8.55-6.34c7.59-9.68,9-27.49,2.6-45.42S924.09,412.67,912.1,410a18.94,18.94,0,0,0-10.67.53,18.13,18.13,0,0,0-2.5,1.12l-.13.07"/><path class="cls-3" d="M1199,378.91c13-4.67,17.52-25.47,10-46.44s-24.2-34.18-37.24-29.5a15.51,15.51,0,0,0-1.46.61l-.14.06"/><path class="cls-3" d="M1167.4,400.14c5.86-2.1,10.25-6.94,13-13.49a41.33,41.33,0,0,0,2.63-9.72c1.41-9.41.29-20.6-3.74-31.84-4.4-12.26-11.43-22.28-19.29-28.61a37.39,37.39,0,0,0-8.28-5.17c-5.63-2.51-11.34-3.06-16.57-1.19a18.05,18.05,0,0,0-1.87.79h0"/><path class="cls-3" d="M912.1,410c2.73-5,6.61-8.66,11.51-10.42,15.46-5.55,35.22,10.11,44.13,35,8.55,23.81,4,47.43-10,54.24h0a18.05,18.05,0,0,1-1.87.79c-4.91,1.76-10.26,1.39-15.55-.75"/><line class="cls-3" x1="923.61" y1="399.58" x2="1135.12" y2="310.13"/><line class="cls-3" x1="955.89" y1="489.6" x2="1167.4" y2="400.14"/><line class="cls-3" x1="790.78" y1="555.71" x2="804.69" y2="549.92"/><line class="cls-3" x1="759.29" y1="467.93" x2="773.21" y2="462.13"/><line class="cls-3" x1="831.25" y1="444.87" x2="899.7" y2="411.28"/><line class="cls-3" x1="863.72" y1="518.36" x2="931.79" y2="495.18"/><polygon class="cls-3" points="74.25 803.68 96.08 780.43 152.16 765.42 105.96 802.09 74.25 803.68"/><path class="cls-3" d="M108.17,806.43H77a3.68,3.68,0,0,1-2.72-6.16l19.79-21.72"/><line class="cls-3" x1="74.25" y1="803.68" x2="152.16" y2="765.42"/></g></svg>